<?xml version="1.0" encoding="utf-8"?>
<!-- Generator: Adobe Illustrator 21.0.0, SVG Export Plug-In . SVG Version: 6.00 Build 0)  -->
<svg version="1.1" id="Layer_1" xmlns="http://www.w3.org/2000/svg" xmlns:xlink="http://www.w3.org/1999/xlink" x="0px" y="0px"
	 width="459.4px" height="276px" viewBox="0 0 459.4 276" style="enable-background:new 0 0 459.4 276;" xml:space="preserve">
<style type="text/css">
	.st0{fill:#FFFFFF;}
</style>
<g>
	<g>
		<path class="st0" d="M211.8,158c1.1-0.8,1.6-2.1,1.6-3.7c0-3.2-2.1-4.8-6.4-4.8h-7.6v9.8h7.6C209.1,159.3,210.7,158.9,211.8,158z"
			/>
	</g>
	<g>
		<path class="st0" d="M212.5,171.2c1-0.8,1.6-2.1,1.6-3.8c0-3.5-2.2-5.2-6.5-5.2h-8.2v10.2h8.2C209.8,172.4,211.4,172,212.5,171.2z
			"/>
	</g>
	<g>
		<path class="st0" d="M210.6,61.6c-0.7-0.5-1.7-0.8-3.2-0.8h-5v6h5c2.8,0,4.2-1,4.2-3C211.6,62.8,211.3,62.1,210.6,61.6z"/>
	</g>
	<g>
		<path class="st0" d="M252.6,172.6c3,0,5.3-1,7-3s2.5-4.9,2.5-8.6s-0.8-6.6-2.5-8.6s-4-3-7-3s-5.3,1-7,3c-1.7,2-2.5,4.9-2.5,8.6
			s0.8,6.6,2.5,8.6C247.2,171.6,249.6,172.6,252.6,172.6z"/>
	</g>
	<g>
		<path class="st0" d="M67,61.1h-3.6v16.3H67c2.7,0,4.8-0.7,6.2-2c1.4-1.4,2-3.4,2-6.2C75.2,63.8,72.5,61.1,67,61.1z"/>
	</g>
	<g>
		<path class="st0" d="M138.5,183.3h44.8v-44.8h-44.8V183.3z M167.2,165.2c-0.6-0.6-1.4-1.1-2.3-1.4c-1-0.3-2.3-0.7-3.9-1.1
			c-2.2-0.5-3.9-1-5.3-1.5c-1.4-0.6-2.5-1.4-3.4-2.4c-0.9-1-1.3-2.4-1.3-4.1c0-1.6,0.4-3,1.3-4.3c0.8-1.2,2-2.2,3.6-2.9
			c1.5-0.7,3.3-1,5.4-1c2,0,3.8,0.3,5.5,0.9c1.7,0.6,3.1,1.5,4.3,2.7l-1.3,2.5c-1.3-1.1-2.7-2-4-2.5c-1.4-0.5-2.8-0.8-4.5-0.8
			c-2.2,0-3.9,0.5-5.1,1.4c-1.2,0.9-1.9,2.2-1.9,3.9c0,1.4,0.5,2.5,1.6,3.2c1.1,0.7,2.7,1.3,5,1.9c2.4,0.6,4.3,1.1,5.7,1.6
			c1.4,0.5,2.5,1.2,3.5,2.2c0.9,1,1.4,2.3,1.4,3.9s-0.4,3-1.3,4.2c-0.8,1.2-2.1,2.1-3.6,2.8c-1.6,0.7-3.4,1-5.5,1
			c-4.4,0-7.9-1.2-10.5-3.6l1.2-2.5c1.4,1.2,2.8,2,4.3,2.5s3.1,0.8,5.1,0.8c2.3,0,4-0.4,5.2-1.3c1.2-0.9,1.8-2.1,1.8-3.7
			C168.1,166.6,167.8,165.8,167.2,165.2z"/>
	</g>
	<g>
		<path class="st0" d="M115.1,218.6c2.3,0,3.9-1,5-2.9c1.1-1.9,1.6-4.9,1.6-9c0-4-0.5-7-1.6-8.9c-1.1-1.9-2.7-2.8-5-2.8
			c-2.3,0-3.9,0.9-5,2.8c-1.1,1.9-1.6,4.9-1.6,8.9s0.5,7,1.6,8.9C111.2,217.6,112.8,218.6,115.1,218.6z"/>
	</g>
	<g>
		<path class="st0" d="M201.6,217.2c1.2,0.9,2.9,1.4,5.2,1.4c2.2,0,4-0.5,5.2-1.4c1.2-0.9,1.8-2.2,1.8-4c0-1.6-0.6-2.8-1.9-3.8
			c-1.3-0.9-3-1.5-5.1-1.7c-2.1,0.2-3.8,0.8-5.1,1.7c-1.3,0.9-1.9,2.2-1.9,3.8C199.8,215,200.4,216.3,201.6,217.2z"/>
	</g>
	<g>
		<path class="st0" d="M211.3,203.7c1.1-0.9,1.7-2.2,1.7-3.7c0-1.6-0.6-2.8-1.7-3.7c-1.1-0.9-2.6-1.4-4.6-1.4s-3.5,0.5-4.6,1.4
			c-1.1,0.9-1.7,2.1-1.7,3.7c0,1.5,0.6,2.8,1.7,3.7c1.1,0.9,2.7,1.5,4.6,1.7C208.7,205.2,210.2,204.6,211.3,203.7z"/>
	</g>
	<g>
		<path class="st0" d="M276,92.7v44.8h44.8V92.7H276z M307.4,129.2l-2.5-5.8h-12.5l-2.5,5.8h-7.4l13.2-28.2h5.9l13.2,28.2H307.4z"/>
	</g>
	<g>
		<polygon class="st0" points="294.8,117.8 302.5,117.8 298.7,108.9 		"/>
	</g>
	<g>
		<path class="st0" d="M118.7,61.5c-0.7-0.5-1.9-0.7-3.5-0.7h-4.7v6.1h4.7c1.6,0,2.7-0.2,3.4-0.7c0.7-0.5,1.1-1.2,1.1-2.3
			C119.8,62.8,119.4,62,118.7,61.5z"/>
	</g>
	<g>
		<path class="st0" d="M92.7,137.5h44.8V92.7H92.7V137.5z M105,101h20.1v5.7h-12.9v5.3h12v5.7h-12v5.8h12.9v5.7H105V101z"/>
	</g>
	<g>
		<path class="st0" d="M92.7,183.3h44.8v-44.8H92.7V183.3z M113.5,146.8h3.2V175h-3.2V146.8z"/>
	</g>
	<g>
		<polygon class="st0" points="256.5,72 252.7,63 248.8,72 		"/>
	</g>
	<g>
		<path class="st0" d="M251,106.9h-3.6v16.3h3.6c2.7,0,4.8-0.7,6.2-2c1.4-1.4,2-3.4,2-6.2C259.2,109.6,256.5,106.9,251,106.9z"/>
	</g>
	<g>
		<path class="st0" d="M67,106.9h-3.6v16.3H67c2.7,0,4.8-0.7,6.2-2c1.4-1.4,2-3.4,2-6.2C75.2,109.6,72.5,106.9,67,106.9z"/>
	</g>
	<g>
		<path class="st0" d="M413.5,0h-1h-44.8h-1h-44.8h-1H276h-1h-44.8h-1h-44.8h-1h-44.8h-1H92.7h-1H46.9h-1H0v45.8v1v44.8v1v44.8v1
			v44.8v1V229v1v46h45.8h1h44.8h1h44.8h1h44.8h1H229h1h45h1h44.8h1h44.8h1h44.8h1h45.8v-45.8v-1v-44.8v-1v-44.8v-1V92.7v-1V46.9v-1
			V0H413.5z M1,1h44.8v44.8H1V1z M23.4,86.6l-5.1,5.1h-6.1l11.2-11.2l11.2,11.2h-6.1L23.4,86.6z M25.1,91.7h-3.3l1.7-1.7L25.1,91.7z
			 M23.4,77.1L8.8,91.7h-6L23.4,71l20.7,20.7H38L23.4,77.1z M2.8,46.9h6l14.6,14.6L38,46.9h6.1L23.4,67.5L2.8,46.9z M23.4,52
			l5.1-5.1h6.1L23.4,58L12.3,46.9h6L23.4,52z M21.8,46.9h3.3l-1.7,1.7L21.8,46.9z M1,67.6l1.7,1.7L1,70.9V67.6z M1,74.3l5.1-5
			L1,64.2v-6.1l11.2,11.2L1,80.4V74.3z M1,83.8l14.6-14.5L1,54.6v-6.1l20.7,20.7L1,89.9V83.8z M45.8,275H1v-44.8h44.8V275z
			 M45.8,229.2H1v-44.8h44.8V229.2z M45.8,183.3H1v-44.8h44.8V183.3z M45.8,137.5H1V92.7h44.8V137.5z M45.8,70.9l-1.7-1.7l1.7-1.7
			V70.9z M45.9,64.2h-0.1l-5.1,5.1l5.1,5.1v6.1L34.7,69.3l11.2-11.2V64.2z M45.9,54.7L31.2,69.3l14.6,14.6V90L25.2,69.3l20.7-20.7
			V54.7z M367.7,1h6.6l-6.6,6.6V1z M367.7,31.1h7.1h0h7.7v-7.7l-7.7,7.7v-7.6l-7.1,7.1v-7.1h7.1v-0.1h7.7v-7.6l-7.7,7.6v-7.5
			l-7.1,7.1v-7.1h7.1v-0.1h7.7V8.2l-7.7,7.6V8.2l-7.1,7.1V8.2h7.1V8.1V1h7.1l-7.1,7.1h7.6V1h7.1l-7.1,7.1h7.6V1h7.1L390,8.1h7.6V1
			h7.1l-7.1,7.1h7.6V1h7.1l-7.1,7.1h7.1v0.5l-6.9,6.9V8.2l-7.7,7.6h7.7v-0.1h6.9v0.5l-6.9,6.9v-7.3l-7.7,7.6h7.7v-0.1h6.9v0.5
			l-6.9,6.9v-7.3l-7.7,7.7h7.7v-0.2h6.9v0.5l-6.9,6.9v-7.2l-7.7,7.6h7.3l-6.9,6.9h-0.5v-6.9h0.1v-7.6l-7.6,7.6h7.3l-6.9,6.9H390
			v-6.9h0.1v-7.6l-7.6,7.6h7.3l-6.9,6.9h-0.5v-6.9h0.1v-7.6l-7.7,7.6v-0.2v-7.4l-7.1,7.1V31.1z M405.2,38.7h0.2v-0.2h6.9V39
			l-6.6,6.6h-0.5V38.7z M374.8,38.7h7.4l-6.9,6.9h-0.5V38.7z M367.7,38.7h6.9l-6.9,7.1V38.7z M367.7,46.9h44.8v44.8h-44.8V46.9z
			 M393.5,119.6c-0.8-0.5-2.2-0.9-4.3-1.4c-2.7-0.5-4.7-1.2-6.2-2c-1.5-0.8-2.5-1.7-3.1-2.8c-0.6-1.1-0.9-2.3-0.9-3.8
			c0-1.7,0.5-3.3,1.5-4.7c1-1.4,2.4-2.5,4.1-3.2c1.8-0.8,3.8-1.2,6.1-1.2c2,0,4,0.3,5.9,0.9c1.9,0.6,3.4,1.3,4.5,2.2l-2.3,5.3
			c-1.2-0.9-2.5-1.5-3.9-2c-1.4-0.5-2.7-0.7-4.1-0.7c-1.3,0-2.4,0.3-3.2,0.8c-0.8,0.5-1.2,1.2-1.2,2.1c0,0.5,0.1,0.9,0.4,1.2
			s0.8,0.6,1.6,0.9c0.8,0.3,2,0.6,3.6,1c2.6,0.6,4.6,1.2,6,2c1.5,0.8,2.5,1.7,3.1,2.7c0.6,1,0.9,2.3,0.9,3.7c0,2.7-1.1,4.9-3.2,6.5
			c-2.1,1.6-5.1,2.4-9,2.4c-2.1,0-4.2-0.3-6.3-0.8c-2.1-0.6-3.7-1.3-5-2.3l2.3-5.3c1.4,0.9,2.8,1.5,4.4,2c1.5,0.5,3.1,0.7,4.7,0.7
			c1.6,0,2.8-0.2,3.6-0.7c0.8-0.4,1.3-1,1.3-1.8C394.6,120.7,394.2,120.1,393.5,119.6z M321.9,1h44.8v44.8h-44.8V1z M321.9,46.9
			h44.8v44.8h-44.8V46.9z M328.6,101h8.4l7.1,11.2l7.2-11.2h8.5L348,118.4v10.8h-7.5v-10.8L328.6,101z M276,1h44.8v44.8H276V1z
			 M309.7,77.4v5.9h-19.4V55.2h7.4v22.2H309.7z M230.2,1H275v44.8h-44.8V1z M268.7,83.4h-7.3l-2.5-5.8h-12.5l-2.5,5.8h-7.4
			l13.2-28.2h5.9L268.7,83.4z M184.5,28.8l1.6,1.6l6.9-6.9l-6.9-6.9l-1.6,1.6V8l1.6,1.6l6.9-6.9L191.3,1h10.3l-1.7,1.7l6.9,6.9
			l6.9-6.9L212.1,1h10.3l-1.7,1.7l6.9,6.9l1.5-1.5V18l-1.8-1.8l-6.9,6.9l6.9,6.9l1.9-1.9v10.7l-1.9-1.9l-6.9,6.9l1.8,1.8h-10.6
			l1.8-1.8l-6.9-6.9l-6.9,6.9l1.8,1.8h-9.9l1.5-1.5l-6.9-6.9l-1.6,1.6V28.8z M200.7,94.8l-2.1-2.1h2.3l1.7,1.7v2.4h2.4l1.7,1.7
			l1.7-1.7h2.4v-2.4l1.7-1.7h2.3l-2.1,2.1l-0.3,0.3v0.4v2.9h-2.9h-0.4l-0.3,0.3l-2.1,2.1l-2.1-2.1l-0.3-0.3H204H201v-2.9v-0.4
			L200.7,94.8z M203.4,93.6l-0.9-0.9h8.6l-0.9,0.9l-0.3,0.3v0.4v1.3h-1.3H208l-0.3,0.3l-0.9,0.9l-0.9-0.9l-0.3-0.3h-0.4h-1.3v-1.3
			V94L203.4,93.6z M208.5,72.3h-6v11H195V55.2h13.4c3.2,0,5.7,0.8,7.5,2.3c1.8,1.5,2.7,3.6,2.7,6.3c-0.1,2.6-1,4.7-2.7,6.2
			C214.1,71.6,211.6,72.3,208.5,72.3z M197.1,92.7l2.8,2.8v4h4l2.8,2.8l2.8-2.8h4v-4l2.8-2.8h12.8v44.8h-12.8l-2.8-2.8v-4h-4
			l-2.8-2.8l-2.8,2.8h-4v4l-2.8,2.8h-12.7v-12.8l2.8-2.8h4v-4l2.8-2.8l-2.8-2.8v-4h-4l-2.8-2.8V92.7H197.1z M212.8,135.4l2.1,2.1
			h-16.2l2.1-2.1l0.3-0.3v-0.4v-2.9h2.9h0.4l0.3-0.3l2.1-2.1l2.1,2.1l0.3,0.3h0.4h2.9v2.9v0.4L212.8,135.4z M207.5,146.9
			c2.9,0,5.1,0.6,6.7,1.9c1.6,1.3,2.4,3.1,2.4,5.4c0,1.5-0.4,2.8-1.2,3.9s-1.9,1.9-3.3,2.4c1.7,0.5,3,1.3,3.9,2.5
			c0.9,1.2,1.3,2.6,1.3,4.4c0,2.5-0.8,4.4-2.5,5.7c-1.6,1.3-3.9,2-6.9,2h-11.7v-28.2H207.5z M187.7,114.2l0.9,0.9l-0.9,0.9l-0.3,0.3
			v0.4v1.3h-1.3h-0.4l-0.3,0.3l-0.9,0.9v-8.5l0.9,0.9l0.3,0.3h0.4h1.3v1.3v0.4L187.7,114.2z M186.1,119.2h2.4v-2.4l1.7-1.7l-1.7-1.7
			V111h-2.4l-1.7-1.7V107l2,2l0.3,0.3h0.4h2.9v2.9v0.4l0.3,0.3l2.1,2.1l-2.1,2.1l-0.3,0.3v0.4v2.9h-2.9h-0.4l-0.3,0.3l-2,2v-2.3
			L186.1,119.2z M138.5,1h44.8v44.8h-44.8V1z M157,76.3c0.9,1.1,2.2,1.6,3.9,1.6c1.7,0,2.9-0.5,3.8-1.6c0.9-1.1,1.3-2.6,1.3-4.7V55
			h7.3v16.3c0,4-1.1,7-3.2,9.1c-2.2,2.1-5.2,3.1-9.3,3.1c-4.1,0-7.2-1-9.3-3.1c-2.1-2.1-3.2-5.1-3.2-9.1V55h7.2v16.6
			C155.7,73.6,156.1,75.2,157,76.3z M92.7,1h44.8v44.8H92.7V1z M123,72.6c0.6,0.6,1.1,1.4,1.5,2.3l3.3,8.4H120l-3.6-9.4
			c-0.4-1.1-1.4-1.6-3-1.6h-2.7v11h-7.3V55.2h13.1c3.4,0,6,0.7,7.7,2.2s2.6,3.6,2.6,6.3c0,1.9-0.5,3.5-1.5,4.9c-1,1.4-2.4,2.4-4.3,3
			C121.7,71.7,122.4,72,123,72.6z M46.9,1h44.8v44.8H46.9V1z M82.5,69.2c0,2.9-0.6,5.5-1.8,7.6s-2.9,3.7-5.2,4.9
			c-2.3,1.1-5,1.7-8.1,1.7H56V55.2h11.5c3.1,0,5.8,0.6,8.1,1.7c2.3,1.1,4,2.7,5.2,4.9C81.9,63.8,82.5,66.3,82.5,69.2z M62.3,274.8
			l7-7v0.1l0.1-0.1v7H62.3z M69.9,274.8l7-7v0.1l0.1-0.1v7H69.9z M91.7,275h-6.6l6.6-6.6V275z M91.7,237.3h-7.1v7.6l7.1-7.1v7.1
			h-7.1v7.6l7.1-7.1v7.1h-7.1v7.6l7.1-7.1v7.1h-7.1v7.6l7.1-7.1v7.1h-7.1v7.1h-7.1l7.1-7.1h-7.5l7.4-7.5h-7.6v7.5h-7.4l7.4-7.5h-7.6
			v7.5h-7.5v7.1h-7.1l7.1-7.1h0l7.5-7.5h-7.7v7.5h-7.4l7.4-7.5H54v7.5v0.2v6.9h-7.1l7.1-7.1h-7.1v-0.5l7.1-7.1h-7.1v-0.5l7.1-7.1
			h-7.1V252l7.1-7h-7.1v-0.5l7.1-7.1h-7.1v-0.5l6.6-6.6H54v7v0.1v7.6l7.6-7.7h-7.5l7-7h0.5v7v0.1v7.6l7.6-7.6l0.1-0.1l7-7h0.5v7
			h-7.5v7.7l7.6-7.7h0l7-7h0.5v7h-7.5v7.7l7.5-7.6l7.3-7.2V237.3z M78.8,218.3v2.7H60.5v-2.5l10-11c1.3-1.5,2.3-2.8,2.9-4
			c0.6-1.2,0.9-2.4,0.9-3.6c0-1.6-0.5-2.8-1.4-3.6c-0.9-0.8-2.2-1.3-3.9-1.3c-2.7,0-5.4,1.1-8.1,3.3l-1.2-2.5
			c1.1-1.1,2.5-1.9,4.2-2.6c1.7-0.6,3.4-1,5.2-1c2.6,0,4.7,0.7,6.2,2c1.5,1.3,2.3,3.2,2.3,5.5c0,1.6-0.4,3.2-1.1,4.7s-2,3.2-3.7,5.1
			l-8.1,8.8H78.8z M69.2,237.3h-7.5l7-7h0.5V237.3z M137.5,275H92.7v-44.8h44.8V275z M105.1,206.8c0-4.8,0.8-8.4,2.5-10.9
			c1.7-2.5,4.2-3.7,7.4-3.7c3.3,0,5.7,1.2,7.4,3.7c1.7,2.5,2.5,6.1,2.5,10.8c0,4.8-0.8,8.4-2.5,10.9c-1.7,2.5-4.2,3.7-7.4,3.7
			c-3.3,0-5.7-1.2-7.4-3.7C106,215.2,105.1,211.5,105.1,206.8z M143.6,252.6l-5.1-5.1v-6.1l11.2,11.2l-11.2,11.2v-6.1L143.6,252.6z
			 M138.5,254.3v-3.4l1.7,1.7L138.5,254.3z M153.1,252.6L138.5,238v-6.1l20.7,20.7l-20.7,20.7v-6.1L153.1,252.6z M153.4,200.3v-3.2
			l7.3-4.6h1.9v25.7h6.3v2.8H153v-2.8h6.3v-21.6L153.4,200.3z M162.6,230.2l-1.7,1.7l-1.6-1.7H162.6z M155.8,230.2l5.1,5.1l5.1-5.1
			h6.1l-11.2,11.2l-11.2-11.2H155.8z M160.9,244.8l14.6-14.6h6.1l-20.7,20.7l-20.7-20.7h6.1L160.9,244.8z M159.3,275l1.7-1.7
			l1.6,1.7H159.3z M166,275l-5.1-5.1l-5.1,5.1h-6.1l11.2-11.2l11.2,11.2H166z M175.5,275l-14.6-14.6L146.3,275h-6.1l20.7-20.7
			l20.7,20.7H175.5z M183.3,254.2l-1.7-1.7l1.7-1.6V254.2z M183.3,247.5l-5.1,5.1l5.1,5.1v6.1l-11.2-11.2l11.2-11.2V247.5z
			 M183.3,238l-14.6,14.6l14.6,14.6v6.1l-20.7-20.7l20.7-20.7V238z M229.2,275h-44.8v-44.8h44.8V275z M198.6,203.9
			c-0.9-1.2-1.4-2.5-1.4-4.1c0-1.5,0.4-2.8,1.2-4c0.8-1.1,1.9-2,3.4-2.6c1.5-0.6,3.1-0.9,5-0.9c1.9,0,3.5,0.3,5,0.9
			c1.5,0.6,2.6,1.5,3.4,2.6c0.8,1.1,1.2,2.5,1.2,4c0,1.6-0.5,2.9-1.4,4.1c-0.9,1.2-2.2,2-3.9,2.5c1.9,0.5,3.3,1.4,4.3,2.6
			s1.5,2.7,1.5,4.5c0,2.4-0.9,4.3-2.8,5.7c-1.8,1.4-4.3,2.1-7.4,2.1s-5.6-0.7-7.4-2.1c-1.8-1.4-2.8-3.3-2.8-5.7
			c0-1.7,0.5-3.2,1.6-4.5c1.1-1.3,2.5-2.1,4.3-2.6C200.8,205.9,199.5,205,198.6,203.9z M275,275h-44.8v-44.8H275V275z M275,229.2
			h-44.8v-44.8H275V229.2z M239.8,160.9c0-3,0.5-5.5,1.5-7.7c1-2.2,2.5-3.8,4.4-5c1.9-1.2,4.2-1.7,6.9-1.7c2.6,0,4.9,0.6,6.9,1.7
			c1.9,1.2,3.4,2.8,4.4,5c1,2.2,1.5,4.7,1.5,7.6c0,3-0.5,5.5-1.6,7.7c-1,2.2-2.5,3.8-4.5,5c-1.9,1.2-4.2,1.8-6.8,1.8
			c-2.6,0-4.9-0.6-6.8-1.7c-1.9-1.2-3.4-2.8-4.5-5C240.3,166.4,239.8,163.9,239.8,160.9z M320.8,275H276v-44.8h44.8V275z
			 M320.8,229.2H276v-44.8h44.8V229.2z M287.1,175v-28.2h2.5l17,22.7v-22.7h3.1V175h-2.5l-17-22.7V175H287.1z M321.8,137.5h-1v1H276
			v44.8h-1v-44.8h-44.8v44.8h-1v1h-44.8v44.8h-1v-44.8h-44.8v44.8h-1v-44.8H92.7v44.8h-1v-44.8H46.9v-1h44.8v-44.8H46.9v-1h44.8
			V92.7H46.9v-1h44.8V46.9h1v44.8h44.8V46.9h1v44.8h44.8V46.9h1v44.8h-1v1h-44.8v44.8h44.8v1h1v44.8h44.8v-44.8h1v-1H275V92.7h-44.8
			v-1h-1V46.9h1v44.8H275V46.9h1v44.8h44.8v1h1V137.5z M78,172.3v2.8H60.6v-28.2h3.2v25.4H78z M56,129.3L56,129.3V101h11.5
			c3.1,0,5.8,0.6,8.1,1.7c2.3,1.1,4,2.7,5.2,4.9c1.2,2.1,1.8,4.6,1.8,7.5c0,2.9-0.6,5.5-1.8,7.6c-1.2,2.1-2.9,3.7-5.2,4.9
			c-2.3,1.1-5,1.7-8.1,1.7H56z M176.7,101l-12.8,28.2H158L145.1,101h7.7l8.1,18.9l8.2-18.9H176.7z M240,129.3L240,129.3V101h11.5
			c3.1,0,5.8,0.6,8.1,1.7c2.3,1.1,4,2.7,5.2,4.9c1.2,2.1,1.8,4.6,1.8,7.5c0,2.9-0.6,5.5-1.8,7.6c-1.2,2.1-2.9,3.7-5.2,4.9
			c-2.3,1.1-5,1.7-8.1,1.7H240z M366.7,275h-44.8v-44.8h44.8V275z M366.7,229.2h-44.8v-44.8h44.8V229.2z M366.7,183.3h-44.8v-44.8
			h44.8V183.3z M366.7,137.5V92.7h1v44.8H366.7z M367.6,176.3l7.5-7.5h-7.5v-0.2l7.5-7.5h-7.5v-0.2l7.5-7.5h-7.5v-0.2l7.5-7.5H375
			h-7.4v-0.2l7.3-7.3h0.1v7.5l7.5-7.5h0.1v7.5l7.5-7.5h0.1v7.5l7.5-7.5h0.1v7.5l7.5-7.5h0.1v7.5l6.8-6.8v6.8h-6.8v0.3h-7.3v7.7
			l7.3-7.4v7l7.1-6.4v6.8h-6.8v7.6l6.8-6.8v6.8h-6.8v7.6v0l6.8-6.8v6.8h-6.8v7.6l6.8-6.8v6.8h-6.8v6.7H399l6.7-6.7h-7.5l7.5-7.6
			h-7.6v7.6v0.1v6.6h-6.7l6.7-6.7h-7.6v6.7h-6.7l6.6-6.6l0.1-0.1l7.6-7.6h-7.7v7.6h-7.5v6.7H376l6.7-6.7h-7.4l7.5-7.6h-7.6v7.6h-0.1
			v6.7h-6.7l6.7-6.7h-7.5V176.3z M412.5,177.4v5.9h-5.9L412.5,177.4z M412.5,275h-44.8v-44.8h44.8V275z M412.6,201.1l-1.9-1.9
			l-6.9,6.9l6.8,7l1.9-1.9v10.7l-1.9-1.9l-6.9,6.9l2.2,2.2h-11.3l2.2-2.2l-6.9-6.9l-6.9,6.9l2.2,2.2h-10.6l1.8-1.8l-6.9-6.9
			l-1.6,1.6v-10.2l1.6,1.6l6.9-6.9l-6.9-6.9l-1.6,1.6V191l1.6,1.6l6.9-6.9l-1.3-1.3h9.6l-1.3,1.3l6.9,6.9l6.9-6.9l-1.3-1.3h9.6
			l-1.3,1.3l6.9,6.9l1.5-1.5V201.1z M458.3,275h-44.8v-44.8h44.8V275z M458.3,229.2h-44.8v-44.8h44.8V229.2z M458.3,183.3h-44.8
			v-44.8h44.8V183.3z M458.3,137.5h-44.8V92.7h44.8V137.5z M458.3,91.7h-44.8V46.9h44.8V91.7z M458.3,45.8h-44.8V1h44.8V45.8z"/>
	</g>
	<g>
		<polygon class="st0" points="390.1,8.2 382.5,15.8 390.1,15.8 		"/>
	</g>
	<g>
		<polygon class="st0" points="390.1,15.8 397.7,15.8 397.7,8.2 		"/>
	</g>
	<g>
		<polygon class="st0" points="390.1,15.8 382.5,23.4 390.1,23.4 		"/>
	</g>
	<g>
		<polygon class="st0" points="397.7,23.4 397.7,15.8 390.1,23.4 		"/>
	</g>
	<g>
		<polygon class="st0" points="390.1,23.4 382.5,31.1 390.1,31.1 		"/>
	</g>
	<g>
		<polygon class="st0" points="397.7,31.1 397.7,23.4 390.1,31.1 		"/>
	</g>
	<g>
		<polygon class="st0" points="382.8,176.6 390.4,168.9 382.8,168.9 		"/>
	</g>
	<g>
		<polygon class="st0" points="398.1,168.9 405.7,161.3 398.1,161.3 		"/>
	</g>
	<g>
		<polygon class="st0" points="390.4,161.3 390.4,168.9 398.1,161.3 		"/>
	</g>
	<g>
		<polygon class="st0" points="382.8,161.3 382.8,168.9 390.4,161.3 		"/>
	</g>
	<g>
		<polygon class="st0" points="375.2,161.3 375.2,168.9 382.8,161.3 		"/>
	</g>
	<g>
		<polygon class="st0" points="405.7,153.7 398.1,153.7 398.1,161.3 		"/>
	</g>
	<g>
		<polygon class="st0" points="390.4,161.3 398.1,153.7 390.4,153.7 		"/>
	</g>
	<g>
		<polygon class="st0" points="382.8,161.3 390.4,153.7 382.8,153.7 		"/>
	</g>
	<g>
		<polygon class="st0" points="375.2,153.7 375.2,161.3 382.8,153.7 		"/>
	</g>
	<g>
		<polygon class="st0" points="390.4,153.7 398.1,146 390.4,146 		"/>
	</g>
	<g>
		<polygon class="st0" points="390.4,146 382.8,146 382.8,153.7 		"/>
	</g>
	<g>
		<polygon class="st0" points="375.2,146 375.2,153.7 382.8,146 		"/>
	</g>
	<g>
		<polygon class="st0" points="425.9,242.6 425.9,252.6 435.9,242.6 		"/>
	</g>
	<g>
		<polygon class="st0" points="425.9,252.6 425.9,262.6 435.9,262.6 		"/>
	</g>
	<g>
		<polygon class="st0" points="446,262.6 440.9,267.6 451,267.6 451,257.6 446,262.6 446,252.6 435.9,262.6 		"/>
	</g>
	<g>
		<polygon class="st0" points="446,242.6 451,247.6 451,237.6 440.9,237.6 446,242.6 435.9,242.6 446,252.6 		"/>
	</g>
	<g>
		<polygon class="st0" points="440.9,232.5 430.9,232.5 435.9,237.6 		"/>
	</g>
	<g>
		<polygon class="st0" points="456,257.6 456,247.6 451,252.6 		"/>
	</g>
	<g>
		<polygon class="st0" points="430.9,272.6 440.9,272.6 435.9,267.6 		"/>
	</g>
	<g>
		<polygon class="st0" points="415.9,247.6 415.9,257.6 420.9,252.6 		"/>
	</g>
	<g>
		<polygon class="st0" points="456,232.5 446,232.5 456,242.6 		"/>
	</g>
	<g>
		<polygon class="st0" points="425.9,262.6 420.9,257.6 420.9,267.6 430.9,267.6 		"/>
	</g>
	<g>
		<polygon class="st0" points="420.9,267.6 415.9,262.6 415.9,272.6 425.9,272.6 		"/>
	</g>
	<g>
		<polygon class="st0" points="456,272.6 456,262.6 451,267.6 446,272.6 		"/>
	</g>
	<g>
		<polygon class="st0" points="420.9,237.6 420.9,247.6 425.9,242.6 430.9,237.6 		"/>
	</g>
	<g>
		<polygon class="st0" points="415.9,232.5 415.9,242.6 425.9,232.5 		"/>
	</g>
	<g>
		<polygon class="st0" points="13.4,105.3 13.4,115.3 23.5,105.3 		"/>
	</g>
	<g>
		<polygon class="st0" points="33.5,125.3 33.5,115.3 23.5,125.3 		"/>
	</g>
	<g>
		<polygon class="st0" points="33.5,105.3 23.5,105.3 33.5,115.3 		"/>
	</g>
	<g>
		<polygon class="st0" points="28.5,100.2 38.5,110.3 38.5,100.2 43.5,105.3 43.5,95.2 33.5,95.2 38.5,100.2 		"/>
	</g>
	<g>
		<polygon class="st0" points="28.5,95.2 18.5,95.2 23.5,100.2 		"/>
	</g>
	<g>
		<polygon class="st0" points="43.5,120.3 43.5,110.3 38.5,115.3 		"/>
	</g>
	<g>
		<polygon class="st0" points="18.5,135.3 28.5,135.3 23.5,130.3 		"/>
	</g>
	<g>
		<polygon class="st0" points="3.4,110.3 3.4,120.3 8.4,115.3 		"/>
	</g>
	<g>
		<polygon class="st0" points="13.5,125.3 23.5,125.3 13.4,115.3 13.4,125.3 8.4,120.3 8.4,130.3 18.5,130.3 		"/>
	</g>
	<g>
		<polygon class="st0" points="8.4,130.3 3.4,125.3 3.4,135.3 13.4,135.3 		"/>
	</g>
	<g>
		<polygon class="st0" points="38.5,130.3 38.5,120.3 33.5,125.3 28.5,130.3 		"/>
	</g>
	<g>
		<polygon class="st0" points="43.5,135.3 43.5,125.3 38.5,130.3 33.5,135.3 		"/>
	</g>
	<g>
		<polygon class="st0" points="8.4,100.2 13.4,95.2 3.4,95.2 3.4,105.3 8.4,100.2 8.4,110.3 13.4,105.3 18.5,100.2 		"/>
	</g>
	<g>
		<polygon class="st0" points="8.9,181.5 15.5,181.5 12.2,178.1 		"/>
	</g>
	<g>
		<polygon class="st0" points="15.5,140.9 8.9,140.9 12.2,144.2 		"/>
	</g>
	<g>
		<polygon class="st0" points="3.2,146.6 3.2,153.2 6.5,149.9 		"/>
	</g>
	<g>
		<polygon class="st0" points="3.2,169.2 3.2,175.8 6.5,172.5 		"/>
	</g>
	<g>
		<polygon class="st0" points="40.4,161.2 34.8,155.5 29.1,161.2 34.8,166.8 		"/>
	</g>
	<g>
		<polygon class="st0" points="23.5,144.2 17.8,149.9 23.5,155.5 29.1,149.9 		"/>
	</g>
	<g>
		<polygon class="st0" points="43.7,157.9 40.4,161.2 43.7,164.5 		"/>
	</g>
	<g>
		<polygon class="st0" points="20.2,140.9 23.5,144.2 26.8,140.9 		"/>
	</g>
	<g>
		<polygon class="st0" points="3.2,157.9 3.2,164.5 6.5,161.2 		"/>
	</g>
	<g>
		<polygon class="st0" points="17.8,161.2 12.2,155.5 6.5,161.2 12.2,166.8 		"/>
	</g>
	<g>
		<polygon class="st0" points="29.1,161.2 23.5,155.5 17.8,161.2 23.5,166.8 		"/>
	</g>
	<g>
		<polygon class="st0" points="23.5,178.1 29.1,172.5 23.5,166.8 17.8,172.5 		"/>
	</g>
	<g>
		<polygon class="st0" points="26.8,181.5 23.5,178.1 20.2,181.5 		"/>
	</g>
	<g>
		<polygon class="st0" points="38.1,140.9 31.5,140.9 34.8,144.2 		"/>
	</g>
	<g>
		<polygon class="st0" points="43.7,146.6 40.4,149.9 43.7,153.2 		"/>
	</g>
	<g>
		<polygon class="st0" points="43.7,175.8 43.7,169.2 40.4,172.5 		"/>
	</g>
	<g>
		<polygon class="st0" points="31.5,181.5 38.1,181.5 34.8,178.1 		"/>
	</g>
	<g>
		<polygon class="st0" points="283.8,272.9 290.4,272.9 287.1,269.5 		"/>
	</g>
	<g>
		<polygon class="st0" points="290.4,232.3 283.8,232.3 287.1,235.6 		"/>
	</g>
	<g>
		<polygon class="st0" points="278.2,238 278.2,244.6 281.5,241.3 		"/>
	</g>
	<g>
		<polygon class="st0" points="278.2,260.6 278.2,267.2 281.5,263.9 		"/>
	</g>
	<g>
		<polygon class="st0" points="298.4,269.5 304.1,263.9 298.4,258.2 292.8,263.9 		"/>
	</g>
	<g>
		<polygon class="st0" points="278.2,249.3 278.2,255.9 281.5,252.6 		"/>
	</g>
	<g>
		<polygon class="st0" points="318.7,249.3 315.4,252.6 318.7,255.9 		"/>
	</g>
	<g>
		<polygon class="st0" points="298.4,235.6 292.8,241.3 298.4,246.9 304.1,241.3 		"/>
	</g>
	<g>
		<polygon class="st0" points="301.7,272.9 298.4,269.5 295.1,272.9 		"/>
	</g>
	<g>
		<polygon class="st0" points="295.1,232.3 298.4,235.6 301.7,232.3 		"/>
	</g>
	<g>
		<polygon class="st0" points="292.8,252.6 287.1,246.9 281.5,252.6 287.1,258.2 		"/>
	</g>
	<g>
		<polygon class="st0" points="315.4,252.6 309.7,246.9 304.1,252.6 309.7,258.2 		"/>
	</g>
	<g>
		<polygon class="st0" points="304.1,252.6 298.4,246.9 292.8,252.6 298.4,258.2 		"/>
	</g>
	<g>
		<polygon class="st0" points="313,232.3 306.4,232.3 309.7,235.6 		"/>
	</g>
	<g>
		<polygon class="st0" points="318.7,238 315.4,241.3 318.7,244.6 		"/>
	</g>
	<g>
		<polygon class="st0" points="318.7,267.2 318.7,260.6 315.4,263.9 		"/>
	</g>
	<g>
		<polygon class="st0" points="306.4,272.9 313,272.9 309.7,269.5 		"/>
	</g>
	<g>
		<polygon class="st0" points="54.6,43.7 61.3,43.7 58,40.4 		"/>
	</g>
	<g>
		<polygon class="st0" points="61.3,3.2 54.6,3.2 58,6.5 		"/>
	</g>
	<g>
		<polygon class="st0" points="49,8.8 49,15.4 52.3,12.1 		"/>
	</g>
	<g>
		<polygon class="st0" points="49,38 52.3,34.7 49,31.4 		"/>
	</g>
	<g>
		<polygon class="st0" points="74.9,23.4 80.6,29.1 86.2,23.4 80.6,17.8 		"/>
	</g>
	<g>
		<polygon class="st0" points="89.5,26.7 89.5,20.1 86.2,23.4 		"/>
	</g>
	<g>
		<polygon class="st0" points="72.6,43.7 69.3,40.4 65.9,43.7 		"/>
	</g>
	<g>
		<polygon class="st0" points="63.6,23.4 69.3,29.1 74.9,23.4 69.3,17.8 		"/>
	</g>
	<g>
		<polygon class="st0" points="65.9,3.2 69.3,6.5 72.6,3.2 		"/>
	</g>
	<g>
		<polygon class="st0" points="49,26.7 52.3,23.4 49,20.1 		"/>
	</g>
	<g>
		<polygon class="st0" points="52.3,23.4 58,29.1 63.6,23.4 58,17.8 		"/>
	</g>
	<g>
		<polygon class="st0" points="69.3,6.5 63.6,12.1 69.3,17.8 74.9,12.1 		"/>
	</g>
	<g>
		<polygon class="st0" points="69.3,40.4 74.9,34.7 69.3,29.1 63.6,34.7 		"/>
	</g>
	<g>
		<polygon class="st0" points="83.9,3.2 77.2,3.2 80.6,6.5 		"/>
	</g>
	<g>
		<polygon class="st0" points="89.5,15.4 89.5,8.8 86.2,12.1 		"/>
	</g>
	<g>
		<polygon class="st0" points="89.5,38 89.5,31.4 86.2,34.7 		"/>
	</g>
	<g>
		<polygon class="st0" points="77.2,43.7 83.9,43.7 80.6,40.4 		"/>
	</g>
	<g>
		<polygon class="st0" points="421.5,181 428.1,181 424.8,177.7 		"/>
	</g>
	<g>
		<polygon class="st0" points="428.1,140.5 421.5,140.5 424.8,143.8 		"/>
	</g>
	<g>
		<polygon class="st0" points="415.9,146.1 415.9,152.8 419.2,149.4 		"/>
	</g>
	<g>
		<polygon class="st0" points="415.9,168.7 415.9,175.4 419.2,172 		"/>
	</g>
	<g>
		<polygon class="st0" points="439.4,181 436.1,177.7 432.8,181 		"/>
	</g>
	<g>
		<polygon class="st0" points="456.4,157.4 453.1,160.7 456.4,164.1 		"/>
	</g>
	<g>
		<polygon class="st0" points="436.1,143.8 430.5,149.4 436.1,155.1 441.8,149.4 		"/>
	</g>
	<g>
		<polygon class="st0" points="441.8,160.7 436.1,155.1 430.5,160.7 436.1,166.4 		"/>
	</g>
	<g>
		<polygon class="st0" points="436.1,177.7 441.8,172 436.1,166.4 430.5,172 		"/>
	</g>
	<g>
		<polygon class="st0" points="432.8,140.5 436.1,143.8 439.4,140.5 		"/>
	</g>
	<g>
		<polygon class="st0" points="430.5,160.7 424.8,155.1 419.2,160.7 424.8,166.4 		"/>
	</g>
	<g>
		<polygon class="st0" points="453.1,160.7 447.4,155.1 441.8,160.7 447.4,166.4 		"/>
	</g>
	<g>
		<polygon class="st0" points="415.9,157.4 415.9,164.1 419.2,160.7 		"/>
	</g>
	<g>
		<polygon class="st0" points="450.7,140.5 444.1,140.5 447.4,143.8 		"/>
	</g>
	<g>
		<polygon class="st0" points="456.4,146.1 453.1,149.4 456.4,152.8 		"/>
	</g>
	<g>
		<polygon class="st0" points="456.4,175.4 456.4,168.7 453.1,172 		"/>
	</g>
	<g>
		<polygon class="st0" points="444.1,181 450.7,181 447.4,177.7 		"/>
	</g>
	<g>
		<polygon class="st0" points="192.1,272.9 198.8,272.9 195.5,269.5 		"/>
	</g>
	<g>
		<polygon class="st0" points="198.8,232.3 192.1,232.3 195.5,235.6 		"/>
	</g>
	<g>
		<polygon class="st0" points="186.5,238 186.5,244.6 189.8,241.3 		"/>
	</g>
	<g>
		<polygon class="st0" points="186.5,260.6 186.5,267.2 189.8,263.9 		"/>
	</g>
	<g>
		<polygon class="st0" points="227,249.3 223.7,252.6 227,255.9 		"/>
	</g>
	<g>
		<polygon class="st0" points="203.4,232.3 206.8,235.6 210.1,232.3 		"/>
	</g>
	<g>
		<polygon class="st0" points="212.4,252.6 206.8,246.9 201.1,252.6 206.8,258.2 		"/>
	</g>
	<g>
		<polygon class="st0" points="206.8,235.6 201.1,241.3 206.8,246.9 212.4,241.3 		"/>
	</g>
	<g>
		<polygon class="st0" points="186.5,249.3 186.5,255.9 189.8,252.6 		"/>
	</g>
	<g>
		<polygon class="st0" points="223.7,252.6 218.1,246.9 212.4,252.6 218.1,258.2 		"/>
	</g>
	<g>
		<polygon class="st0" points="210.1,272.9 206.8,269.5 203.4,272.9 		"/>
	</g>
	<g>
		<polygon class="st0" points="201.1,252.6 195.5,246.9 189.8,252.6 195.5,258.2 		"/>
	</g>
	<g>
		<polygon class="st0" points="206.8,269.5 212.4,263.9 206.8,258.2 201.1,263.9 		"/>
	</g>
	<g>
		<polygon class="st0" points="221.4,232.3 214.7,232.3 218.1,235.6 		"/>
	</g>
	<g>
		<polygon class="st0" points="227,238 223.7,241.3 227,244.6 		"/>
	</g>
	<g>
		<polygon class="st0" points="227,267.2 227,260.6 223.7,263.9 		"/>
	</g>
	<g>
		<polygon class="st0" points="214.7,272.9 221.4,272.9 218.1,269.5 		"/>
	</g>
	<g>
		<path class="st0" d="M380.6,258.9h-0.2l-2.4-0.1l0.5,2.4l0.6,0.2c0.5,0.2,0.9,0.7,1,1.2l0.2,1.3h-0.7v0.8c0.4,0.3,0.9,0.4,1.4,0.4
			c0.6,0,1.2-0.2,1.6-0.6c0.5-0.4,1.1-0.4,1.6,0c0.4,0.4,1,0.6,1.6,0.6c0.6,0,1.2-0.2,1.6-0.6c0.5-0.4,1.1-0.4,1.6,0
			c0.4,0.4,1,0.6,1.6,0.6c0.6,0,1.2-0.2,1.6-0.6c0.5-0.4,1.1-0.4,1.6,0c0.4,0.4,1,0.6,1.6,0.6c0.6,0,1.2-0.2,1.6-0.6
			c0.5-0.4,1.1-0.4,1.6,0c0.4,0.4,1,0.6,1.6,0.6c0.6,0,1.2-0.2,1.6-0.6c0.3-0.3,0.7-0.4,1-0.3c0.8-1,1.5-2.1,1.7-3.4l0.5-2.8h-0.7
			l-0.8,1.7c0,0-4.6,1.3-10.2,1.8v-4.2h10.8c-2.5-4.5-6.7-9.2-10.8-11.9v-6.7h-0.6v0.5h-3.2l0.8,1l-0.8,1h3.2v3.7
			c-5.6-3.6-10.7-6.2-10.7-6.2v9.2c-1.3-1-6.5-4.8-6.5-4.8v14.2h5.1V258.9z M380.8,257.4L380.8,257.4h1h8.6h2v4.2
			c-0.1,0-0.2,0-0.3,0c0,0-6.2,0.9-6.8-2.4l-4.5-0.3V257.4z"/>
	</g>
	<g>
		<path class="st0" d="M401.7,265.2c-0.4,0.4-1,0.6-1.6,0.6c-0.6,0-1.2-0.2-1.6-0.6c-0.5-0.4-1.1-0.4-1.6,0c-0.4,0.4-1,0.6-1.6,0.6
			c-0.6,0-1.2-0.2-1.6-0.6c-0.5-0.4-1.1-0.4-1.6,0c-0.4,0.4-1,0.6-1.6,0.6c-0.6,0-1.2-0.2-1.6-0.6c-0.5-0.4-1.1-0.4-1.6,0
			c-0.4,0.4-1,0.6-1.6,0.6c-0.6,0-1.2-0.2-1.6-0.6c-0.5-0.4-1.1-0.4-1.6,0c-0.4,0.4-1,0.6-1.6,0.6c-0.6,0-1.2-0.2-1.6-0.6
			c-0.4-0.3-0.9-0.4-1.3-0.2v0.7c0.4-0.2,1-0.2,1.3,0.2c0.4,0.4,1,0.6,1.6,0.6c0.6,0,1.2-0.2,1.6-0.6c0.5-0.4,1.1-0.4,1.6,0
			c0.4,0.4,1,0.6,1.6,0.6c0.6,0,1.2-0.2,1.6-0.6c0.5-0.4,1.1-0.4,1.6,0c0.4,0.4,1,0.6,1.6,0.6c0.6,0,1.2-0.2,1.6-0.6
			c0.5-0.4,1.1-0.4,1.6,0c0.4,0.4,1,0.6,1.6,0.6c0.6,0,1.2-0.2,1.6-0.6c0.5-0.4,1.1-0.4,1.6,0c0.4,0.4,1,0.6,1.6,0.6
			c0.6,0,1.2-0.2,1.6-0.6c0.5-0.4,1.1-0.4,1.6,0c0.4,0.4,1,0.6,1.6,0.6v-0.7c-0.6,0-1.2-0.2-1.6-0.6
			C402.8,264.8,402.1,264.8,401.7,265.2z"/>
	</g>
	<g>
		<polygon class="st0" points="111.4,25.8 101.5,37.9 113.5,27.9 114.2,25.1 		"/>
	</g>
	<g>
		<polygon class="st0" points="108,40 113.1,32.9 113.4,29.4 110.6,31.7 		"/>
	</g>
	<g>
		<polygon class="st0" points="118.2,29.4 118.5,32.9 123.6,40 120.9,31.7 		"/>
	</g>
	<g>
		<polygon class="st0" points="117.1,24.9 117.7,27.6 129.9,37.5 119.9,25.5 		"/>
	</g>
	<g>
		<polygon class="st0" points="118.3,23.4 120.8,24.9 134.5,23.3 120.8,21.8 		"/>
	</g>
	<g>
		<polygon class="st0" points="121.9,25.8 125,28.5 132.3,30.1 126,25.8 		"/>
	</g>
	<g>
		<polygon class="st0" points="114.2,28.9 115.7,42.7 117.2,28.9 115.7,26.5 		"/>
	</g>
	<g>
		<polygon class="st0" points="113.4,17.3 113.1,13.8 108,6.7 110.6,15 		"/>
	</g>
	<g>
		<polygon class="st0" points="109.6,20.8 106.5,18.1 99.3,16.4 105.6,20.8 		"/>
	</g>
	<g>
		<polygon class="st0" points="113.9,21.5 113.2,18.7 101.1,8.8 111.1,20.9 		"/>
	</g>
	<g>
		<polygon class="st0" points="114.4,23.4 115.7,24.7 117.1,23.4 115.7,22 		"/>
	</g>
	<g>
		<polygon class="st0" points="123.6,6.7 118.5,13.8 118.2,17.3 120.9,15 		"/>
	</g>
	<g>
		<polygon class="st0" points="130.3,8.7 118.2,18.7 117.6,21.5 120.4,20.9 		"/>
	</g>
	<g>
		<polygon class="st0" points="122.1,20.9 126.2,20.9 132.5,16.5 125.2,18.1 		"/>
	</g>
	<g>
		<polygon class="st0" points="117.2,18.1 115.7,4.3 114.2,18.1 115.7,20.5 		"/>
	</g>
	<g>
		<polygon class="st0" points="112.9,23.4 110.5,21.8 96.7,23.3 110.5,24.9 		"/>
	</g>
	<g>
		<polygon class="st0" points="109.9,25.9 105.9,25.9 99.6,30.3 106.9,28.6 		"/>
	</g>
	<g>
		<polygon class="st0" points="330.1,267 342.2,257 342.8,254.2 340,254.8 		"/>
	</g>
	<g>
		<polygon class="st0" points="345.7,252.5 344.3,251.1 343,252.5 344.3,253.8 		"/>
	</g>
	<g>
		<polygon class="st0" points="346.8,258.5 347.1,261.9 352.2,269.1 349.6,260.8 		"/>
	</g>
	<g>
		<polygon class="st0" points="338.3,249.9 335.2,247.2 327.9,245.5 334.2,249.9 		"/>
	</g>
	<g>
		<polygon class="st0" points="342.8,258 344.3,271.8 345.9,258 344.3,255.6 		"/>
	</g>
	<g>
		<polygon class="st0" points="345.9,247.2 344.3,233.4 342.8,247.2 344.3,249.6 		"/>
	</g>
	<g>
		<polygon class="st0" points="342.5,250.6 341.9,247.8 329.7,237.9 339.7,250 		"/>
	</g>
	<g>
		<polygon class="st0" points="342,246.4 341.7,242.9 336.6,235.7 339.3,244 		"/>
	</g>
	<g>
		<polygon class="st0" points="345.8,253.9 346.4,256.7 358.6,266.6 348.6,254.6 		"/>
	</g>
	<g>
		<polygon class="st0" points="359,237.8 346.9,247.8 346.3,250.6 349.1,250 		"/>
	</g>
	<g>
		<polygon class="st0" points="338.6,255 334.6,255 328.3,259.3 335.5,257.7 		"/>
	</g>
	<g>
		<polygon class="st0" points="341.6,252.5 339.1,250.9 325.4,252.4 339.1,253.9 		"/>
	</g>
	<g>
		<polygon class="st0" points="352.2,235.7 347.1,242.9 346.8,246.4 349.6,244 		"/>
	</g>
	<g>
		<polygon class="st0" points="350.8,250 354.8,250 361.1,245.6 353.8,247.2 		"/>
	</g>
	<g>
		<polygon class="st0" points="350.6,254.8 353.7,257.6 360.9,259.2 354.6,254.8 		"/>
	</g>
	<g>
		<polygon class="st0" points="336.6,269.1 341.7,261.9 342,258.5 339.3,260.8 		"/>
	</g>
	<g>
		<polygon class="st0" points="347,252.5 349.4,253.9 363.2,252.4 349.4,250.9 		"/>
	</g>
	<g>
		<polygon class="st0" points="434.3,66.9 433.7,64.1 421.5,54.2 431.5,66.3 		"/>
	</g>
	<g>
		<polygon class="st0" points="421.9,83.3 434,73.3 434.6,70.5 431.8,71.2 		"/>
	</g>
	<g>
		<polygon class="st0" points="428.4,85.4 433.5,78.3 433.8,74.8 431.1,77.1 		"/>
	</g>
	<g>
		<polygon class="st0" points="437.7,63.5 436.2,49.7 434.6,63.5 436.2,65.9 		"/>
	</g>
	<g>
		<polygon class="st0" points="430.4,71.3 426.4,71.3 420.1,75.7 427.3,74 		"/>
	</g>
	<g>
		<polygon class="st0" points="433.4,68.8 430.9,67.2 417.2,68.7 430.9,70.3 		"/>
	</g>
	<g>
		<polygon class="st0" points="430.1,66.2 427,63.5 419.7,61.8 426,66.2 		"/>
	</g>
	<g>
		<polygon class="st0" points="433.8,62.7 433.5,59.2 428.4,52.1 431.1,60.4 		"/>
	</g>
	<g>
		<polygon class="st0" points="450.8,54.1 438.7,64.1 438.1,66.9 440.9,66.3 		"/>
	</g>
	<g>
		<polygon class="st0" points="437.5,68.8 436.2,67.4 434.8,68.8 436.2,70.1 		"/>
	</g>
	<g>
		<polygon class="st0" points="437.6,70.3 438.2,73 450.4,82.9 440.4,70.9 		"/>
	</g>
	<g>
		<polygon class="st0" points="434.6,74.4 436.2,88.1 437.7,74.4 436.2,71.9 		"/>
	</g>
	<g>
		<polygon class="st0" points="444.1,52.1 438.9,59.2 438.7,62.7 441.4,60.4 		"/>
	</g>
	<g>
		<polygon class="st0" points="442.6,66.3 446.6,66.3 452.9,61.9 445.6,63.6 		"/>
	</g>
	<g>
		<polygon class="st0" points="442.4,71.2 445.5,73.9 452.8,75.5 446.4,71.2 		"/>
	</g>
	<g>
		<polygon class="st0" points="438.8,68.8 441.2,70.3 455,68.7 441.2,67.2 		"/>
	</g>
	<g>
		<polygon class="st0" points="438.7,74.8 438.9,78.3 444.1,85.4 441.4,77.1 		"/>
	</g>
	<g>
		<path class="st0" d="M170.1,24.6h-8v8.1c0,3.7,1.8,6.4,5.7,6.4c0.6,0,1.2-0.1,1.7-0.3l1.6-2.5c-1.9-0.5-3.4-1.4-3.4-3.6v-2.3h2.3
			c2.2,0,3,1.4,3.6,3.4l2.5-1.6c0.2-0.5,0.3-1.1,0.3-1.7C176.5,26.5,173.8,24.6,170.1,24.6z"/>
	</g>
	<g>
		<path class="st0" d="M154,7.9c-0.6,0-1.2,0.1-1.7,0.3l-1.6,2.5c1.9,0.5,3.4,1.4,3.4,3.6v2.3h-2.3c-2.2,0-3-1.4-3.6-3.4l-2.5,1.6
			c-0.2,0.5-0.3,1.1-0.3,1.7c0,3.9,2.7,5.7,6.4,5.7h8.1v-8C159.7,10.5,157.9,7.9,154,7.9z"/>
	</g>
	<g>
		<path class="st0" d="M173.7,13.2c-0.5,1.9-1.4,3.4-3.6,3.4h-2.3v-2.3c0-2.2,1.4-3,3.4-3.6l-1.6-2.5c-0.5-0.2-1.1-0.3-1.7-0.3
			c-3.9,0-5.7,2.7-5.7,6.4v8.1h8.1c3.7,0,6.4-1.8,6.4-5.7c0-0.6-0.1-1.2-0.3-1.7L173.7,13.2z"/>
	</g>
	<g>
		<path class="st0" d="M145.4,30.4c0,0.6,0.1,1.2,0.3,1.7l2.5,1.6c0.5-1.9,1.4-3.4,3.6-3.4h2.3v2.3c0,2.2-1.4,3-3.4,3.6l1.6,2.5
			c0.5,0.2,1.1,0.3,1.7,0.3c3.9,0,5.7-2.7,5.7-6.4v-8h-8C148,24.6,145.4,26.5,145.4,30.4z"/>
	</g>
	<g>
		<path class="st0" d="M331.5,218.6c0.5-1.9,1.4-3.4,3.6-3.4h2.3v2.3c0,2.2-1.4,3-3.4,3.6l1.6,2.5c0.5,0.2,1.1,0.3,1.7,0.3
			c3.9,0,5.7-2.7,5.7-6.4v-8h-8c-3.6,0.1-6.3,1.9-6.3,5.8c0,0.6,0.1,1.2,0.3,1.7L331.5,218.6z"/>
	</g>
	<g>
		<path class="st0" d="M353.5,209.7h-8v8.1c0,3.5,1.8,6.2,5.7,6.2c0.6,0,1.2-0.1,1.7-0.3l1.6-2.5c-1.9-0.5-3.3-1.4-3.3-3.6v-2.3h2.3
			c2.2,0,3,1.4,3.6,3.4l2.5-1.6c0.2-0.5,0.3-1.1,0.3-1.7C359.9,211.5,357.2,209.7,353.5,209.7z"/>
	</g>
	<g>
		<path class="st0" d="M335,207.2h8.1v-8c0-3.7-1.8-6.4-5.7-6.4c-0.6,0-1.2,0.1-1.7,0.3l-1.6,2.5c1.9,0.5,3.4,1.4,3.4,3.6v2.3h-2.3
			c-2.2,0-3-1.4-3.6-3.4l-2.5,1.6c-0.2,0.5-0.3,1.1-0.3,1.7C328.6,205.3,331.3,207.2,335,207.2z"/>
	</g>
	<g>
		<path class="st0" d="M359.9,201.4c0-0.6-0.1-1.2-0.3-1.7l-2.5-1.6c-0.5,1.9-1.4,3.4-3.6,3.4h-2.3v-2.3c0-2.2,1.4-3,3.3-3.6
			l-1.6-2.5c-0.5-0.2-1.1-0.3-1.7-0.3c-3.9,0-5.7,2.7-5.7,6.4v8.1h8.1C357.2,207.2,359.9,205.3,359.9,201.4z"/>
	</g>
	<g>
		<path class="st0" d="M23.4,15.8l-7.7,7.7l7.7,7.7l7.7-7.7L23.4,15.8z M17.2,23.4l6.2-6.2l6.2,6.2l-6.2,6.2L17.2,23.4z"/>
	</g>
	<g>
		<path class="st0" d="M25.8,33.5l7.7,7.7l7.7-7.7l-7.7-7.7L25.8,33.5z M33.5,39.7l-6.2-6.2l6.2-6.2l6.2,6.2L33.5,39.7z"/>
	</g>
	<g>
		<path class="st0" d="M5.4,33.8l7.7,7.7l7.7-7.7L13,26.2L5.4,33.8z M13,40l-6.2-6.2l6.2-6.2l6.2,6.2L13,40z"/>
	</g>
	<g>
		<path class="st0" d="M26.2,13l7.7,7.7l7.7-7.7l-7.7-7.7L26.2,13z M33.8,19.2L27.6,13l6.2-6.2L40,13L33.8,19.2z"/>
	</g>
	<g>
		<path class="st0" d="M20.7,13L13,5.4L5.4,13l7.7,7.7L20.7,13z M6.8,13L13,6.8l6.2,6.2L13,19.2L6.8,13z"/>
	</g>
	<g>
		
			<rect x="247.7" y="18.6" transform="matrix(0.7071 -0.7071 0.7071 0.7071 57.3783 185.5062)" class="st0" width="9.8" height="9.8"/>
	</g>
	<g>
		
			<rect x="257.7" y="28.7" transform="matrix(0.7071 -0.7071 0.7071 0.7071 53.187 195.506)" class="st0" width="9.8" height="9.8"/>
	</g>
	<g>
		
			<rect x="237.3" y="29" transform="matrix(0.7071 -0.7071 0.7071 0.7071 46.9784 181.1932)" class="st0" width="9.8" height="9.8"/>
	</g>
	<g>
		
			<rect x="258.1" y="8.2" transform="matrix(0.7071 -0.7071 0.7071 0.7071 67.7782 189.8192)" class="st0" width="9.8" height="9.8"/>
	</g>
	<g>
		
			<rect x="237.3" y="8.2" transform="matrix(0.7071 -0.7071 0.7071 0.7071 61.6909 175.1048)" class="st0" width="9.8" height="9.8"/>
	</g>
	<g>
		
			<rect x="339.5" y="155.9" transform="matrix(0.7071 -0.7071 0.7071 0.7071 -12.8261 290.6342)" class="st0" width="9.8" height="9.8"/>
	</g>
	<g>
		
			<rect x="349.6" y="165.9" transform="matrix(0.7071 -0.7071 0.7071 0.7071 -16.9447 300.6616)" class="st0" width="9.8" height="9.8"/>
	</g>
	<g>
		
			<rect x="329.1" y="166.3" transform="matrix(0.7071 -0.7071 0.7071 0.7071 -23.2241 286.3195)" class="st0" width="9.8" height="9.8"/>
	</g>
	<g>
		
			<rect x="349.9" y="145.5" transform="matrix(0.7071 -0.7071 0.7071 0.7071 -2.4253 294.9464)" class="st0" width="9.8" height="9.8"/>
	</g>
	<g>
		
			<rect x="329.1" y="145.5" transform="matrix(0.7071 -0.7071 0.7071 0.7071 -8.5121 280.2335)" class="st0" width="9.8" height="9.8"/>
	</g>
	<g>
		<rect x="212.3" y="8.2" transform="matrix(0.7071 -0.7071 0.7071 0.7071 54.34 157.4193)" class="st0" width="9.8" height="9.8"/>
	</g>
	<g>
		
			<rect x="201.9" y="18.6" transform="matrix(0.7071 -0.7071 0.7071 0.7071 43.9401 153.1063)" class="st0" width="9.8" height="9.8"/>
	</g>
	<g>
		
			<rect x="212" y="28.7" transform="matrix(0.7071 -0.7071 0.7071 0.7071 39.7903 163.2075)" class="st0" width="9.8" height="9.8"/>
	</g>
	<g>
		
			<rect x="191.5" y="29" transform="matrix(0.7071 -0.7071 0.7071 0.7071 33.5416 148.7941)" class="st0" width="9.8" height="9.8"/>
	</g>
	<g>
		
			<rect x="191.5" y="8.2" transform="matrix(0.7071 -0.7071 0.7071 0.7071 48.2546 142.7071)" class="st0" width="9.8" height="9.8"/>
	</g>
	<g>
		
			<rect x="395.6" y="191.2" transform="matrix(0.7071 -0.7071 0.7071 0.7071 -21.3816 340.6498)" class="st0" width="9.8" height="9.8"/>
	</g>
	<g>
		
			<rect x="385.2" y="201.6" transform="matrix(0.7071 -0.7071 0.7071 0.7071 -31.7815 336.3369)" class="st0" width="9.8" height="9.8"/>
	</g>
	<g>
		
			<rect x="395.3" y="211.7" transform="matrix(0.7071 -0.7071 0.7071 0.7071 -35.9327 346.4377)" class="st0" width="9.8" height="9.8"/>
	</g>
	<g>
		
			<rect x="374.8" y="212" transform="matrix(0.7071 -0.7071 0.7071 0.7071 -42.1798 332.0247)" class="st0" width="9.8" height="9.8"/>
	</g>
	<g>
		
			<rect x="374.8" y="191.2" transform="matrix(0.7071 -0.7071 0.7071 0.7071 -27.4679 325.9342)" class="st0" width="9.8" height="9.8"/>
	</g>
	<g>
		<path class="st0" d="M378.5,79.2h23.6l-2.3-10c1.9-2.2,3.1-5.1,3.1-8.3v-5.3H398v5.1h-5v-5.1h-5.1v5.1h-5.1v-5.1h-5.1v5.3
			c0,3.2,1.2,6.1,3.1,8.3L378.5,79.2z M387.9,65.8h5.1v7.6h-5.1V65.8z"/>
	</g>
	<g>
		<polygon class="st0" points="378.2,81.1 377.8,83 403.1,83 402.6,81.1 		"/>
	</g>
	<g>
		<path class="st0" d="M240.8,262.5h23.6l-2.3-10c1.9-2.2,3.1-5.1,3.1-8.3v-5.3h-5.1v5.1h-5v-5.1H250v5.1h-5v-5.1h-5.1v5.3
			c0,3.2,1.2,6.1,3.1,8.3L240.8,262.5z M250.1,249h5.1v7.6h-5.1V249z"/>
	</g>
	<g>
		<polygon class="st0" points="264.8,264.4 240.4,264.4 239.9,266.3 265.2,266.3 		"/>
	</g>
	<g>
		<path class="st0" d="M342.9,54.4c0,0-0.4-1.6-2-1.5c-1.3,0.1-1.9,1.5-1.9,1.5c-0.3,0.5-0.4,1.4-0.6,1.7c-0.2,0.3-7,5.9-7,5.9
			l-5.4,4.4c1.6,1.6,5.1-1.5,5.1-1.5l3.6,0.3l-0.3,0.8l0.9,2.8h-1.1c-0.3,0-0.5,0.2-0.5,0.5h4.6c0-0.3-0.2-0.5-0.5-0.5H336l-1-2.8
			l0.8-0.8l1,0.1c2.8,0,5-2.2,5.1-5c0,0,0.1-3.8,0.1-4c0.3-1.1,3.5-1.2,3.5-1.2C344.6,54.1,342.9,54.4,342.9,54.4z"/>
	</g>
	<g>
		<path class="st0" d="M350.2,69.8c-0.2-0.3-0.3-1.2-0.6-1.7c0,0-0.7-1.5-1.9-1.5c-1.7-0.1-2,1.5-2,1.5s-1.7-0.3-2.7,0.7
			c0,0,3.1,0.1,3.5,1.2c0,0.2,0.1,4,0.1,4c0.1,2.8,2.4,5,5.1,5l1-0.1l0.8,0.8l-0.8,2.7h-1.8c-0.3,0-0.5,0.2-0.5,0.5h4.6
			c0-0.3-0.2-0.5-0.5-0.5h-1.1l0.9-2.8l-0.3-0.8l3.6-0.3c0,0,3.5,3.1,5.1,1.5l-5.4-4.4C357.2,75.7,350.4,70.1,350.2,69.8z"/>
	</g>
	<g>
		<path class="st0" d="M422.8,205.5l3.6,0.3l-0.3,0.8l0.9,2.8h-1.1c-0.3,0-0.5,0.2-0.5,0.5h4.6c0-0.3-0.2-0.5-0.5-0.5h-1.8l-0.8-2.7
			l0.8-0.8l1,0.1c2.8,0,5-2.2,5.1-5c0,0,0.1-3.8,0.1-4c0.3-1.1,3.5-1.2,3.5-1.2c-1-1-2.7-0.7-2.7-0.7s-0.4-1.6-2-1.5
			c-1.3,0.1-1.9,1.5-1.9,1.5c-0.3,0.5-0.4,1.4-0.6,1.7c-0.2,0.3-7,5.9-7,5.9l-5.4,4.4C419.3,208.6,422.8,205.5,422.8,205.5z"/>
	</g>
	<g>
		<path class="st0" d="M434.7,209.6c0,0,3.1,0.1,3.5,1.2c0,0.2,0.1,4,0.1,4c0.1,2.8,2.4,5,5.1,5l1-0.1l0.8,0.8l-0.8,2.7h-1.8
			c-0.3,0-0.5,0.2-0.5,0.5h4.6c0-0.3-0.2-0.5-0.5-0.5h-1.1l0.9-2.8l-0.3-0.8l3.6-0.3c0,0,3.5,3.1,5.1,1.5l-5.4-4.4
			c0,0-6.8-5.6-7-5.9s-0.3-1.2-0.6-1.7c0,0-0.7-1.5-1.9-1.5c-1.7-0.1-2,1.5-2,1.5S435.7,208.6,434.7,209.6z"/>
	</g>
	<g>
		<polygon class="st0" points="297.8,193.6 297.8,207.8 315.9,193.6 		"/>
	</g>
	<g>
		<polygon class="st0" points="279.8,207.8 297.8,207.8 279.8,193.6 		"/>
	</g>
	<g>
		<polygon class="st0" points="315.9,207.8 297.8,207.8 315.9,222 		"/>
	</g>
	<g>
		<polygon class="st0" points="297.8,222 297.8,207.8 279.8,222 		"/>
	</g>
	<g>
		<path class="st0" d="M305.7,20.2l4.8-9l-9,4.7l-3-9.8l-3,9.8l-9-4.7l4.8,9l-9.8,3l9.8,3l-4.8,9l9-4.8l3,9.7l3-9.7l9,4.8l-4.8-9
			l9.8-3L305.7,20.2z M309.1,33.9l-8-4.3l-2.7,8.7l-2.7-8.7l-8,4.3l4.2-8l-8.7-2.7l8.7-2.7l-4.2-8.1l8,4.3l2.7-8.7l2.7,8.7l8-4.3
			l-4.2,8.1l8.7,2.7l-8.7,2.7L309.1,33.9z"/>
	</g>
	<g>
		<polygon class="st0" points="311.7,23.2 298.4,23.2 304,25.5 		"/>
	</g>
	<g>
		<polygon class="st0" points="289.1,14 298.4,23.2 296.2,17.7 		"/>
	</g>
	<g>
		<polygon class="st0" points="298.4,9.9 298.4,23.2 300.7,17.5 		"/>
	</g>
	<g>
		<polygon class="st0" points="289,32.6 298.4,23.2 292.8,25.6 		"/>
	</g>
	<g>
		<polygon class="st0" points="285.2,23.2 298.4,23.2 292.9,20.9 		"/>
	</g>
	<g>
		<polygon class="st0" points="307.8,13.8 298.4,23.2 304,20.8 		"/>
	</g>
	<g>
		<polygon class="st0" points="307.7,32.4 298.4,23.2 300.7,28.8 		"/>
	</g>
	<g>
		<polygon class="st0" points="298.4,36.4 298.4,23.2 296.1,28.8 		"/>
	</g>
	<g>
		<polygon class="st0" points="261.9,216 252.6,206.8 254.9,212.4 		"/>
	</g>
	<g>
		<polygon class="st0" points="243.2,216.2 252.6,206.8 247,209.1 		"/>
	</g>
	<g>
		<polygon class="st0" points="265.9,206.8 252.6,206.8 258.2,209.1 		"/>
	</g>
	<g>
		<path class="st0" d="M245.4,209.8l-4.8,9l9-4.8l3,9.7l3-9.7l9,4.8l-4.8-9l9.8-3l-9.8-3l4.8-9l-9,4.7l-3-9.8l-3,9.8l-9-4.7l4.8,9
			l-9.8,3L245.4,209.8z M241.9,196l8,4.3l2.7-8.7l2.7,8.7l8-4.3l-4.2,8.1l8.7,2.7l-8.7,2.7l4.2,8l-8-4.3l-2.7,8.7l-2.7-8.7l-8,4.3
			l4.2-8l-8.7-2.7l8.7-2.7L241.9,196z"/>
	</g>
	<g>
		<polygon class="st0" points="252.6,220 252.6,206.8 250.3,212.4 		"/>
	</g>
	<g>
		<polygon class="st0" points="243.3,197.6 252.6,206.8 250.4,201.3 		"/>
	</g>
	<g>
		<polygon class="st0" points="262,197.4 252.6,206.8 258.2,204.4 		"/>
	</g>
	<g>
		<polygon class="st0" points="252.6,193.5 252.6,206.8 254.9,201.1 		"/>
	</g>
	<g>
		<polygon class="st0" points="239.3,206.8 252.6,206.8 247,204.5 		"/>
	</g>
	<g>
		<path class="st0" d="M347,20.6v-9.2l8.1-2.8h-21.9l8.1,2.8v9.2h-9.2l-2.8-8.1v21.9l2.8-8.1h9.2v9.2l-8.1,2.8h21.9l-8.1-2.8v-9.2
			h9.2l2.8,8.1V12.5l-2.8,8.1H347z M356.2,24.1H345v11.4h-1.3V24.1h-11.5v-1.3h11.5V11.5h1.3v11.4h11.2V24.1z"/>
	</g>
	<g>
		<path class="st0" d="M435.9,40.1c7.6,0,13.8-6.2,13.8-13.8V6.8h-27.5v19.5C422.2,33.9,428.3,40.1,435.9,40.1z M424.2,8.8h23.4
			v17.5c0,6.5-5.3,11.7-11.7,11.7s-11.7-5.3-11.7-11.7V8.8z"/>
	</g>
	<g>
		
			<ellipse transform="matrix(0.7071 -0.7071 0.7071 0.7071 111.0997 315.0851)" class="st0" cx="435.9" cy="23.4" rx="2.7" ry="2.7"/>
	</g>
	<g>
		
			<ellipse transform="matrix(0.7071 -0.7071 0.7071 0.7071 113.5242 309.3826)" class="st0" cx="430.2" cy="17.7" rx="2.7" ry="2.7"/>
	</g>
	<g>
		
			<ellipse transform="matrix(0.7071 -0.7071 0.7071 0.7071 116.8681 317.5386)" class="st0" cx="441.7" cy="17.7" rx="2.7" ry="2.7"/>
	</g>
	<g>
		
			<ellipse transform="matrix(0.7071 -0.7071 0.7071 0.7071 108.712 320.8824)" class="st0" cx="441.7" cy="29.2" rx="2.7" ry="2.7"/>
	</g>
	<g>
		
			<ellipse transform="matrix(0.7071 -0.7071 0.7071 0.7071 105.3681 312.7264)" class="st0" cx="430.2" cy="29.2" rx="2.7" ry="2.7"/>
	</g>
	<g>
		<path class="st0" d="M23.4,223.4c7.6,0,13.8-6.2,13.8-13.8v-19.5H9.7v19.5C9.7,217.2,15.8,223.4,23.4,223.4z M11.7,192.2h23.4
			v17.5c0,6.5-5.3,11.7-11.7,11.7c-6.4,0-11.7-5.3-11.7-11.7V192.2z"/>
	</g>
	<g>
		
			<ellipse transform="matrix(0.7071 -0.7071 0.7071 0.7071 -139.3749 77.142)" class="st0" cx="23.4" cy="206.8" rx="2.7" ry="2.7"/>
	</g>
	<g>
		<ellipse transform="matrix(0.7071 -0.7071 0.7071 0.7071 -136.9176 71.3701)" class="st0" cx="17.7" cy="201" rx="2.7" ry="2.7"/>
	</g>
	<g>
		<ellipse transform="matrix(0.7071 -0.7071 0.7071 0.7071 -133.5758 79.5287)" class="st0" cx="29.2" cy="201" rx="2.7" ry="2.7"/>
	</g>
	<g>
		
			<ellipse transform="matrix(0.7071 -0.7071 0.7071 0.7071 -141.731 82.8712)" class="st0" cx="29.2" cy="212.5" rx="2.7" ry="2.7"/>
	</g>
	<g>
		
			<ellipse transform="matrix(0.7071 -0.7071 0.7071 0.7071 -145.0759 74.7164)" class="st0" cx="17.7" cy="212.5" rx="2.7" ry="2.7"/>
	</g>
	<g>
		<polygon class="st0" points="76.9,252.6 76.9,260.2 84.5,252.6 		"/>
	</g>
	<g>
		<polygon class="st0" points="69.3,252.6 69.3,260.2 76.9,252.6 		"/>
	</g>
	<g>
		<polygon class="st0" points="61.6,252.6 61.6,260.2 69.3,252.6 		"/>
	</g>
	<g>
		<polygon class="st0" points="54,252.6 54,260.1 54,260.2 61.6,252.6 		"/>
	</g>
	<g>
		<polygon class="st0" points="84.5,245 76.9,245 76.9,252.6 		"/>
	</g>
	<g>
		<polygon class="st0" points="76.9,245 69.3,245 69.3,252.6 		"/>
	</g>
	<g>
		<polygon class="st0" points="69.3,245 61.6,245 61.6,252.6 		"/>
	</g>
	<g>
		<polygon class="st0" points="61.6,245 54,245 54,252.5 54,252.6 		"/>
	</g>
	<g>
		<path class="st0" d="M115.1,260.3l7.7-7.7l-7.7-7.7l-7.7,7.7L115.1,260.3z M115.1,246.4l6.2,6.2l-6.2,6.2l-6.2-6.2L115.1,246.4z"
			/>
	</g>
	<g>
		<path class="st0" d="M117.5,262.7l7.7,7.7l7.7-7.7l-7.7-7.7L117.5,262.7z M125.2,268.9l-6.2-6.2l6.2-6.2l6.2,6.2L125.2,268.9z"/>
	</g>
	<g>
		<path class="st0" d="M112.4,263l-7.7-7.7L97,263l7.7,7.7L112.4,263z M104.7,256.8l6.2,6.2l-6.2,6.2l-6.2-6.2L104.7,256.8z"/>
	</g>
	<g>
		<path class="st0" d="M133.2,242.2l-7.7-7.7l-7.7,7.7l7.7,7.7L133.2,242.2z M125.5,236l6.2,6.2l-6.2,6.2l-6.2-6.2L125.5,236z"/>
	</g>
	<g>
		<path class="st0" d="M112.4,242.2l-7.7-7.7l-7.7,7.7l7.7,7.7L112.4,242.2z M104.7,236l6.2,6.2l-6.2,6.2l-6.2-6.2L104.7,236z"/>
	</g>
	<g>
		<path class="st0" d="M20.6,255.4v9.2l-8.1,2.8h21.9l-8.1-2.8v-9.2h9.2l2.8,8.1v-21.9l-2.8,8.1h-9.2v-9.2l8.1-2.8H12.5l8.1,2.8v9.2
			h-9.2l-2.8-8.1v21.9l2.8-8.1H20.6z M11.5,252H23v-11.4h1.3V252h11.2v1.3H24.2v11.4h-1.3v-11.4H11.5V252z"/>
	</g>
	<g>
		<path class="st0" d="M436.1,131c7.4,0,13.8-5.4,13.8-13.5s-6-11.8-7-12.4c-1.6-1-3.2-1.4-4.7-2.4c-1-0.6-2.3-2.2-3.4-3.5
			c-0.2,2.1-0.9,3-1.6,3.6c-1.6,1.2-2.6,1.6-3.9,2.3c-1.1,0.6-7.3,4.3-7.3,12.2C422,125.2,428.6,131,436.1,131z M443.1,128.2
			c-0.2,0.2-1.6,1.1-3.2,1.3c-1.7,0.2-3.9,0.2-5.3-1c-0.2-0.2-0.2-0.5,0-0.6c0.2-0.1,0.3-0.2,0.5-0.2s0.2,0,0.2,0.1
			c0.6,0.5,1.5,0.9,3.5,0.9s3.3-0.6,4-1c0.3-0.2,0.4,0,0.4,0.1C443.2,127.8,443.3,127.9,443.1,128.2z M437.7,125.4
			c0.3-0.3,0.9-0.8,1.4-1c0.5-0.2,0.8-0.2,1.3-0.2s1,0,1.4,0.3c0.4,0.2,0.6,0.8,0.7,1.1c0.1,0.3,0,0.5-0.2,0.6
			c-0.2,0.1-0.2,0.1-0.5-0.3c-0.2-0.4-0.4-0.8-1.5-0.8c-1.1,0-1.4,0.4-1.9,0.8c-0.5,0.4-0.7,0.6-0.9,0.3S437.3,125.7,437.7,125.4z
			 M441,120.9c1.5,0,4.5-3,5.9-3c1.5,0,2,1.6,2,2.6s-0.3,2.7-1,3.7c-0.7,1.1-1.2,1.5-2.1,1.4c-1.1-0.1-3.3-3.5-4.7-3.6
			c-1.8-0.1-5.7,3.7-8.7,3.7c-1.8,0-2.4-0.3-3-0.7c-0.9-0.6-1.4-1.6-1.4-3c0-2.4,2.3-4.6,5.1-4.7C436.7,117.4,439.2,121,441,120.9z
			 M425.1,110.2c-0.1-0.1-0.6-0.3-0.1-1c1.5-2.3,4.4-3.9,5.2-4.3c0.3-0.2,1.7-0.8,3-1.8c0.8-0.6,1.4-1.3,1.7-3.3
			c0.2,0.7,0.3,1.3,0.2,2.1c0,0.8-0.8,1.3-0.9,1.4c-0.2,0.1-0.8,0.4-1,0.5s-0.1,0.2,0,0.2c0.2,0.1,0.4,0.2,0.4,0.4s-0.1,0.6-0.8,1.3
			c-1.3,1.3-2.2,2.1-4.5,3.5C426,110.6,425.2,110.3,425.1,110.2z"/>
	</g>
	<g>
		<path class="st0" d="M200.3,124.1c1.8,1.8,4.2,2.7,6.5,2.7c2.4,0,4.7-0.9,6.5-2.7c3.4-3.4,3.6-8.7,0.7-12.3
			c-2.8-3.5-5.5-5.1-7.2-9.5c-1.6,4.3-4.4,6-7.2,9.5C196.7,115.5,196.9,120.8,200.3,124.1z M200.5,112.5L200.5,112.5
			c0.9-1.1,1.8-2,2.6-2.9c1.4-1.4,2.6-2.8,3.7-4.7c1.1,1.9,2.4,3.2,3.7,4.7c0.9,0.9,1.7,1.8,2.6,2.9l0,0l0,0
			c1.3,1.6,1.9,3.5,1.8,5.5c-0.1,2-0.9,3.9-2.4,5.3c-1.5,1.5-3.6,2.4-5.8,2.4c-2.2,0-4.2-0.8-5.8-2.4c-1.4-1.4-2.3-3.3-2.4-5.3
			C198.6,116,199.2,114.1,200.5,112.5L200.5,112.5z"/>
	</g>
	<g>
		<path class="st0" d="M206.8,124.1c1.7,0,3.4-0.7,4.6-1.9c2.4-2.4,2.6-6.1,0.5-8.7l0,0c-0.8-1.1-1.7-1.9-2.5-2.8
			c-0.9-0.9-1.7-1.8-2.5-2.9c-0.8,1.1-1.7,2-2.5,2.9c-0.8,0.9-1.7,1.8-2.5,2.8l0,0c-2.1,2.6-1.9,6.3,0.5,8.7
			C203.4,123.5,205,124.1,206.8,124.1z"/>
	</g>
	<g>
		<polygon class="st0" points="222.4,117.9 222.4,121.9 226.4,121.9 229.2,124.7 229.2,123.2 227.1,121.2 226.8,120.8 226.4,120.8 
			223.4,120.8 223.4,117.9 223.4,117.5 223.1,117.2 221.1,115.1 223.1,113 223.4,112.7 223.4,112.3 223.4,109.4 226.4,109.4 
			226.8,109.4 227.1,109 229.2,107 229.2,105.5 226.4,108.3 222.4,108.3 222.4,112.3 219.5,115.1 		"/>
	</g>
	<g>
		<path class="st0" d="M220.1,99.3c0.4,0,0.7-0.1,1-0.4c0.5-0.5,0.6-1.4,0.1-1.9c-0.4-0.6-0.9-0.8-1.1-1.5c-0.3,0.7-0.7,0.9-1.1,1.5
			c-0.5,0.6-0.4,1.4,0.1,1.9C219.3,99.1,219.7,99.3,220.1,99.3z"/>
	</g>
	<g>
		<path class="st0" d="M220.1,108.2c0.3-0.7,0.7-0.9,1.1-1.5c0.5-0.6,0.4-1.4-0.1-1.9c-0.3-0.3-0.7-0.4-1-0.4s-0.7,0.1-1,0.4
			c-0.5,0.5-0.6,1.4-0.1,1.9C219.4,107.3,219.8,107.5,220.1,108.2z"/>
	</g>
	<g>
		<path class="st0" d="M217.1,102.8c0.3-0.3,0.4-0.7,0.4-1s-0.1-0.7-0.4-1c-0.5-0.5-1.4-0.6-1.9-0.1c-0.6,0.4-0.8,0.9-1.5,1.1
			c0.7,0.3,0.9,0.7,1.5,1.1C215.8,103.4,216.6,103.4,217.1,102.8z"/>
	</g>
	<g>
		<path class="st0" d="M221.7,103.5c-0.6-1.1-0.6-2.2,0-3.3c-1.1,0.6-2.2,0.6-3.3,0c0.6,1.1,0.6,2.2,0,3.3
			C219.5,102.9,220.6,102.9,221.7,103.5z"/>
	</g>
	<g>
		<path class="st0" d="M225,103c0.6-0.4,0.8-0.9,1.5-1.1c-0.7-0.3-0.9-0.7-1.5-1.1c-0.6-0.5-1.4-0.4-1.9,0.1c-0.3,0.3-0.4,0.7-0.4,1
			s0.1,0.7,0.4,1C223.6,103.4,224.4,103.4,225,103z"/>
	</g>
	<g>
		<path class="st0" d="M219.1,125.4c0.3,0.3,0.7,0.4,1,0.4s0.7-0.1,1-0.4c0.5-0.5,0.6-1.4,0.1-1.9c-0.4-0.6-0.9-0.8-1.1-1.5
			c-0.3,0.7-0.7,0.9-1.1,1.5C218.5,124,218.5,124.8,219.1,125.4z"/>
	</g>
	<g>
		<path class="st0" d="M220.1,130.8c-0.4,0-0.7,0.1-1,0.4c-0.5,0.5-0.6,1.4-0.1,1.9c0.4,0.6,0.9,0.8,1.1,1.5
			c0.3-0.7,0.7-0.9,1.1-1.5c0.5-0.6,0.4-1.4-0.1-1.9C220.8,131,220.5,130.8,220.1,130.8z"/>
	</g>
	<g>
		<path class="st0" d="M215.2,127.2c-0.6,0.4-0.8,0.9-1.5,1.1c0.7,0.3,0.9,0.7,1.5,1.1c0.6,0.5,1.4,0.4,1.9-0.1
			c0.3-0.3,0.4-0.7,0.4-1c0-0.4-0.1-0.7-0.4-1C216.6,126.7,215.8,126.7,215.2,127.2z"/>
	</g>
	<g>
		<path class="st0" d="M221.7,130c-0.6-1.1-0.6-2.2,0-3.3c-1.1,0.6-2.2,0.6-3.3,0c0.6,1.1,0.6,2.2,0,3.3
			C219.5,129.4,220.6,129.4,221.7,130z"/>
	</g>
	<g>
		<path class="st0" d="M223,127.3c-0.3,0.3-0.4,0.7-0.4,1s0.1,0.7,0.4,1c0.5,0.5,1.4,0.6,1.9,0.1c0.6-0.4,0.8-0.9,1.5-1.1
			c-0.7-0.3-0.9-0.7-1.5-1.1C224.4,126.7,223.6,126.7,223,127.3z"/>
	</g>
	<g>
		<path class="st0" d="M193.5,125.8c0.4,0,0.7-0.1,1-0.4c0.5-0.5,0.6-1.4,0.1-1.9c-0.4-0.6-0.9-0.8-1.1-1.5
			c-0.3,0.7-0.7,0.9-1.1,1.5c-0.5,0.6-0.4,1.4,0.1,1.9C192.7,125.6,193.1,125.8,193.5,125.8z"/>
	</g>
	<g>
		<path class="st0" d="M193.5,130.8c-0.4,0-0.7,0.1-1,0.4c-0.5,0.5-0.6,1.4-0.1,1.9c0.4,0.6,0.9,0.8,1.1,1.5
			c0.3-0.7,0.7-0.9,1.1-1.5c0.5-0.6,0.4-1.4-0.1-1.9C194.2,131,193.9,130.8,193.5,130.8z"/>
	</g>
	<g>
		<path class="st0" d="M188.6,127.2c-0.6,0.4-0.8,0.9-1.5,1.1c0.7,0.3,0.9,0.7,1.5,1.1c0.6,0.5,1.4,0.4,1.9-0.1
			c0.3-0.3,0.4-0.7,0.4-1c0-0.4-0.1-0.7-0.4-1C190,126.7,189.2,126.7,188.6,127.2z"/>
	</g>
	<g>
		<path class="st0" d="M191.8,126.7c0.6,1.1,0.6,2.2,0,3.3c1.1-0.6,2.2-0.6,3.3,0c-0.6-1.1-0.6-2.2,0-3.3
			C194,127.3,192.9,127.3,191.8,126.7z"/>
	</g>
	<g>
		<path class="st0" d="M198.4,129.4c0.6-0.4,0.8-0.9,1.5-1.1c-0.7-0.3-0.9-0.7-1.5-1.1c-0.6-0.5-1.4-0.4-1.9,0.1
			c-0.3,0.3-0.4,0.7-0.4,1s0.1,0.7,0.4,1C197,129.9,197.8,129.9,198.4,129.4z"/>
	</g>
	<g>
		<path class="st0" d="M193.5,99.3c0.4,0,0.7-0.1,1-0.4c0.5-0.5,0.6-1.4,0.1-1.9c-0.4-0.6-0.9-0.8-1.1-1.5c-0.3,0.7-0.7,0.9-1.1,1.5
			c-0.5,0.6-0.4,1.4,0.1,1.9C192.7,99.2,193.1,99.3,193.5,99.3z"/>
	</g>
	<g>
		<path class="st0" d="M194.5,104.8c-0.3-0.3-0.7-0.4-1-0.4s-0.7,0.1-1,0.4c-0.5,0.5-0.6,1.4-0.1,1.9c0.4,0.6,0.9,0.8,1.1,1.5
			c0.3-0.7,0.7-0.9,1.1-1.5C195.1,106.2,195,105.3,194.5,104.8z"/>
	</g>
	<g>
		<path class="st0" d="M190.5,102.9c0.3-0.3,0.4-0.7,0.4-1s-0.1-0.7-0.4-1c-0.5-0.5-1.4-0.6-1.9-0.1c-0.6,0.4-0.8,0.9-1.5,1.1
			c0.7,0.3,0.9,0.7,1.5,1.1C189.2,103.5,190,103.4,190.5,102.9z"/>
	</g>
	<g>
		<path class="st0" d="M195.1,103.5c-0.6-1.1-0.6-2.2,0-3.3c-1.1,0.6-2.2,0.6-3.3,0c0.6,1.1,0.6,2.2,0,3.3
			C192.9,102.9,194,102.9,195.1,103.5z"/>
	</g>
	<g>
		<path class="st0" d="M198.4,103c0.6-0.4,0.8-0.9,1.5-1.1c-0.7-0.3-0.9-0.7-1.5-1.1c-0.6-0.5-1.4-0.4-1.9,0.1
			c-0.3,0.3-0.4,0.7-0.4,1s0.1,0.7,0.4,1C197,103.4,197.8,103.5,198.4,103z"/>
	</g>
	<g>
		<polygon class="st0" points="210.9,133.4 208.5,133.4 206.8,131.7 205.1,133.4 202.7,133.4 202.7,135.8 201,137.5 202.5,137.5 
			203.4,136.6 203.7,136.2 203.7,135.8 203.7,134.5 205.1,134.5 205.5,134.5 205.8,134.1 206.8,133.2 207.7,134.1 208,134.5 
			208.5,134.5 209.8,134.5 209.8,135.8 209.8,136.2 210.1,136.6 211.1,137.5 212.6,137.5 210.9,135.8 		"/>
	</g>
	<g>
		<polygon class="st0" points="227.5,111 225.1,111 225.1,113.4 223.3,115.1 225.1,116.8 225.1,119.2 227.5,119.2 229.2,120.9 
			229.2,120.9 229.2,119.4 229.2,119.4 228.2,118.5 227.9,118.1 227.5,118.1 226.1,118.1 226.1,116.8 226.1,116.4 225.8,116 
			224.9,115.1 225.8,114.2 226.1,113.8 226.1,113.4 226.1,112.1 227.5,112.1 227.9,112.1 228.2,111.7 229.2,110.8 229.2,110.8 
			229.2,109.3 229.2,109.3 		"/>
	</g>
</g>
</svg>
