<?xml version="1.0" encoding="utf-8"?>
<!-- Generator: Adobe Illustrator 21.0.0, SVG Export Plug-In . SVG Version: 6.00 Build 0)  -->
<svg version="1.1" id="Layer_1" xmlns="http://www.w3.org/2000/svg" xmlns:xlink="http://www.w3.org/1999/xlink" x="0px" y="0px"
	 width="396.9px" height="155.9px" viewBox="0 0 396.9 155.9" style="enable-background:new 0 0 396.9 155.9;" xml:space="preserve"
	>
<style type="text/css">
	.st0{fill:#FFFFFF;}
</style>
<g>
	<path class="st0" d="M183.9,60.5c0,2.3-0.4,4.4-1.1,6.1c-0.7,1.7-1.8,3.2-3.1,4.3c-1.3,1.1-3,2-4.9,2.6s-4.1,0.9-6.5,0.9
		c-1.1,0-2.4,0-3.8-0.1c-1.5-0.1-2.9-0.3-4.3-0.6V47.3c1.4-0.3,2.9-0.4,4.4-0.5c1.5-0.1,2.8-0.1,3.9-0.1c2.3,0,4.4,0.3,6.3,0.8
		c1.9,0.5,3.5,1.3,4.9,2.5c1.4,1.1,2.4,2.6,3.1,4.3C183.6,55.9,183.9,58,183.9,60.5z M166.3,69.1c0.3,0,0.6,0,1,0.1
		c0.4,0,0.8,0,1.3,0c3.1,0,5.3-0.8,6.8-2.3c1.5-1.5,2.2-3.7,2.2-6.4c0-2.8-0.7-5-2.1-6.5s-3.6-2.2-6.7-2.2c-0.4,0-0.8,0-1.3,0
		c-0.4,0-0.9,0-1.3,0.1L166.3,69.1L166.3,69.1z"/>
	<path class="st0" d="M201,58.7c-0.5-0.1-1.1-0.3-1.8-0.4c-0.7-0.1-1.5-0.2-2.3-0.2c-0.4,0-0.8,0-1.3,0.1s-0.9,0.1-1.2,0.2v15.7
		h-5.8V54.6c1-0.4,2.3-0.7,3.7-1c1.4-0.3,3-0.5,4.8-0.5c0.3,0,0.7,0,1.1,0.1c0.4,0,0.9,0.1,1.3,0.2s0.9,0.1,1.3,0.2s0.8,0.2,1.1,0.3
		L201,58.7z"/>
	<path class="st0" d="M222.7,73.4c-1,0.3-2.3,0.6-3.8,0.8s-3.2,0.4-4.9,0.4c-1.7,0-3.2-0.2-4.4-0.7c-1.2-0.5-2.1-1.1-2.8-2
		c-0.7-0.8-1.2-1.9-1.4-3c-0.3-1.2-0.4-2.5-0.4-3.9V53.5h5.8v10.8c0,1.9,0.2,3.2,0.7,4.1s1.4,1.3,2.8,1.3c0.4,0,0.9,0,1.3-0.1
		s0.9-0.1,1.3-0.1V53.5h5.8L222.7,73.4L222.7,73.4z"/>
	<path class="st0" d="M247.3,63.8c0,1.6-0.2,3-0.6,4.3c-0.4,1.3-1,2.4-1.7,3.4s-1.7,1.7-2.8,2.2s-2.4,0.8-3.9,0.8
		c-0.8,0-1.6-0.1-2.3-0.2c-0.7-0.2-1.4-0.4-2-0.7v7.7h-5.8V54.2c0.5-0.2,1.1-0.3,1.8-0.5c0.7-0.1,1.4-0.3,2.1-0.4
		c0.7-0.1,1.5-0.2,2.3-0.3c0.8-0.1,1.5-0.1,2.2-0.1c1.7,0,3.2,0.3,4.5,0.8s2.4,1.2,3.4,2.2c0.9,0.9,1.6,2.1,2.1,3.4
		S247.3,62.1,247.3,63.8z M241.3,63.9c0-1.8-0.4-3.2-1.2-4.3c-0.8-1.1-2-1.6-3.6-1.6c-0.5,0-1,0-1.4,0.1c-0.4,0-0.8,0.1-1.1,0.1
		v10.5c0.4,0.2,0.8,0.4,1.4,0.6c0.6,0.2,1.2,0.2,1.8,0.2C240,69.5,241.3,67.7,241.3,63.9z"/>
	<path class="st0" d="M259.2,52.9c1.7,0,3.2,0.2,4.3,0.6c1.1,0.4,2.1,1,2.8,1.7c0.7,0.7,1.2,1.6,1.5,2.7c0.3,1,0.4,2.2,0.4,3.5v12.1
		c-0.8,0.2-2,0.4-3.5,0.6c-1.5,0.2-3.3,0.4-5.4,0.4c-1.3,0-2.5-0.1-3.6-0.4c-1.1-0.2-2-0.6-2.8-1.2c-0.8-0.5-1.4-1.2-1.8-2.1
		s-0.6-1.9-0.6-3.2c0-1.2,0.2-2.2,0.7-3.1c0.5-0.8,1.1-1.5,1.9-2c0.8-0.5,1.7-0.9,2.8-1.1c1-0.2,2.1-0.3,3.2-0.3c0.8,0,1.4,0,2,0.1
		c0.6,0.1,1.1,0.2,1.4,0.3v-0.5c0-1-0.3-1.8-0.9-2.4c-0.6-0.6-1.6-0.9-3.1-0.9c-1,0-2,0.1-2.9,0.2c-1,0.1-1.8,0.3-2.5,0.6l-0.7-4.7
		c0.3-0.1,0.8-0.2,1.3-0.3c0.5-0.1,1.1-0.2,1.7-0.3c0.6-0.1,1.2-0.2,1.9-0.2S258.5,52.9,259.2,52.9z M259.6,70c0.6,0,1.1,0,1.6,0
		c0.5,0,0.9-0.1,1.3-0.1v-4.4c-0.2-0.1-0.6-0.1-1.1-0.2c-0.5-0.1-0.9-0.1-1.3-0.1c-0.5,0-1.1,0-1.5,0.1c-0.5,0.1-0.9,0.2-1.3,0.4
		s-0.7,0.4-0.9,0.7c-0.2,0.3-0.3,0.7-0.3,1.2c0,0.9,0.3,1.5,0.9,1.9C257.7,69.8,258.6,70,259.6,70z"/>
	<path class="st0" d="M281.6,74.5c-1.7,0-3.1-0.2-4.1-0.5c-1.1-0.3-1.9-0.8-2.5-1.4c-0.6-0.6-1-1.4-1.3-2.2c-0.2-0.9-0.3-1.9-0.3-3
		V44.7l5.8-0.9v22.4c0,0.5,0,1,0.1,1.4s0.2,0.8,0.5,1.1s0.5,0.5,1,0.7c0.4,0.2,1,0.3,1.7,0.4L281.6,74.5z"/>
	<path class="st0" d="M172.7,84.9c5.6,0,9.9,1,12.9,3c3,2,4.5,5.2,4.5,9.7c0,4.5-1.5,7.8-4.6,9.8c-3,2-7.4,3-13,3h-2.7v12.6h-8.5
		V85.8c1.8-0.4,3.8-0.6,5.9-0.8C169.3,84.9,171.2,84.9,172.7,84.9z M173.3,92.1c-0.6,0-1.2,0-1.8,0.1c-0.6,0-1.1,0.1-1.5,0.1v10.9
		h2.7c2.9,0,5.1-0.4,6.6-1.2c1.5-0.8,2.2-2.3,2.2-4.5c0-1.1-0.2-1.9-0.6-2.6s-0.9-1.2-1.6-1.7c-0.7-0.4-1.6-0.7-2.6-0.9
		C175.6,92.2,174.5,92.1,173.3,92.1z"/>
	<path class="st0" d="M221.8,108.6c0,2.2-0.3,4.3-1,6.2c-0.7,1.9-1.6,3.5-2.8,4.8c-1.2,1.3-2.7,2.3-4.4,3.1
		c-1.7,0.7-3.6,1.1-5.8,1.1c-2.1,0-4-0.4-5.7-1.1c-1.7-0.7-3.2-1.7-4.4-3.1c-1.2-1.3-2.2-2.9-2.9-4.8c-0.7-1.9-1-3.9-1-6.2
		s0.4-4.3,1.1-6.1s1.7-3.4,2.9-4.7s2.7-2.3,4.5-3c1.7-0.7,3.6-1.1,5.6-1.1c2.1,0,4,0.4,5.7,1.1c1.7,0.7,3.2,1.7,4.4,3
		c1.2,1.3,2.2,2.9,2.9,4.7C221.4,104.3,221.8,106.4,221.8,108.6z M213.5,108.6c0-2.5-0.5-4.5-1.5-5.9c-1-1.4-2.4-2.1-4.3-2.1
		c-1.8,0-3.3,0.7-4.3,2.1c-1,1.4-1.5,3.4-1.5,5.9s0.5,4.5,1.5,5.9s2.4,2.2,4.3,2.2s3.3-0.7,4.3-2.2S213.5,111.1,213.5,108.6z"/>
	<path class="st0" d="M245.2,101.5c-0.7-0.2-1.6-0.4-2.6-0.6s-2-0.3-3.1-0.3c-0.5,0-1.1,0-1.8,0.1c-0.7,0.1-1.2,0.2-1.6,0.3v21.8
		H228v-27c1.4-0.5,3.2-1,5.1-1.4s4.2-0.7,6.6-0.7c0.4,0,1,0,1.6,0.1c0.6,0.1,1.2,0.1,1.8,0.2c0.6,0.1,1.2,0.2,1.8,0.3
		c0.6,0.1,1.1,0.3,1.6,0.5L245.2,101.5z"/>
	<path class="st0" d="M250.7,87.3l8.1-1.3v8.4h9.7v6.7h-9.7v10c0,1.7,0.3,3.1,0.9,4.1s1.8,1.5,3.6,1.5c0.9,0,1.8-0.1,2.7-0.2
		c0.9-0.2,1.8-0.4,2.5-0.7l1.1,6.3c-1,0.4-2.1,0.7-3.3,1c-1.2,0.3-2.7,0.4-4.4,0.4c-2.2,0-4-0.3-5.5-0.9s-2.6-1.4-3.5-2.5
		c-0.9-1.1-1.5-2.4-1.8-3.9c-0.3-1.5-0.5-3.2-0.5-5.1L250.7,87.3L250.7,87.3z"/>
	<path class="st0" d="M299.4,122c-1.4,0.4-3.1,0.8-5.3,1.1c-2.2,0.3-4.5,0.5-6.8,0.5c-2.4,0-4.4-0.3-6.1-1c-1.6-0.7-2.9-1.6-3.8-2.7
		c-0.9-1.2-1.6-2.6-2-4.2c-0.4-1.6-0.6-3.4-0.6-5.4V94.4h8.1v14.9c0,2.6,0.3,4.5,1,5.6c0.7,1.2,2,1.7,3.9,1.7c0.6,0,1.2,0,1.8-0.1
		c0.7-0.1,1.2-0.1,1.7-0.2v-22h8.1L299.4,122L299.4,122z"/>
	<path class="st0" d="M331.7,119.4c0,4.7-1.2,8.1-3.6,10.4c-2.4,2.3-6,3.4-11,3.4c-1.7,0-3.5-0.2-5.2-0.5c-1.7-0.3-3.4-0.7-4.8-1.2
		l1.4-6.8c1.3,0.5,2.6,0.9,4,1.2c1.4,0.3,3,0.4,4.8,0.4c2.3,0,4-0.5,4.9-1.5c1-1,1.4-2.3,1.4-3.9v-1c-0.9,0.4-1.8,0.7-2.7,0.9
		c-0.9,0.2-1.9,0.3-3,0.3c-3.9,0-7-1.2-9.1-3.5s-3.1-5.6-3.1-9.8c0-2.1,0.3-4,1-5.7c0.7-1.7,1.6-3.2,2.9-4.4
		c1.2-1.2,2.8-2.2,4.6-2.9c1.8-0.7,3.9-1,6.1-1c1,0,2,0,3,0.1c1,0.1,2.1,0.2,3.1,0.4c1,0.1,2,0.3,2.9,0.5c0.9,0.2,1.7,0.4,2.5,0.6
		L331.7,119.4L331.7,119.4z M313.9,107.7c0,4.5,1.8,6.8,5.5,6.8c0.8,0,1.6-0.1,2.3-0.3s1.3-0.5,1.8-0.8v-12.9
		c-0.4-0.1-0.9-0.1-1.4-0.2c-0.5-0.1-1.2-0.1-1.9-0.1c-2.1,0-3.7,0.7-4.8,2.1C314.4,103.8,313.9,105.6,313.9,107.7z"/>
	<path class="st0" d="M349.5,93.6c2.4,0,4.4,0.3,6,0.8c1.6,0.5,2.9,1.3,3.8,2.3c1,1,1.6,2.2,2,3.7c0.4,1.4,0.6,3.1,0.6,4.8v16.8
		c-1.2,0.3-2.8,0.6-4.8,0.9s-4.6,0.5-7.5,0.5c-1.8,0-3.5-0.2-5-0.5c-1.5-0.3-2.8-0.9-3.9-1.6c-1.1-0.7-1.9-1.7-2.5-2.9
		c-0.6-1.2-0.9-2.7-0.9-4.4c0-1.7,0.3-3.1,1-4.2c0.7-1.2,1.6-2.1,2.7-2.8c1.1-0.7,2.4-1.2,3.9-1.5c1.4-0.3,3-0.5,4.5-0.5
		c1,0,2,0,2.8,0.1c0.8,0.1,1.5,0.2,2,0.4v-0.8c0-1.4-0.4-2.5-1.2-3.3c-0.8-0.8-2.3-1.2-4.3-1.2c-1.4,0-2.7,0.1-4.1,0.3
		c-1.3,0.2-2.5,0.5-3.5,0.8l-1-6.5c0.5-0.1,1.1-0.3,1.8-0.5s1.5-0.3,2.3-0.4c0.8-0.1,1.7-0.2,2.6-0.3
		C347.7,93.7,348.6,93.6,349.5,93.6z M350.2,117.3c0.8,0,1.6,0,2.3-0.1s1.3-0.1,1.7-0.2v-6.1c-0.3-0.1-0.8-0.1-1.5-0.2
		c-0.7-0.1-1.2-0.1-1.8-0.1c-0.8,0-1.5,0-2.1,0.1c-0.7,0.1-1.3,0.3-1.8,0.5c-0.5,0.3-0.9,0.6-1.2,1s-0.4,1-0.4,1.6
		c0,1.3,0.4,2.1,1.3,2.6S348.7,117.3,350.2,117.3z"/>
	<path class="st0" d="M380.7,123.5c-2.4,0-4.3-0.3-5.7-0.8c-1.5-0.5-2.6-1.1-3.5-2c-0.9-0.8-1.4-1.9-1.7-3.1
		c-0.3-1.2-0.5-2.6-0.5-4.1V82.1l8.1-1.3v31.1c0,0.7,0.1,1.4,0.2,2c0.1,0.6,0.3,1.1,0.6,1.5c0.3,0.4,0.8,0.7,1.3,1
		c0.6,0.3,1.4,0.4,2.3,0.5L380.7,123.5z"/>
</g>
<path class="st0" d="M45,54.4c-0.6,1.5-1.4,3.7,0,4.1c1.4,0.5,6.1,1.4,7.2,2.5c1.1,1.1,2.3,1.6,4.1,0c1.8-1.6,3.4-1.4,0-4.6
	c-3.4-3.2-3.4-5-5.1-5C49.5,51.4,45.8,52.4,45,54.4z M63.8,48.2c-2.6-0.9-6.6-0.9-8.2-0.2c-3.4,1.5-4.4,2.5-1.4,4.3
	c7.4,4.4,6.1,5.4,9.5,1.3C67.1,49.5,68.1,49.6,63.8,48.2z M60.6,38c-0.9,3-3,4.2-3.5,5.9c-0.5,1.7,0.4,1.8,3.1,1.6
	c3.8-0.4,5.2,0,6.2,0.3c1,0.3,2.5,2.3,3.8-1.2c1.3-3.5,2.4-5.5,0.9-7.3c-0.9-1-1.6-2.3-4.4-1.9C63.8,35.8,61.4,35.3,60.6,38z
	 M43.7,49.2c3.1-0.7,3.8-0.8,5.3-0.8s3.2-0.9,1.5-2.7c-1.7-1.8-2.6-2.9-4.5-3.6c-1.9-0.7-3.4-1-4.2,0.8c-0.7,1.6-3.3,2.1-2.4,4
	C40.3,48.9,40.7,49.9,43.7,49.2z M49.6,41.6c1.2,0.9,3.2,3.6,4.9,0.8c1.7-2.8,3.3-4.2,3.8-5.5c0.4-1.4-0.1-1.6-2-2.5
	c-1.9-0.8-3.1-1.9-4.4-1.3c-1.4,0.6-3.9,2.7-5,4.4c-1.1,1.7-1.5,1.6-1,2.3C46.9,41.5,48.4,40.8,49.6,41.6z M56.1,32.1
	c2.5,0.1,2.2-0.4,5,0.3c2.8,0.7,3.8,1.2,4.6-1.2c0.8-2.4,1.3-3.6,1.3-4.7c0.1-1.1,0.5-1.6-2.5-1.3c-3,0.4-5.6-0.7-6.7-0.4
	c-1.1,0.3-1.4,2.1-1.8,2.9C54.9,30.1,53.6,32.1,56.1,32.1z M59.5,23c2.5-0.3,4.7,0.4,5.5,0.5s-1.4-7.5-1.7-8.6
	c-0.3-1.2-1.8-1-2.5,1.6c-0.7,2.6-1.4,4.2-1.8,5C58.6,22.2,58.3,23.2,59.5,23z M79.2,49.1c-2.9-1.4-3.2-1.7-4.5-1.7
	c-1.3,0-3.2-0.3-5,2.6c-1.3,2-4.4,4.1-4.8,5.7c-0.4,1.5,0.3,2.7,3.5,2.5c3.2-0.3,4.2,0.6,6.2,1.5s2.9,2.7,3.9,0
	c1-2.7,2.2-3.8,2.8-5.7C81.7,52,82.1,50.5,79.2,49.1z M77.1,46.5c3.8,0.6,4.7,1.1,5.9,0c1.2-1.1,2.6-1.6-1.5-5.3
	c-4.1-3.7-2.6-2.9-3.5-3.8c-0.8-0.9-2.8-0.4-3.2,2.1C74.3,42.6,73.4,45.9,77.1,46.5z M69.8,34.4c2.2,1.5,3.2,2.7,4.1,2.6
	c0.9-0.1,1.3-0.7,1.2-1.8c-0.1-1-4.3-4.8-4.9-5.8c-0.6-0.9-0.8-0.3-0.9,0.7C69.2,32.4,67.6,32.9,69.8,34.4z M68.9,60.3
	c-2.1-0.6-3.6-0.8-5.5-0.8c-2,0-3,0.2-3.9,1.5c-1.4,2.1-3.6,3.1-1.6,3.9c2,0.8,2.5,1.9,5.8,2.3c3.3,0.4,3,1.7,5.3-2.5
	C70,62.6,71,60.9,68.9,60.3z M42.4,61.8c-1.9,2-3.9,2.9-1.8,3.6c2.2,0.6,3.8,0.1,6.4,0.8c2.5,0.7,3.6,0.8,5-0.6
	c1.3-1.3,1.5-1.4-0.8-2.8c-2.2-1.4-4.4-1.7-6.1-1.8C43.5,60.9,43.6,60.5,42.4,61.8z M30.9,61c4.1,0.6,3.6,1,5.6,1
	c2,0.1,1.8-1.4,3.1-2.6c2.1-1.8,2.9-4,3-5.3c0.1-1.2-0.3-3.3-2.7-4.2c-2.4-0.9-3.1-0.9-5.8,1c-2.7,2-3.4,2.9-4.4,5.4
	C28.6,59,26.8,60.4,30.9,61z M31.9,69.3c3.3-1.2,2.6-1.5,4.1-2.6c1.5-1.1,0.6-1.8-0.8-2.5c-1.4-0.7-3.7-2.2-5.1-2.1
	c-1.5,0.1-2.8,0.2-2.8,1.7c0,2.8-0.3,4.4,0.4,5.5C28.3,70.4,28.6,70.4,31.9,69.3z M19.7,83.3c2.1,1.3,4.4,2.9,6.3,1.6
	c1.9-1.3,3.7-3.3,5.2-5.5c1.6-2.2,2.3-2.7,3.1-3.5c0.8-0.9,2.2-3.5-0.9-3.8c-3.1-0.3-6.8,0.3-8.3,0.4c-1.5,0.1-2.6,0.4-4.2,0.9
	c-3.2,0.9-3.8,1.6-4.7,3.9C15.4,79.2,17.5,82,19.7,83.3z M19.9,71.1c2.8,0.1,4,0.1,4.8-1.5c0.8-1.6-0.6-3.9-0.4-5.5
	c0.2-1.6-1.5,0-2.2,1.2c-0.7,1.2-1.4,2.3-2.1,3.7C19.3,70.4,18.6,71.1,19.9,71.1z M30.9,83.9c-1.5,1.4-4.1,3.7-6.4,5
	c-2.1,1.2-4.2,1.9-2.5,3.8c1.7,1.9,1.8,1.8,2.5,2.7c0.7,0.8-0.3,1.3,2.7-0.5c3-1.8,4-4.1,6.5-4.8c2.4-0.7,3.2-1.4,3.8-2.3
	c0.6-0.8,1.1-2.4,0.5-3.8c-0.6-1.4-2.5-1.5-3.4-1.7C33.8,82.1,32.4,82.6,30.9,83.9z M15.7,89.2c2.1,0,4.7,0.2,5.7,0s2.6-2.1,0.6-2.4
	c-2-0.4-4.8-2.4-5.4-3.1c-0.6-0.7-1.9,0.1-2.1,1.6C14.3,86.8,13.6,89.2,15.7,89.2z M20.9,95.3c-0.3-1.4-2.6-3.7-3.7-4.2
	c-1.1-0.6-2.9-1.5-2.9,0.6c0,2.1-0.2,5.4,0.1,7.4c0.3,1.9,0.3,1.8,0.7,1.7c1.8-0.5,3.9-1.1,5.1-1.8C21.3,98.2,21.1,96.8,20.9,95.3z
	 M23.5,113.5c1.9-0.7,5.5-5,7.8-6.2c2.2-1.2,1.8-2.4,1.9-4s-0.7-1.6-1.7-2.6c-0.9-0.9-2.6-2-3.5-2c-0.9,0-3.5,0.3-5.4,1.4
	c-2,1-2.5,1.1-4.7,1.9c-3.3,1.3-2.5,3.1-2.1,4.5c0.4,1.4,0.7,3.4,2.2,4.9C19.7,113,21.6,114.3,23.5,113.5z M34.2,99.6
	c1.7-1.2,3.1-3,4.7-3.5c1.6-0.5,2.3-1.2,3.3-1.6c0.9-0.3,1.4-1.2-0.2-2.7c-1.7-1.5-2.3-2.8-4.6-2s-3.6,2.3-4.8,3.6
	c-1.3,1.3-2.4,1.7-1.3,3.5C32.2,98.6,32.5,100.8,34.2,99.6z M41.8,84.7c1.1,1.9,2.6,4,3.4,5.4c0.8,1.5,0.2,3.1,4.3,1.9
	s5.9-0.9,7.8-2.1c1.9-1.3,3-1.5,2.2-3.1c-0.8-1.6-1.3-2.8-5.1-3.2c-3.8-0.5-4.1-0.5-6.7-0.4C45.1,83.4,40.9,83.2,41.8,84.7z
	 M37.8,80.2c2,0.8,4.2,2,6.5-0.7c2.3-2.7,3.5-2.8,3.7-4.7c0.3-1.9,1.8-3.1,0.6-4.3c-1.1-1.2-2.8-1.3-4.5-1.8
	c-1.7-0.6-6.3-2.4-5.9,1.5c0.2,1.6,0.5,3.7-0.2,5.2C37.4,76.8,35.8,79.4,37.8,80.2z M53,67.9c-0.6,1.8-0.2,0.9-0.6,1.8
	c-0.6,1.7-2.1,5.9-2.5,7c-0.4,1.2-1.8,3.6,1.2,3.9c3.1,0.4,5.4,0.1,6.5,0.3c1.1,0.2,2,0.9,3.2-0.6c1.1-1.5,2.2-3.3,3.2-4.6
	c1-1.3,1.6-2.5,0.8-4.2c-0.8-1.7-2.4-1.4-5.1-2.5C57,67.9,53.6,66.1,53,67.9z M70.2,76.4c4.7,1.7,3.8-2.1,4.6-4.4
	c0.8-2.2,1.6-3.2,1.6-5.3c0.1-2.1,0.3-2.8-0.8-3.3c-3.2-1.6-3,0.9-3.9,2.4c-1.2,1.9-2.8,4.1-3,6.5C68.5,74.5,68.3,75.7,70.2,76.4z
	 M88.8,74.5c1.3-2.5,1.5-3.3,2-4.7c0.5-1.4,0.8-3.6-0.8-5.2c-1.6-1.7-2.8-2.3-5.1-2.5c-2.3-0.2-6.2-1.3-6.4,1.7
	c-0.2,2.3-0.2,4.1-0.9,6c-0.7,2-1.3,2.9-1.4,4.1c-0.1,1.2-0.3,1.3,2.3,1c2.6-0.3,4.7,0.1,6,0.5C85.7,75.9,87.5,77,88.8,74.5z
	 M85.8,59.3c3,1.4,4.6,2.5,6,1.7c1.4-0.8,2.1-2.9,2.7-4c0.6-1,1-1.9-0.4-2.8c-1.4-0.9-2.9-2.5-4.5-3.9c-1.6-1.4-3.4-2.6-4.1-1.5
	c-0.7,1.1-1.2,1.9-1.6,2.7C81.2,57.3,82.9,57.9,85.8,59.3z M94.6,65.9c2.1,1.8,4.3,2.1,6.2,2.3s3.1-0.2,2.3-1.4s-3.3-5.4-4.6-6.6
	c-1.3-1.2-2.7,0.2-3.1,1.1C94.4,63.7,93.1,64.6,94.6,65.9z M102.6,74.3c1-1.4,1.3-2.4,0-3.5c-1.3-1-3.9-0.2-5.5-1
	c-1.6-0.8-3,0.5-3.4,1.6c-0.7,1.7-2,3.7,0,4.7c2,1,2.1,1.3,4.8,1C101.3,76.7,101.5,75.7,102.6,74.3z M84,86.2c1-2.9,1.9-4.9,1.2-6.3
	c-0.6-1.4-1.8-1.3-4.3-1.2c-2.5,0.1-4.9,0.3-4.7,3.6c0.1,2.9,0.2,3-0.7,5.4c-0.9,2.4-0.8,2.7,2,2.8c2.8,0.1,3.1,0.9,4.3-0.3
	C82.9,89.1,83,89.1,84,86.2z M71.5,89.3c1.4-0.5,1.7-3.1,1.9-4.7c0.2-1.4,0.7-4.1-0.6-4.8c-1.3-0.7-2.4-0.9-4-1.5
	c-1.7-0.6-4.1,0.5-4.4,2.1c-0.3,1.6-0.5,2.8-1.1,5.1c-0.7,2.3,0.2,2.8,3,3C69,88.7,70.1,89.7,71.5,89.3z M54.8,100.7
	c2.4,1.9,3.9,3.7,6.7,2.7c2.7-0.9,4.4-2.8,5.7-3.2c1.3-0.4,1.2-2.3,0.7-4.9c-0.5-2.6-0.7-2.6-3.3-4.1c-2.6-1.5-5-1.7-5.9,0.4
	c-0.9,2-0.9,1.9-1.8,2.9C55.5,96.4,52.4,98.8,54.8,100.7z M46,105.6c0.9,1.2,1.3,2.5,3.2,0.7c1.8-1.8,1.2-4,1.8-6.1
	c0.6-2,1.7-3.5,1.4-4.5c-0.4-1-2.4-0.7-4.7,0.5c-2.3,1.2-2.5,0.8-3.1,0.9c-2.8,0.5-5.5,1.2-6.1,2.1c-0.6,0.9-0.1,1.4,3.1,2.9
	C44.6,103.5,45.1,104.4,46,105.6z M27.9,114.1c-0.9,1.3-1.6,1.7,1.8,2.7c3.4,1,3.7,2.5,6.5,1.8c2.8-0.7,5.3-3,6.5-4.1
	c1.2-1.1,1.8-2.5,1.2-4.8c-0.6-2.3-1.7-2.4-3.2-3.9c-1.5-1.6-3.2-2.1-4.7-0.3c-1.5,1.9-2.9,2.5-3.5,3.2
	C29.8,111.7,28.8,112.8,27.9,114.1z M33.8,121.9c-0.6-1-1.9-0.7-3.9-1.6c-2-0.9-4.7-3.4-5.5-3.8c-1.1-0.7-4.9-0.2-3.7,1.6
	c1.2,1.8,5.8,9,7.5,9.5c1.7,0.5,2.5-0.1,4.4-2C34.4,123.5,34.4,122.9,33.8,121.9z M45.4,124.8c2.3-1.8,3.5-1.2,5.3-1.8
	c1.8-0.6,1.3-2.2,0.5-3.9c-0.8-1.7-1.5-3.2-3.7-3.8c-2.2-0.6-3.1-0.2-4.6,1.4c-1.5,1.5-2.5,2.2-3.7,3.5c-1.4,1.5-4.6,5-5.2,6.4
	c-0.6,1.5-1.5,4.1,0.7,4.7c2.2,0.6,2.9,3.4,4.9,1.7C41.9,131.4,43,126.7,45.4,124.8z M55.1,118c1.2,1.2,2.3,2.1,5.5,0.9
	c3.3-1.2,4.1-0.7,4.2-2.4c0.1-1.6-1.1-3.8-1.4-5.9c-0.3-2-0.5-3.6-3.4-3.8c-2.8-0.2-5.3-0.3-8.1,0.9c-1.8,0.8-2.2,3.5-0.7,5.5
	C52.7,115.5,53.9,116.8,55.1,118z M77.3,106.2c0.7-1.7,1.6-2.1-0.5-3.1c-2-0.9-2.4-0.8-5.1-0.7c-2.7,0.1-4.9-1-5.1,2.8
	c-0.1,2.7-0.5,4.8,1.1,7.4c1.6,2.7,1.9,4.7,3.7,2.2c1.9-2.5,1.9-2.6,3.7-4.3C77,109,76.6,107.9,77.3,106.2z M72.3,100.2
	c2.6,0.1,5.6-0.1,7.1-1c1.4-0.9,1.5-1.8,1.4-3.9c-0.1-2.1-0.3-2.4-3.5-2.3c-3.2,0.1-5.2-0.3-5,2.3C72.4,96.9,69.7,100.1,72.3,100.2z
	 M91.2,92.7c-1.6-0.2-3.9-1.2-6.2-0.7c-2.3,0.5-1.9,2.1-2.2,5.3c-0.3,3.1-1.3,4.2-0.7,6.8c0.6,2.6,4,4.9,5.4,5.7
	c1.4,0.8,1.5-2,2.7-4.4c1.2-2.3,0.3-4.5,1.4-7.9C92.6,94.5,92.8,92.9,91.2,92.7z M83,125.4c3.9,0,7.3-2.9,7.3-7.2c0-2.4-1-4-1.9-5.1
	c-0.8-0.9-1.6-1.4-1.8-1.5c-0.8-0.5-1.7-0.8-2.5-1.3c-0.5-0.3-1.2-1.2-1.8-1.9c-0.1,1.1-0.4,1.6-0.8,1.9c-0.8,0.7-1.3,0.9-2.1,1.2
	c-0.6,0.3-3.9,2.3-3.9,6.5c0,1.3,0.4,2.6,1,3.6C77.9,124,80.3,125.4,83,125.4z M99.3,89.1c1.1-2.6,1.7-3,1.3-5.8
	c-0.4-2.8-0.6-3.9-3.1-4.1c-2.5-0.2-2.5,1.3-5.9,0c-2.6-1-2.2,1.2-3.6,1.4c-1.4,0.2-0.9,2.4-1,4c-0.2,2.5-3.6,5.1,1.1,5.8
	c4.8,0.6,5.3,1.5,7.2,1.6C97.2,92.1,98.2,91.7,99.3,89.1z M110.1,90.3c-0.2-1.3,0.1-5.4-0.5-6.8c-0.7-1.4-1.6-0.8-3.3-1.7
	c-1.7-0.9-2-0.6-2.5,0.6c-0.7,1.8-2.2,7.4-0.7,10.6c0.9,1.9,2.6,0.9,5.6,0.9C111.6,93.9,110.3,91.6,110.1,90.3z M106.8,79.9
	c2.1,0.7,2.6,0.3,2-0.7c-0.6-1-1.4-5.8-2.4-5.8c-1.9-0.1-2.9,2.2-2.6,3.8C104.2,78.7,104.7,79.2,106.8,79.9z M107.8,96.9
	c-2.5-1.8-4.9-0.9-6.7-2.1c-1.8-1.3-4.1,0.9-5.5,0.9c-1.3,0.1-1.3,0.7-1.4,2.3c-0.3,2.1-1.1,3.7,2.1,4.3c3.2,0.6,5.2,0.4,6.8,1
	c1.6,0.6,4.4,1.9,5.3-0.2C109.2,101,110.3,98.7,107.8,96.9z M107.1,105.9c-2.9-0.5-5.6-1-8.1-1.2c-2.5-0.2-5.3-1.3-6.3,1
	c-1.3,3-2.1,6.4-1.5,9.4c0.7,3.4,5.3,2.6,7.6,1.5c2.3-1.2,2-0.4,4.6-1.5c2.5-1,4.3-3.7,4.7-5.7C108.4,107.3,110,106.4,107.1,105.9z
	 M60.3,129.3c0.2,1.2,0.6,3.3,4.5,1.1s3.5-2.4,6.7-3.6c3.2-1.3,4.6-1.6,3.7-3.2c-0.8-1.6-2.2-3.5-3.3-4.9c-1-1.4-3.1-1.7-5.1-0.7
	c-2.1,1.1-3,1.6-3.9,2.1c-2.1,1.1-7.7,1-6,3.4C58.7,125.9,60.1,128.1,60.3,129.3z M58.9,131.4c-1-2.2-2.3-4.8-3.1-5.8
	c-0.8-1-2.2-1.5-3.3-1.2c-1.1,0.3-2.4,0.3-3.8,1.2c-2.1,1.3-5.4,3.3-5.9,6.5c-0.4,3.2,0.3,3.9,2,5.1c1.7,1.2,1.9,3.2,5,1.7
	c3.1-1.5,4-3.7,6.5-4.4C58.8,133.8,59.9,133.5,58.9,131.4z M65.1,136c-1-0.9-4.4-0.2-7,0.8c-2.2,0.9-4.8,1.7-2.7,2.9
	c2.1,1.3,0.6,1.9,4.9,1.9c4.3-0.1,8.9,0.6,8.1-1.3C67.5,138.4,66.1,137,65.1,136z M79.1,129.3c-0.6-1.5-0.7-2-3.9-1
	c-3.2,1-4.8,2.1-6.2,3.1c-2.1,1.5-1.9,2.2,0,5.1c1.9,2.8,1.1,4.9,4.5,3.9c3.4-1,3.4-1.1,5.9-2.2c2.5-1.1,3.7-0.9,1.9-3.8
	C79.5,131.4,79.7,130.8,79.1,129.3z M83.1,128.4c-2.3,1.3,0.6,4.8,1,5.8c0.4,1,2.7,1.6,4.5,0s3.7-1.7,3.8-3.2c0.1-1.4,0.1-1.6-1-3
	C90.1,126.6,87.7,125.9,83.1,128.4z M103.4,117.5c-2-0.2-4.4,1.5-7,2c-2.6,0.5-2.8,2.6-3.4,3.7c-0.7,1.5-0.8,2.7,0,4.3
	c0.8,1.6,0.4,2.8,2.5,0.7c2.1-2.1,3.4-3.6,4.5-5S105.4,117.8,103.4,117.5z"/>
</svg>
