<?xml version="1.0" encoding="utf-8"?>
<!-- Generator: Adobe Illustrator 21.0.0, SVG Export Plug-In . SVG Version: 6.00 Build 0)  -->
<svg version="1.1" id="Layer_1" xmlns="http://www.w3.org/2000/svg" xmlns:xlink="http://www.w3.org/1999/xlink" x="0px" y="0px"
	 width="566px" height="128px" viewBox="0 0 566 128" style="enable-background:new 0 0 566 128;" xml:space="preserve">
<style type="text/css">
	.st0{fill-rule:evenodd;clip-rule:evenodd;fill:#1665A1;}
</style>
<g>
	<path class="st0" d="M333.7,0c0.4,0.1,0.8,0.1,1.2,0.2c1,0.7,2.2,1.7,3.1,2.6c1.6,1.3,2.7,1.6,4.6,1.8c1.9,0.3,3.9,0.5,5.7,1.1
		c0.6,0.4,1.3,0.8,1.9,1.2c-2.2-0.8-4.7-1.3-7.5-1.5c-1.6-0.1-1.8,0.2-0.8,1.6c1.3,1.7,2.5,3.5,3.6,5.4c3.9,6.8,4.8,8.8,11.4,12.7
		c2.5,1.5,4.7,3.2,6.7,5.1c0.7-5.1,0.5-7.1,0.2-9.1c0.2,0.4,0.7,1.3,0.9,1.7c0.2,2.3,0.1,4-0.4,8c1.9,1.9,3.7,4.2,4.9,6.3
		c0,0.4,0.1,0.9,0.1,1.2c-1.4-2.2-3.1-4.5-5.2-6.6c-1,4.5-2.7,7.8-1.2,12.4c2.3,6.8,2.7,13.6,1.5,19.8c-0.3,0.6-0.6,1.1-0.9,1.6
		c1.5-8.8,0.9-15.1-1.5-21.2c-1.3-3.2-3.7,0.6-5.1,2.5c-4.8,6.4-7,10.2,1.5,15.7c1.8,1,3.4,2.1,5,3.2c-0.1,0.2-0.2,0.4-0.4,0.6
		c-1.8-1-3.5-1.8-5.3-2.8c-9.4-5.3-12-0.8-18.8,7.7c-1.4,1.7-2.9,3.3-4.5,4.8c-4.3,4-2.6,4.5,2.6,4.5c5.3,0,10.7-1.2,16.6-3.5
		c-0.5,0.4-0.9,0.7-1.4,1.1c-5.5,2.1-10.6,3.3-15.4,3.4c-7.7,0.3-2.6,2.4,2,3.2c-0.3,0.1-0.7,0.3-1.1,0.4
		c-9.5-2.4-10.2-2.2-20.6,0.3c-0.4-0.1-0.7-0.2-1.1-0.3c7.9-2.2,10.9-3.3,2.7-6.8c-5.3-2.3-10.1-5.5-14.3-9.5
		c-1.2-1.1-2.4-2.3-3.5-3.6c-0.6-0.2-1.1-0.4-1.6-0.6c-3.7-1.3-5.2-1.9-3.7,2.5c1.3,4,3.6,8.6,6,11.1c-0.8-0.6-1.5-1.1-2.2-1.7
		c-2.1-2.9-3.8-6.3-5-9.7c-1.9-5.4-5.4-7.2-8.9-11.5c-0.1-0.4-0.2-0.9-0.4-1.3c1.1,1.5,2.2,2.5,3.5,3.5c3.5,2.7,3.7,1.3,3.4-2.4
		c-0.1-1.4-0.2-2.9-0.2-4.4c-0.3-0.7-0.6-1.4-0.9-2.2c-1.4-3.6-2.4-7.4-3-11.7c-0.3-2.2-0.7-2.4-1.5-0.8c-1.3,2.5-2.2,5.2-2.6,8.2
		c0-0.5,0-1.1,0-1.6c0-0.4,0-0.8,0-1.1c0.5-2.6,1.2-4.6,2.6-7.4c0.8-1.7,1-2.3,1.1-4.2c0.2-2.5,0.4-4.6,0.9-7
		c0.3-0.6,0.6-1.1,0.9-1.7c-0.5,2.6-0.8,5-0.9,7.1c-0.1,1.7,0.4,2.3,1.4,1.1c4.3-5.3,6.9-9,3.4-14.1c0.2-0.2,0.3-0.4,0.5-0.6
		c5.8,2.9,8.9-0.7,12.7-5.9c0.6-0.8,0.2-1.6-1.1-1.3c-1.8,0.3-3.5,0.8-6.1,1.6c0.4-0.4,0.8-0.7,1.3-1c1.6-0.6,3.6-1.1,5.5-1.5
		c1.9-0.4,3-0.9,4.3-2c1.7-1.4,3.8-3,5.6-4.2c0.6-0.2,1.2-0.3,1.8-0.5c-2.6,1.6-4,2.5-5.9,4.5c-0.7,0.7-0.5,1.4,0.4,1.4
		c3.1,0.1,4.6-0.1,7.4,0.2c2.6,0.2,3.3,0.3,5.7-0.2c4-1,7.4-1.4,11.2-1.6c1.4-0.1,1.9-0.5,0.7-1.6C336,2,334.9,0.8,333.7,0L333.7,0z
		 M307.5,9.6c-5,7.1,4.4,1.9,10.4-0.7c1.3-0.5,1.1-1.5-0.4-1.7c-1.9-0.2-2.5-0.1-4.2-0.1C310.7,7.2,309.1,7.3,307.5,9.6L307.5,9.6z
		 M358.5,36.4c-1.3-2.4-2.5-4.8-4.1-7c-3.7-5.2-4.4-4.4-3.9,1.6c0.3,3.2,0.3,6.5,0,9.9c-0.8,9.5-0.6,13,7.1,3.5
		C358.9,42.7,360.4,39.9,358.5,36.4L358.5,36.4z M340.2,15.5c-4-3.1-8.6-5-13.5-6.4c-3-0.9-5-0.6-7.7,0.6c-9.2,4.2-11.3,8.1,2.2,7.3
		c6.2-0.3,10.3-0.2,17.2,1.2C342.9,19.2,345.3,19.5,340.2,15.5L340.2,15.5z M327.9,8.3c4.7,1.6,9,3.6,13.1,6.5
		c4,2.7,6.8,4.6,3.6-1.8c-1-2-2.5-4.2-3.9-5.9c-1.1-1.4-1.6-1.9-4-1.7c-3,0.2-5.7,0.3-8.6,1C326.3,6.9,326.3,7.8,327.9,8.3
		L327.9,8.3z M363.5,31.1c-12.6-10.4-8.3-2.7-4.2,4.6C361.7,40.2,363,33.1,363.5,31.1L363.5,31.1z M288.6,35.9
		c0.6,4.3,1.6,8.6,3.2,12.7c0-0.2,0-0.3,0-0.5c-0.5-4.6,5.5-26.8-2.3-16.5C288.7,32.6,288.4,34.1,288.6,35.9L288.6,35.9z
		 M337.9,19.4c-5.9-1.3-10.1-1.6-16-1.2c-23.3,1.7-6.8,15.3,4.8,23.6c8.7,6.2,21.5,17.5,22.9-1.7c0.2-3,0.2-6,0-9
		C348.8,23.3,345.3,21,337.9,19.4L337.9,19.4z M325.8,43c-11.5-9.1-30.3-22.4-22.6,5.3c1.2,4.4,3.4,8.6,5.9,12.6
		c2.3,3.8,4,5.2,7.7,5.4c5.1-0.2,9.8-1.3,14.8-3C348.9,57.3,333.1,48.8,325.8,43L325.8,43z M332.3,64.2c-4.7,1.6-9.5,2.7-14.3,3.1
		c-3.9,0.3-3.5,1.4-1.4,3.5c1.4,1.4,2.9,2.9,4.4,4.2c4.8,4.1,7.9,4.9,12.7,0.5c1.4-1.3,2.8-2.7,4-4.2C345,61.5,342,60.9,332.3,64.2
		L332.3,64.2z M299.8,64.1c-2.7-3.3-5-6.9-6.9-10.7c0,0.8,0.1,1.5,0.2,2.3c0.4,4.2,2,6.7,6,8.2C299.3,63.9,299.5,64,299.8,64.1
		L299.8,64.1z M308.2,67.1c-1.8-0.2-3.5-0.6-5.3-1c0.7,0.8,1.5,1.6,2.3,2.3c4.1,3.9,8.8,7.1,14,9.3c4.8,2,4.6,0.9,1-2.1
		c-1.7-1.4-3.2-3-4.8-4.6C312.7,68.3,311.9,67.6,308.2,67.1L308.2,67.1z M301.6,64.7c1.9,0.6,3.9,1,6,1.3c3.4,0.5,2.9-0.6,0.5-4.5
		c-3.2-5.3-5.4-10.5-7.2-16.6c-3.3-10.7-6.2-12-8.1,3.3c0,0.9,0,1.7,0,2.6C295,55.8,298,60.5,301.6,64.7z"/>
	<g>
		<path d="M0,101.9h5.7v25.6H0V101.9z"/>
		<path d="M10.2,108.1H15l0.1,1.7c1.3-1.3,3.2-2.1,5.3-2.1h2.4c3,0,5,1.3,5,4.3v15.5h-5.1v-14.2c0-1.2-0.9-1.5-1.9-1.5h-2.1
			c-1.4,0-2.7,0.2-3.4,0.4v15.3h-5.1V108.1z"/>
		<path d="M32,127v-3h9c1.7,0,1.9-0.7,1.9-1.6v-1.3c0-1-0.4-1.2-1.4-1.3l-5.1-0.5c-2.7-0.3-4.6-1.3-4.6-4.2v-2.7
			c0-2.8,2-4.9,5.9-4.9h5.1c1.3,0,2.9,0.2,4.1,0.9v3h-8.6c-1.5,0-1.6,0.6-1.6,1.5v1.2c0,0.9,0.5,1.1,1.4,1.2l5,0.5
			c3,0.3,4.8,1.3,4.8,4.3v2.7c0,3.3-2.4,5-5.8,5h-6C34.9,127.9,33.1,127.7,32,127z"/>
		<path d="M53.4,123.5V112h-3v-3.6h3v-5.2l5.1-0.5v5.7h5.7v3.6h-5.7v10c0,0.9,0.1,1.9,1.5,1.9h3.9v3.3c-1.6,0.7-3.5,0.8-4.8,0.8
			C56,127.9,53.4,127.1,53.4,123.5z"/>
		<path d="M67.7,100.2h5.1v4.9h-5.1V100.2z M67.7,108.1h5.1v19.4h-5.1V108.1z"/>
		<path d="M79.3,123.5V112h-3v-3.6h3v-5.2l5.1-0.5v5.7h5.7v3.6h-5.7v10c0,0.9,0.1,1.9,1.5,1.9h3.9v3.3c-1.6,0.7-3.5,0.8-4.8,0.8
			C81.9,127.9,79.3,127.1,79.3,123.5z"/>
		<path d="M93.5,123.6v-15.5h5.1v14.2c0,1.1,0.9,1.4,1.9,1.4h2.1c1.5,0,2.8-0.2,3.4-0.4v-15.3h5.1v19.4h-4.8l-0.2-1.7
			c-1.3,1.3-3.1,2.1-5.3,2.1h-2.4C95.5,127.9,93.5,126.6,93.5,123.6z"/>
		<path d="M117.7,123.5V112h-3v-3.6h3v-5.2l5.1-0.5v5.7h5.7v3.6h-5.7v10c0,0.9,0.1,1.9,1.5,1.9h3.9v3.3c-1.6,0.7-3.5,0.8-4.8,0.8
			C120.3,127.9,117.7,127.1,117.7,123.5z"/>
		<path d="M131.7,121.6v-7.8c0-4.3,3-6.1,6.9-6.1h4.6c4,0,6.8,2,6.8,6.3v7.6c0,4.5-2.6,6.5-6.9,6.5h-4.4
			C134.4,127.9,131.7,126.2,131.7,121.6z M142.4,124.2c1.6,0,2.3-1.1,2.3-2.5v-7.9c0-1.4-0.7-2.5-2.3-2.5h-3.1c-1.7,0-2.4,1-2.4,2.5
			v7.9c0,1.5,0.8,2.5,2.4,2.5H142.4z"/>
		<path d="M162.5,120.6v-18.7h5.8v18.2c0,2.2,1,3.4,3.2,3.4h4.2c2.2,0,3.3-1.3,3.3-3.4v-18.2h5.4v18.7c0,5.4-3,7.4-8.1,7.4h-5.9
			C165.4,128,162.5,126,162.5,120.6z"/>
		<path d="M188.8,108.1h4.8l0.1,1.7c1.3-1.3,3.2-2.1,5.3-2.1h2.4c3,0,5,1.3,5,4.3v15.5h-5.1v-14.2c0-1.2-0.9-1.5-1.9-1.5h-2.1
			c-1.4,0-2.7,0.2-3.4,0.4v15.3h-5.1V108.1z"/>
		<path d="M210.9,100.2h5.1v4.9h-5.1V100.2z M210.9,108.1h5.1v19.4h-5.1V108.1z"/>
		<path d="M219.3,108.1h5.3l4.2,13.5l0.3,1.4h0.1l0.3-1.4l4.3-13.5h4.7l-6.9,19.6h-5.7L219.3,108.1z"/>
		<path d="M240.9,121.6V114c0-5,3.3-6.4,7.5-6.4h3c3.9,0,7.3,1,7.3,5.8v5.3l-3.7,0.5h-8.8v2.3c0,1.7,0.9,2.4,2.9,2.4h9.1v2.9
			c-1.1,0.8-2.6,1.1-4.5,1.1h-5.7C244.1,127.9,240.9,126.3,240.9,121.6z M253.8,115.7v-2.2c0-1.9-0.9-2.3-2.7-2.3h-2.2
			c-2,0-2.7,0.8-2.7,2.4v2.1H253.8z"/>
		<path d="M262.7,108.1h4.7l0.2,1.7c1.3-1.2,3.3-2.1,5.5-2.1c0.6,0,1.6,0,2.4,0.1v4.4h-2.5c-1.9,0-4,0.3-5.2,0.8v14.4h-5.1V108.1z"
			/>
		<path d="M278.9,127v-3h9c1.7,0,1.9-0.7,1.9-1.6v-1.3c0-1-0.4-1.2-1.4-1.3l-5.1-0.5c-2.7-0.3-4.6-1.3-4.6-4.2v-2.7
			c0-2.8,2-4.9,5.9-4.9h5.1c1.3,0,2.9,0.2,4.1,0.9v3h-8.6c-1.5,0-1.6,0.6-1.6,1.5v1.2c0,0.9,0.5,1.1,1.4,1.2l5,0.5
			c3,0.3,4.8,1.3,4.8,4.3v2.7c0,3.3-2.4,5-5.8,5h-6C281.7,127.9,280,127.7,278.9,127z"/>
		<path d="M298.5,100.2h5.1v4.9h-5.1V100.2z M298.5,108.1h5.1v19.4h-5.1V108.1z"/>
		<path d="M310.2,123.5V112h-3v-3.6h3v-5.2l5.1-0.5v5.7h5.7v3.6h-5.7v10c0,0.9,0.1,1.9,1.5,1.9h3.9v3.3c-1.6,0.7-3.5,0.8-4.8,0.8
			C312.8,127.9,310.2,127.1,310.2,123.5z"/>
		<path d="M323.8,123.2V121c0-3.6,2.2-5.2,5.7-5.2h6.4v-2.3c0-1.4-0.6-1.8-2.3-1.8h-8.4v-3.2c1.2-0.6,3.3-0.9,5.1-0.9h4.8
			c3.4,0,5.9,1.4,5.9,5.1v8.4c0,2.2,0.1,4,0.4,6.3h-4.8c-0.1-0.7-0.1-0.9-0.3-2h-0.1c-0.6,1.1-1.9,2.4-4.4,2.4h-2.9
			C325.7,127.9,323.8,125.9,323.8,123.2z M333.3,124.3c1.4,0,2.6-0.5,2.6-2.6v-3h-4.8c-1.4,0-2.1,0.5-2.1,1.8v2
			c0,1.3,0.9,1.8,2.1,1.8H333.3z M334.6,99.2l4.7,1.1l-5.4,5.4h-3.7L334.6,99.2z"/>
		<path d="M345.6,108.1h4.7l0.2,1.7c1.3-1.2,3.3-2.1,5.5-2.1c0.6,0,1.6,0,2.4,0.1v4.4H356c-1.9,0-4,0.3-5.2,0.8v14.4h-5.1V108.1z"/>
		<path d="M361.9,100.2h5.1v4.9h-5.1V100.2z M361.9,108.1h5.1v19.4h-5.1V108.1z"/>
		<path d="M371.2,121.6v-7.8c0-4.3,3-6.1,6.9-6.1h4.6c4,0,6.8,2,6.8,6.3v7.6c0,4.5-2.6,6.5-6.9,6.5h-4.4
			C374,127.9,371.2,126.2,371.2,121.6z M382,124.2c1.6,0,2.3-1.1,2.3-2.5v-7.9c0-1.4-0.7-2.5-2.3-2.5h-3.1c-1.7,0-2.4,1-2.4,2.5v7.9
			c0,1.5,0.8,2.5,2.4,2.5H382z"/>
		<path d="M401.8,123.4V113c0-3.6,2.4-5.4,5.7-5.4h2.6c1.7,0,3.3,0.5,4.2,1.4v-8.7h5.1v27.1h-4.7l-0.3-1.7c-1.2,1.3-2.8,2.1-4.8,2.1
			h-3C403.8,127.9,401.8,126.6,401.8,123.4z M410.8,124c1.5,0,2.8-0.3,3.5-0.6v-11.2c-0.8-0.4-2.3-0.9-3.7-0.9h-1.7
			c-1.3,0-1.9,0.5-1.9,2.3v8.3c0,1.8,1.1,2,2.1,2H410.8z"/>
		<path d="M423.6,121.6V114c0-5,3.3-6.4,7.5-6.4h3c3.9,0,7.3,1,7.3,5.8v5.3l-3.7,0.5h-8.8v2.3c0,1.7,0.9,2.4,2.9,2.4h9.1v2.9
			c-1.1,0.8-2.6,1.1-4.5,1.1h-5.7C426.7,127.9,423.6,126.3,423.6,121.6z M436.5,115.7v-2.2c0-1.9-0.9-2.3-2.7-2.3h-2.2
			c-2,0-2.7,0.8-2.7,2.4v2.1H436.5z"/>
		<path d="M453.9,101.9h5.8v21.4h12.7v4.2h-18.4V101.9z"/>
		<path d="M475.8,100.2h5.1v4.9h-5.1V100.2z M475.8,108.1h5.1v19.4h-5.1V108.1z"/>
		<path d="M485.1,127v-3h9c1.7,0,1.9-0.7,1.9-1.6v-1.3c0-1-0.4-1.2-1.4-1.3l-5.1-0.5c-2.7-0.3-4.6-1.3-4.6-4.2v-2.7
			c0-2.8,2-4.9,5.9-4.9h5.1c1.3,0,2.9,0.2,4.1,0.9v3h-8.6c-1.5,0-1.6,0.6-1.6,1.5v1.2c0,0.9,0.5,1.1,1.4,1.2l5,0.5
			c3,0.3,4.8,1.3,4.8,4.3v2.7c0,3.3-2.4,5-5.8,5h-6C488,127.9,486.2,127.7,485.1,127z"/>
		<path d="M509.7,126l-0.5,1.5h-4.4v-27.1h5.1v9.1c1.2-1.2,3.2-1.9,4.9-1.9h2.7c4,0,5,2.1,5,4.6v10.3c0,4.1-3.1,5.4-6,5.4h-2
			C512.5,127.9,510.8,127.2,509.7,126z M515.3,124.1c1.5,0,2-0.6,2-2.1v-8.6c0-1.4-0.6-1.9-2.1-1.9h-2c-1.3,0-2.6,0.3-3.3,0.5v11.2
			c0.9,0.5,2.4,0.9,3.7,0.9H515.3z"/>
		<path d="M526.3,121.6v-7.8c0-4.3,3-6.1,6.9-6.1h4.6c4,0,6.8,2,6.8,6.3v7.6c0,4.5-2.6,6.5-6.9,6.5h-4.4
			C529,127.9,526.3,126.2,526.3,121.6z M537,124.2c1.6,0,2.3-1.1,2.3-2.5v-7.9c0-1.4-0.7-2.5-2.3-2.5H534c-1.7,0-2.4,1-2.4,2.5v7.9
			c0,1.5,0.8,2.5,2.4,2.5H537z"/>
		<path d="M548.3,123.2V121c0-3.6,2.2-5.2,5.7-5.2h6.4v-2.3c0-1.4-0.6-1.8-2.3-1.8h-8.4v-3.2c1.2-0.6,3.3-0.9,5.1-0.9h4.8
			c3.4,0,5.9,1.4,5.9,5.1v8.4c0,2.2,0.1,4,0.4,6.3h-4.8c-0.1-0.7-0.1-0.9-0.3-2h-0.1c-0.6,1.1-1.9,2.4-4.4,2.4h-2.9
			C550.2,127.9,548.3,125.9,548.3,123.2z M557.8,124.3c1.4,0,2.6-0.5,2.6-2.6v-3h-4.8c-1.4,0-2.1,0.5-2.1,1.8v2
			c0,1.3,0.9,1.8,2.1,1.8H557.8z"/>
	</g>
	<g>
		<path class="st0" d="M56.9,71.4l11.8,0V14.8c-3.9,0-8.7-0.1-11.8,2.5V71.4z"/>
		<path class="st0" d="M103.9,71.4c8.7,0,12.6-3.6,12.6-11.7v-9.6c0-7.7-3.6-10.5-11.6-11.6l-13.7-1.9c-3-0.4-5.5-0.9-5.5-4v-4
			c0-2.9,1.3-4.2,4.8-4.2h24v-7.2c-2.3-2-6.9-2.5-10.1-2.5H89.4c-10.8,0-14.2,5.3-14.2,12.3v9c0,7.4,3.7,10,12.2,11.2l12.9,1.7
			c4,0.6,5.2,1.6,5.2,4.5v4.7c0,2.2-0.9,3.6-4.2,3.6H75.2v6.8c2.4,2.2,7.1,2.7,9.9,2.8L103.9,71.4z"/>
		<path class="st0" d="M140.3,71.4h13.2c3.2,0,7.9-0.6,10.5-2.6v-7h-21.6c-5.8,0-7.1-3-7.1-8.4V32.8c0-5.4,1.2-8.4,7.2-8.4H164v-7.8
			c-2.8-1.4-7.2-1.9-10.3-1.9h-13.4c-11.4,0-16.8,5.2-16.8,16.6v23.3C123.5,66.2,128.9,71.4,140.3,71.4L140.3,71.4z"/>
		<path class="st0" d="M186.1,71.4h12.1v-47h17.2l0-7.2c-2.4-1.8-6.9-2.4-10.3-2.5h-26c-3.4,0.1-7.9,0.7-10.3,2.5v7.2h17.3V71.4z"/>
		<path class="st0" d="M236,71.4h13.2c3.2,0,7.9-0.6,10.5-2.6v-7h-21.6c-5.8,0-7.1-3-7.1-8.4v-6.7h22.8v-8.8H231v-5.1
			c0-5.4,1.2-8.4,7.2-8.4h21.5v-7.8c-2.8-1.4-7.2-1.9-10.3-1.9H236c-11.4,0-16.8,5.2-16.8,16.6v23.3C219.2,66.2,224.6,71.4,236,71.4
			L236,71.4z"/>
		<path class="st0" d="M510.3,71.4v-9.6h-20c-5.8,0-7.1-3-7.1-8.4V14.8c-3.8,0-8.7-0.1-11.8,2.5v37.5c0,11.5,5.4,16.7,16.8,16.7l0,0
			L510.3,71.4z"/>
		<path class="st0" d="M396.8,71.4h11.8V14.8c-3.8,0-8.7-0.1-11.8,2.5V71.4z"/>
		<path class="st0" d="M446.2,71.4c10.7,0,17-4.4,17-15.9V14.8c-3.9,0-8.8-0.1-11.9,2.5l0,37.2c0,4.7-2.3,7.3-6.9,7.3l-9.2,0
			c-4.6,0-6.8-2.6-6.8-7.4l0-39.7c-3.8,0-8.7-0.1-11.8,2.5v38.4c0,11.6,6,15.7,16.5,15.7H446.2z"/>
	</g>
</g>
</svg>
