<?xml version="1.0" encoding="utf-8"?>
<!-- Generator: Adobe Illustrator 21.0.0, SVG Export Plug-In . SVG Version: 6.00 Build 0)  -->
<svg version="1.1" id="Layer_1" xmlns="http://www.w3.org/2000/svg" xmlns:xlink="http://www.w3.org/1999/xlink" x="0px" y="0px"
	 width="255.6px" height="409.2px" viewBox="0 0 255.6 409.2" style="enable-background:new 0 0 255.6 409.2;" xml:space="preserve"
	>
<style type="text/css">
	.st0{fill:#5676B9;}
	.st1{fill:#FFFFFF;}
</style>
<g>
	<g>
		<path class="st0" d="M3.4,272.8h11.1c3,0,5.6,0.5,7.8,1.6c2.2,1.1,3.8,2.6,5,4.7c1.2,2,1.7,4.5,1.7,7.3c0,2.8-0.6,5.3-1.7,7.3
			s-2.8,3.6-5,4.7c-2.2,1.1-4.8,1.6-7.8,1.6H3.4V272.8z M14.1,294.3c2.6,0,4.6-0.7,5.9-2c1.3-1.3,2-3.3,2-5.9c0-5.2-2.6-7.8-7.9-7.8
			h-3.4v15.7H14.1z"/>
		<path class="st0" d="M56.9,300h-7.6l-3.5-9.1c-0.4-1-1.4-1.5-2.9-1.5h-2.6V300h-7.1v-27.2h12.6c3.3,0,5.8,0.7,7.4,2.1
			s2.5,3.4,2.5,6.1c0,1.8-0.5,3.4-1.5,4.8s-2.4,2.3-4.1,2.8c0.8,0.2,1.5,0.5,2.1,1.1c0.6,0.6,1.1,1.3,1.5,2.3L56.9,300z M48.1,283.4
			c0.7-0.5,1-1.2,1-2.2c0-1-0.3-1.8-1-2.3c-0.7-0.5-1.8-0.7-3.3-0.7h-4.5v5.8h4.5C46.3,284.1,47.4,283.9,48.1,283.4z"/>
		<path class="st0" d="M63.5,297.4c-2-2-3.1-4.9-3.1-8.8v-15.7h7v16c0,2,0.4,3.5,1.3,4.5s2.1,1.6,3.8,1.6c1.6,0,2.8-0.5,3.7-1.6
			s1.3-2.6,1.3-4.5v-16h7.1v15.7c0,3.8-1,6.7-3.1,8.8c-2.1,2-5.1,3-9,3C68.6,300.4,65.6,299.4,63.5,297.4z"/>
		<path class="st0" d="M89.3,272.8h13c3.1,0,5.5,0.7,7.2,2.2c1.7,1.5,2.6,3.5,2.6,6.1c0,2.5-0.9,4.5-2.6,6c-1.7,1.5-4.1,2.3-7.2,2.3
			h-5.8V300h-7.2V272.8z M101.3,284.1c2.7,0,4.1-1,4.1-2.9c0-1-0.3-1.7-1-2.2c-0.6-0.5-1.7-0.7-3.1-0.7h-4.8v5.8H101.3z"/>
		<path class="st0" d="M133.3,300l-2.4-5.6h-12.1l-2.4,5.6h-7.2l12.7-27.2h5.7l12.8,27.2H133.3z M121.2,289h7.4l-3.7-8.6L121.2,289z
			"/>
		<path class="st0" d="M142,300v-27.2h7.2v21.4h11.5v5.8H142z"/>
		<path class="st0" d="M175.2,272.8h11.1c3,0,5.6,0.5,7.8,1.6c2.2,1.1,3.8,2.6,5,4.7c1.2,2,1.7,4.5,1.7,7.3c0,2.8-0.6,5.3-1.7,7.3
			s-2.8,3.6-5,4.7c-2.2,1.1-4.8,1.6-7.8,1.6h-11.1V272.8z M185.8,294.3c2.6,0,4.6-0.7,5.9-2c1.3-1.3,2-3.3,2-5.9
			c0-5.2-2.6-7.8-7.9-7.8h-3.4v15.7H185.8z"/>
		<path class="st0" d="M205,300v-27.2h19.4v5.5H212v5.1h11.6v5.5H212v5.6h12.4v5.5H205z"/>
		<path class="st0" d="M248.4,272.8h7.2L243.2,300h-5.7l-12.4-27.2h7.5l7.8,18.3L248.4,272.8z"/>
		<path class="st0" d="M3.4,318.7h11.1c3,0,5.6,0.5,7.8,1.6c2.2,1.1,3.8,2.6,5,4.7c1.2,2,1.7,4.5,1.7,7.3c0,2.8-0.6,5.3-1.7,7.3
			s-2.8,3.6-5,4.7c-2.2,1.1-4.8,1.6-7.8,1.6H3.4V318.7z M14.1,340.2c2.6,0,4.6-0.7,5.9-2c1.3-1.3,2-3.3,2-5.9c0-5.2-2.6-7.8-7.9-7.8
			h-3.4v15.7H14.1z"/>
		<path class="st0" d="M53.2,345.9l-2.4-5.6H38.8l-2.4,5.6h-7.2l12.7-27.2h5.7l12.8,27.2H53.2z M41.1,334.9h7.4l-3.7-8.6L41.1,334.9
			z"/>
		<path class="st0" d="M83.7,318.7l-11.5,16.8v10.4H65v-10.4l-11.4-16.8h8.1l6.9,10.9l7-10.9H83.7z"/>
		<path class="st0" d="M86.7,345.4c-2-0.5-3.6-1.3-4.9-2.2l2.3-5.1c1.3,0.8,2.7,1.5,4.2,1.9c1.5,0.4,3,0.7,4.5,0.7
			c1.5,0,2.7-0.2,3.5-0.6c0.8-0.4,1.2-1,1.2-1.8c0-0.7-0.4-1.3-1.1-1.7c-0.7-0.4-2.1-0.9-4.2-1.3c-2.6-0.5-4.6-1.1-6-1.9
			c-1.4-0.8-2.4-1.6-3-2.7c-0.6-1-0.9-2.3-0.9-3.7c0-1.7,0.5-3.2,1.4-4.5c0.9-1.3,2.3-2.4,4-3.1s3.7-1.1,5.8-1.1
			c2,0,3.9,0.3,5.7,0.8c1.8,0.5,3.3,1.3,4.3,2.2l-2.2,5.1c-1.2-0.8-2.5-1.5-3.8-1.9c-1.3-0.4-2.6-0.7-4-0.7c-1.3,0-2.3,0.2-3.1,0.7
			c-0.8,0.5-1.2,1.2-1.2,2c0,0.5,0.1,0.8,0.4,1.1c0.3,0.3,0.8,0.6,1.6,0.9c0.8,0.3,1.9,0.6,3.4,0.9c2.5,0.5,4.4,1.2,5.8,1.9
			s2.4,1.6,3,2.6s0.9,2.2,0.9,3.6c0,2.6-1,4.7-3.1,6.2s-5,2.3-8.7,2.3C90.7,346.2,88.7,346,86.7,345.4z"/>
		<path class="st0" d="M119.5,345.9v-27.2h3.1v24.5h13.6v2.7H119.5z"/>
		<path class="st0" d="M140.3,345.9v-27.2h3.1v27.2H140.3z"/>
		<path class="st0" d="M148.6,342.8l1.2-2.4c1.4,1.1,2.7,2,4.1,2.4c1.4,0.5,3,0.7,4.9,0.7c2.2,0,3.9-0.4,5.1-1.3s1.8-2.1,1.8-3.6
			c0-0.9-0.3-1.7-0.9-2.2c-0.6-0.6-1.3-1-2.3-1.4c-0.9-0.3-2.2-0.7-3.7-1c-2.1-0.5-3.8-1-5.2-1.5c-1.4-0.5-2.4-1.3-3.3-2.3
			s-1.3-2.3-1.3-4c0-1.6,0.4-2.9,1.2-4.1c0.8-1.2,2-2.1,3.5-2.8s3.2-1,5.2-1c1.9,0,3.6,0.3,5.3,0.9c1.6,0.6,3,1.4,4.1,2.6l-1.2,2.4
			c-1.3-1.1-2.6-1.9-3.9-2.4c-1.3-0.5-2.7-0.8-4.3-0.8c-2.1,0-3.8,0.5-5,1.4c-1.2,0.9-1.8,2.1-1.8,3.7c0,1.4,0.5,2.4,1.6,3.1
			s2.6,1.3,4.8,1.8c2.3,0.6,4.2,1.1,5.5,1.5c1.3,0.5,2.5,1.2,3.3,2.1s1.3,2.2,1.3,3.8c0,1.5-0.4,2.9-1.2,4c-0.8,1.2-2,2.1-3.5,2.7
			s-3.3,1-5.3,1C154.5,346.2,151.1,345.1,148.6,342.8z"/>
		<path class="st0" d="M193,334.3c0.9,1.1,1.3,2.5,1.3,4.2c0,2.4-0.8,4.2-2.4,5.5c-1.6,1.3-3.8,1.9-6.7,1.9H174v-27.2h10.9
			c2.8,0,4.9,0.6,6.5,1.9c1.5,1.2,2.3,3,2.3,5.3c0,1.5-0.4,2.7-1.1,3.8c-0.8,1.1-1.8,1.8-3.2,2.4C190.9,332.3,192.2,333.1,193,334.3
			z M177.1,330.8h7.3c2,0,3.6-0.4,4.6-1.2c1-0.8,1.6-2,1.6-3.6c0-3.1-2.1-4.7-6.2-4.7h-7.3V330.8z M189.7,342.1c1-0.8,1.5-2,1.5-3.7
			c0-3.3-2.1-5-6.2-5h-7.9v9.9h7.9C187.1,343.3,188.7,342.9,189.7,342.1z"/>
		<path class="st0" d="M204.8,344.5c-1.9-1.1-3.3-2.7-4.3-4.8c-1-2.1-1.5-4.6-1.5-7.4c0-2.9,0.5-5.3,1.5-7.4c1-2.1,2.4-3.7,4.3-4.8
			c1.9-1.1,4.1-1.7,6.6-1.7c2.5,0,4.8,0.6,6.6,1.7c1.9,1.1,3.3,2.7,4.3,4.8c1,2.1,1.5,4.5,1.5,7.4c0,2.9-0.5,5.3-1.5,7.4
			c-1,2.1-2.4,3.7-4.3,4.8c-1.9,1.1-4.1,1.7-6.6,1.7C208.8,346.2,206.7,345.6,204.8,344.5z M218.1,340.6c1.6-2,2.4-4.7,2.4-8.3
			s-0.8-6.4-2.4-8.3c-1.6-1.9-3.8-2.9-6.7-2.9s-5.2,1-6.8,2.9c-1.6,1.9-2.4,4.7-2.4,8.3c0,3.6,0.8,6.4,2.4,8.3
			c1.6,2,3.9,2.9,6.8,2.9C214.2,343.5,216.5,342.6,218.1,340.6z"/>
		<path class="st0" d="M248.3,318.7h3v27.2h-2.4L232.4,324v21.9h-2.9v-27.2h2.4l16.4,21.9V318.7z"/>
		<path class="st0" d="M21.7,389.1v2.6H4.2v-2.4l9.5-10.5c1.3-1.4,2.2-2.7,2.8-3.9s0.9-2.3,0.9-3.4c0-1.5-0.4-2.7-1.3-3.5
			c-0.9-0.8-2.1-1.2-3.7-1.2c-2.6,0-5.2,1-7.7,3.1l-1.2-2.4c1.1-1,2.4-1.8,4.1-2.4c1.6-0.6,3.3-0.9,4.9-0.9c2.5,0,4.5,0.6,5.9,1.9
			c1.5,1.3,2.2,3,2.2,5.2c0,1.6-0.4,3.1-1.1,4.5c-0.7,1.4-1.9,3.1-3.5,4.8l-7.8,8.4H21.7z"/>
		<path class="st0" d="M28.3,388.5c-1.6-2.4-2.4-5.8-2.4-10.4c0-4.6,0.8-8,2.4-10.4c1.6-2.4,4-3.5,7.1-3.5s5.5,1.2,7.1,3.5
			c1.6,2.4,2.4,5.8,2.4,10.3c0,4.6-0.8,8-2.4,10.4s-4,3.6-7.1,3.6S29.9,390.9,28.3,388.5z M40.2,386.7c1-1.8,1.5-4.7,1.5-8.6
			c0-3.8-0.5-6.7-1.5-8.5c-1-1.8-2.6-2.7-4.8-2.7c-2.2,0-3.8,0.9-4.8,2.7c-1,1.8-1.5,4.6-1.5,8.5c0,3.8,0.5,6.7,1.5,8.5
			c1,1.8,2.6,2.8,4.8,2.8C37.6,389.4,39.2,388.5,40.2,386.7z"/>
		<path class="st0" d="M60.9,389.1h6v2.6H51.7v-2.6h6v-20.7l-5.6,3.6v-3l7-4.4h1.8V389.1z"/>
		<path class="st0" d="M89.5,380.3c1,1.2,1.5,2.6,1.5,4.3c0,2.3-0.9,4.1-2.6,5.5c-1.8,1.3-4.1,2-7.1,2c-3,0-5.3-0.7-7.1-2
			c-1.8-1.3-2.6-3.2-2.6-5.5c0-1.7,0.5-3.1,1.5-4.3c1-1.2,2.4-2,4.1-2.5c-1.6-0.5-2.9-1.3-3.7-2.4c-0.9-1.1-1.3-2.4-1.3-3.9
			c0-1.5,0.4-2.7,1.1-3.8c0.8-1.1,1.8-1.9,3.2-2.5c1.4-0.6,3-0.9,4.8-0.9s3.4,0.3,4.8,0.9c1.4,0.6,2.5,1.4,3.2,2.5
			c0.8,1.1,1.1,2.3,1.1,3.8c0,1.5-0.4,2.8-1.3,3.9c-0.9,1.1-2.1,1.9-3.7,2.4C87.2,378.3,88.5,379.1,89.5,380.3z M86.2,388.1
			c1.1-0.9,1.7-2.1,1.7-3.8c0-1.5-0.6-2.7-1.8-3.6c-1.2-0.9-2.8-1.5-4.8-1.7c-2,0.2-3.6,0.8-4.8,1.7s-1.8,2.1-1.8,3.6
			c0,1.7,0.6,2.9,1.7,3.8c1.1,0.9,2.8,1.3,4.9,1.3C83.4,389.4,85,389,86.2,388.1z M76.9,375.2c1.1,0.9,2.5,1.5,4.4,1.7
			c1.8-0.2,3.3-0.8,4.4-1.7s1.6-2.1,1.6-3.5c0-1.5-0.5-2.7-1.6-3.6c-1.1-0.9-2.5-1.3-4.4-1.3c-1.9,0-3.4,0.4-4.4,1.3
			c-1.1,0.9-1.6,2.1-1.6,3.6C75.2,373.1,75.8,374.3,76.9,375.2z"/>
	</g>
	<g>
		<rect x="0.5" y="0.5" class="st0" width="85" height="85"/>
		<path class="st1" d="M85,1v84H1V1H85 M86,0h-1H1H0v1v84v1h1h84h1v-1V1V0L86,0z"/>
	</g>
	<g>
		<rect x="84.5" y="0.5" class="st0" width="85" height="85"/>
		<path class="st1" d="M169,1v84H85V1H169 M170,0h-1H85h-1v1v84v1h1h84h1v-1V1V0L170,0z"/>
	</g>
	<g>
		<rect x="168.5" y="0.5" class="st0" width="85" height="85"/>
		<path class="st1" d="M253,1v84h-84V1H253 M254,0h-1h-84h-1v1v84v1h1h84h1v-1V1V0L254,0z"/>
	</g>
	<g>
		<rect x="0.5" y="84.5" class="st0" width="85" height="85"/>
		<path class="st1" d="M85,85v84H1V85H85 M86,84h-1H1H0v1v84v1h1h84h1v-1V85V84L86,84z"/>
	</g>
	<g>
		<rect x="84.5" y="84.5" class="st0" width="85" height="85"/>
		<path class="st1" d="M169,85v84H85V85H169 M170,84h-1H85h-1v1v84v1h1h84h1v-1V85V84L170,84z"/>
	</g>
	<g>
		<rect x="168.5" y="84.5" class="st0" width="85" height="85"/>
		<path class="st1" d="M253,85v84h-84V85H253 M254,84h-1h-84h-1v1v84v1h1h84h1v-1V85V84L254,84z"/>
	</g>
	<g>
		<rect x="0.5" y="168.5" class="st0" width="85" height="85"/>
		<path class="st1" d="M85,169v84H1v-84H85 M86,168h-1H1H0v1v84v1h1h84h1v-1v-84V168L86,168z"/>
	</g>
	<g>
		<rect x="84.5" y="168.5" class="st0" width="85" height="85"/>
		<path class="st1" d="M169,169v84H85v-84H169 M170,168h-1H85h-1v1v84v1h1h84h1v-1v-84V168L170,168z"/>
	</g>
	<g>
		<rect x="168.5" y="168.5" class="st0" width="85" height="85"/>
		<path class="st1" d="M253,169v84h-84v-84H253 M254,168h-1h-84h-1v1v84v1h1h84h1v-1v-84V168L254,168z"/>
	</g>
	<g>
		<path class="st1" d="M55.3,185.3l-17.1-1l3.5,17.1l4.4,1.7c3.7,1.5,6.4,4.8,6.9,8.8l1.2,9h-5.1v5.6c2.8,1.9,6.2,3.1,9.8,3.1
			c4.4,0,8.4-1.7,11.5-4.4c3.3-2.9,8.1-2.9,11.4,0c3,2.7,7.1,4.4,11.5,4.4c4.4,0,8.4-1.7,11.5-4.4c3.3-2.9,8.1-2.9,11.4,0
			c3,2.7,7.1,4.4,11.5,4.4c4.4,0,8.4-1.7,11.5-4.4c3.3-2.9,8.1-2.9,11.4,0c3,2.7,7.1,4.4,11.5,4.4s8.4-1.7,11.5-4.4
			c3.3-2.9,8.1-2.9,11.4,0c3,2.7,7.1,4.4,11.5,4.4c4.4,0,8.4-1.7,11.5-4.4c2.1-1.9,4.8-2.5,7.3-2.1c5.7-6.8,11-15.2,12.3-24
			l3.3-20.3h-5l-5.8,12.5c0,0-32.8,9.1-73,12.8v-30h77c-17.9-32.5-47.9-65.9-77-85.5v-48h-4.6v3.9h-22.7l5.8,7.2l-5.8,7.2h22.7v26.6
			c-39.8-25.9-76.5-44.4-76.5-44.4v65.8C56.2,99.8,19,72.4,19,72.4v101.7h36.3V185.3z M59.4,174.1h6.5h61.9h14.6v30.4
			c-0.7,0.1-1.3,0.1-2,0.2c0,0-44.2,6.1-49-17.2l-32.1-1.8V174.1z"/>
		<path class="st1" d="M207.8,230.1c-3,2.7-7.1,4.4-11.5,4.4c-4.4,0-8.4-1.7-11.5-4.4c-3.3-2.9-8.1-2.9-11.4,0
			c-3,2.7-7.1,4.4-11.5,4.4s-8.4-1.7-11.5-4.4c-3.3-2.9-8.1-2.9-11.4,0c-3,2.7-7.1,4.4-11.5,4.4c-4.4,0-8.4-1.7-11.5-4.4
			c-3.3-2.9-8.1-2.9-11.4,0c-3,2.7-7.1,4.4-11.5,4.4c-4.4,0-8.4-1.7-11.5-4.4c-3.3-2.9-8.1-2.9-11.4,0c-3,2.7-7.1,4.4-11.5,4.4
			s-8.4-1.7-11.5-4.4c-2.7-2.4-6.5-2.8-9.5-1.3v4.9c3.1-1.6,6.8-1.2,9.5,1.3c3,2.7,7.1,4.4,11.5,4.4s8.4-1.7,11.5-4.4
			c3.3-2.9,8.1-2.9,11.4,0c3,2.7,7.1,4.4,11.5,4.4c4.4,0,8.4-1.7,11.5-4.4c3.3-2.9,8.1-2.9,11.4,0c3,2.7,7.1,4.4,11.5,4.4
			c4.4,0,8.4-1.7,11.5-4.4c3.3-2.9,8.1-2.9,11.4,0c3,2.7,7.1,4.4,11.5,4.4s8.4-1.7,11.5-4.4c3.3-2.9,8.1-2.9,11.4,0
			c3,2.7,7.1,4.4,11.5,4.4c4.4,0,8.4-1.7,11.5-4.4c3.3-2.9,8.1-2.9,11.4,0c3,2.7,7.1,4.4,11.5,4.4v-4.9c-4.4,0-8.4-1.7-11.5-4.4
			C216,227.2,211.1,227.2,207.8,230.1z"/>
	</g>
	<path class="st0" d="M150.9,135.2c0,13.2-10.7,24-24,24s-24-10.7-24-24c0-23.3,24-43.5,24-43.5S150.9,111.9,150.9,135.2z"/>
	<path class="st1" d="M226.8,47.6l-0.1,0c-1.5-0.6-3.2-0.5-4.7,0.2l-2,0.9c-3.2-6.6-15.1-31.3-15.1-31.3l-3.4,15.8
		c-1.5,6.8,0,13.8,4,19.4l2.9,2.6l-2.2,1.2L192,59.7l2.4,0.8l7.6-0.4c1.4-0.1,2.8,0.3,4,1.1c1.7,1.2,3.9,1.5,5.8,0.7l5.5-2.1
		c1-0.4,1.9-1,2.6-1.9l5.1-6.2c1.3-1.6,3-2.7,4.9-3.3l0.9-0.3L226.8,47.6z"/>
</g>
</svg>
