<?xml version="1.0" encoding="utf-8"?>
<!-- Generator: Adobe Illustrator 21.0.0, SVG Export Plug-In . SVG Version: 6.00 Build 0)  -->
<svg version="1.1" id="Layer_1" xmlns="http://www.w3.org/2000/svg" xmlns:xlink="http://www.w3.org/1999/xlink" x="0px" y="0px"
	 width="275px" height="276px" viewBox="0 0 275 276" style="enable-background:new 0 0 275 276;" xml:space="preserve">
<style type="text/css">
	.st0{fill:#FFFFFF;}
</style>
<g>
	<polygon class="st0" points="76.9,176.2 84.5,168.6 76.9,168.6 	"/>
	<polygon class="st0" points="69.3,168.6 69.3,176.2 76.9,168.6 	"/>
	<polygon class="st0" points="61.6,168.6 61.6,176.2 69.3,168.6 	"/>
	<polygon class="st0" points="54,168.6 54,176.2 61.6,168.6 	"/>
	<polygon class="st0" points="76.9,168.6 84.5,160.9 76.9,160.9 	"/>
	<polygon class="st0" points="69.3,168.6 76.9,160.9 69.3,160.9 	"/>
	<polygon class="st0" points="61.6,160.9 61.6,168.6 69.3,160.9 	"/>
	<polygon class="st0" points="54,160.9 54,168.6 61.6,160.9 	"/>
	<polygon class="st0" points="76.9,160.9 84.5,153.3 76.9,153.3 	"/>
	<polygon class="st0" points="69.3,160.9 76.9,153.3 69.3,153.3 	"/>
	<polygon class="st0" points="61.6,153.3 61.6,160.9 69.3,153.3 	"/>
	<polygon class="st0" points="54,153.3 54,160.9 61.6,153.3 	"/>
	<polygon class="st0" points="76.9,153.3 84.5,145.7 76.9,145.7 	"/>
	<polygon class="st0" points="76.9,145.7 69.3,145.7 69.3,153.3 	"/>
	<polygon class="st0" points="69.3,145.7 61.6,145.7 61.6,153.3 	"/>
	<polygon class="st0" points="54,145.7 54,153.3 61.6,145.7 	"/>
	<polygon class="st0" points="199.1,99.8 191.5,107.5 199.1,107.5 	"/>
	<polygon class="st0" points="206.8,107.5 206.8,99.8 199.1,107.5 	"/>
	<polygon class="st0" points="214.4,107.5 214.4,99.8 206.8,107.5 	"/>
	<polygon class="st0" points="214.4,107.5 222,107.5 222,99.8 	"/>
	<polygon class="st0" points="199.1,107.5 191.5,115.1 199.1,115.1 	"/>
	<polygon class="st0" points="206.8,107.5 199.1,115.1 206.8,115.1 	"/>
	<polygon class="st0" points="214.4,115.1 214.4,107.5 206.8,115.1 	"/>
	<polygon class="st0" points="222,115.1 222,107.5 214.4,115.1 	"/>
	<polygon class="st0" points="199.1,115.1 191.5,122.7 199.1,122.7 	"/>
	<polygon class="st0" points="199.1,122.7 206.8,122.7 206.8,115.1 	"/>
	<polygon class="st0" points="214.4,122.7 214.4,115.1 206.8,122.7 	"/>
	<polygon class="st0" points="222,122.7 222,115.1 214.4,122.7 	"/>
	<polygon class="st0" points="191.5,130.4 199.1,130.4 199.1,122.7 	"/>
	<polygon class="st0" points="199.1,130.4 206.8,130.4 206.8,122.7 	"/>
	<polygon class="st0" points="206.8,130.4 214.4,130.4 214.4,122.7 	"/>
	<polygon class="st0" points="222,130.4 222,122.7 214.4,130.4 	"/>
	<path class="st0" d="M59.5,213.1l-2.4-0.1l0.5,2.4l0.6,0.2c0.5,0.2,0.9,0.7,1,1.2l0.2,1.3h-0.7v0.8c0.4,0.3,0.9,0.4,1.4,0.4
		c0.6,0,1.2-0.2,1.6-0.6c0.5-0.4,1.1-0.4,1.6,0c0.4,0.4,1,0.6,1.6,0.6s1.2-0.2,1.6-0.6c0.5-0.4,1.1-0.4,1.6,0c0.4,0.4,1,0.6,1.6,0.6
		s1.2-0.2,1.6-0.6c0.5-0.4,1.1-0.4,1.6,0c0.4,0.4,1,0.6,1.6,0.6c0.6,0,1.2-0.2,1.6-0.6c0.5-0.4,1.1-0.4,1.6,0c0.4,0.4,1,0.6,1.6,0.6
		c0.6,0,1.2-0.2,1.6-0.6c0.3-0.3,0.7-0.4,1-0.3c0.8-1,1.5-2.1,1.7-3.4l0.5-2.8h-0.7l-0.8,1.7c0,0-4.6,1.3-10.2,1.8v-4.2h10.8
		c-2.5-4.5-6.7-9.2-10.8-11.9v-6.7h-0.6v0.5h-3.2l0.8,1l-0.8,1h3.2v3.7C66.2,195.5,61,193,61,193v9.2c-1.3-1-6.5-4.8-6.5-4.8v14.2
		h5.1V213.1z M60.1,211.5H61h8.6h2v4.2c-0.1,0-0.2,0-0.3,0c0,0-6.2,0.9-6.8-2.4l-4.5-0.3V211.5z"/>
	<path class="st0" d="M80.8,219.3c-0.4,0.4-1,0.6-1.6,0.6c-0.6,0-1.2-0.2-1.6-0.6c-0.5-0.4-1.1-0.4-1.6,0c-0.4,0.4-1,0.6-1.6,0.6
		c-0.6,0-1.2-0.2-1.6-0.6c-0.5-0.4-1.1-0.4-1.6,0c-0.4,0.4-1,0.6-1.6,0.6s-1.2-0.2-1.6-0.6c-0.5-0.4-1.1-0.4-1.6,0
		c-0.4,0.4-1,0.6-1.6,0.6s-1.2-0.2-1.6-0.6c-0.5-0.4-1.1-0.4-1.6,0c-0.4,0.4-1,0.6-1.6,0.6s-1.2-0.2-1.6-0.6
		c-0.4-0.3-0.9-0.4-1.3-0.2v0.7c0.4-0.2,1-0.2,1.3,0.2c0.4,0.4,1,0.6,1.6,0.6s1.2-0.2,1.6-0.6c0.5-0.4,1.1-0.4,1.6,0
		c0.4,0.4,1,0.6,1.6,0.6s1.2-0.2,1.6-0.6c0.5-0.4,1.1-0.4,1.6,0c0.4,0.4,1,0.6,1.6,0.6s1.2-0.2,1.6-0.6c0.5-0.4,1.1-0.4,1.6,0
		c0.4,0.4,1,0.6,1.6,0.6c0.6,0,1.2-0.2,1.6-0.6c0.5-0.4,1.1-0.4,1.6,0c0.4,0.4,1,0.6,1.6,0.6c0.6,0,1.2-0.2,1.6-0.6
		c0.5-0.4,1.1-0.4,1.6,0c0.4,0.4,1,0.6,1.6,0.6V220c-0.6,0-1.2-0.2-1.6-0.6C82,218.9,81.3,218.9,80.8,219.3z"/>
	<path class="st0" d="M197,75.6l-2.4-0.1l0.5,2.4l0.6,0.2c0.5,0.2,0.9,0.7,1,1.2l0.2,1.3h-0.7v0.8c0.4,0.3,0.9,0.4,1.4,0.4
		c0.6,0,1.2-0.2,1.6-0.6c0.5-0.4,1.1-0.4,1.6,0c0.4,0.4,1,0.6,1.6,0.6s1.2-0.2,1.6-0.6c0.5-0.4,1.1-0.4,1.6,0c0.4,0.4,1,0.6,1.6,0.6
		s1.2-0.2,1.6-0.6c0.5-0.4,1.1-0.4,1.6,0c0.4,0.4,1,0.6,1.6,0.6c0.6,0,1.2-0.2,1.6-0.6c0.5-0.4,1.1-0.4,1.6,0c0.4,0.4,1,0.6,1.6,0.6
		c0.6,0,1.2-0.2,1.6-0.6c0.3-0.3,0.7-0.4,1-0.3c0.8-1,1.5-2.1,1.7-3.4l0.5-2.8h-0.7l-0.8,1.7c0,0-4.6,1.3-10.2,1.8V74h10.8
		c-2.5-4.5-6.7-9.2-10.8-11.9v-6.7h-0.6v0.5H206l0.8,1l-0.8,1h3.2v3.7c-5.6-3.6-10.7-6.2-10.7-6.2v9.2c-1.3-1-6.5-4.8-6.5-4.8V74
		h5.1V75.6z M197.6,74h0.9h8.6h2v4.2c-0.1,0-0.2,0-0.3,0c0,0-6.2,0.9-6.8-2.4l-4.5-0.3V74z"/>
	<path class="st0" d="M218.3,81.8c-0.4,0.4-1,0.6-1.6,0.6c-0.6,0-1.2-0.2-1.6-0.6c-0.5-0.4-1.1-0.4-1.6,0c-0.4,0.4-1,0.6-1.6,0.6
		c-0.6,0-1.2-0.2-1.6-0.6c-0.5-0.4-1.1-0.4-1.6,0c-0.4,0.4-1,0.6-1.6,0.6s-1.2-0.2-1.6-0.6c-0.5-0.4-1.1-0.4-1.6,0
		c-0.4,0.4-1,0.6-1.6,0.6s-1.2-0.2-1.6-0.6c-0.5-0.4-1.1-0.4-1.6,0c-0.4,0.4-1,0.6-1.6,0.6s-1.2-0.2-1.6-0.6
		c-0.4-0.3-0.9-0.4-1.3-0.2v0.7c0.4-0.2,1-0.2,1.3,0.2c0.4,0.4,1,0.6,1.6,0.6s1.2-0.2,1.6-0.6c0.5-0.4,1.1-0.4,1.6,0
		c0.4,0.4,1,0.6,1.6,0.6s1.2-0.2,1.6-0.6c0.5-0.4,1.1-0.4,1.6,0c0.4,0.4,1,0.6,1.6,0.6s1.2-0.2,1.6-0.6c0.5-0.4,1.1-0.4,1.6,0
		c0.4,0.4,1,0.6,1.6,0.6c0.6,0,1.2-0.2,1.6-0.6c0.5-0.4,1.1-0.4,1.6,0c0.4,0.4,1,0.6,1.6,0.6c0.6,0,1.2-0.2,1.6-0.6
		c0.5-0.4,1.1-0.4,1.6,0c0.4,0.4,1,0.6,1.6,0.6v-0.7c-0.6,0-1.2-0.2-1.6-0.6C219.5,81.4,218.8,81.4,218.3,81.8z"/>
	<polygon class="st0" points="107.4,131.6 112.6,124.4 112.9,121 110.1,123.3 	"/>
	<polygon class="st0" points="129.8,100.3 117.7,110.3 117.1,113.1 119.9,112.5 	"/>
	<polygon class="st0" points="116.7,109.7 115.2,95.9 113.6,109.7 115.2,112.1 	"/>
	<polygon class="st0" points="116.5,115 115.2,113.6 113.9,115 115.2,116.3 	"/>
	<polygon class="st0" points="121.6,112.5 125.6,112.5 132,108.1 124.7,109.7 	"/>
	<polygon class="st0" points="112.9,108.9 112.6,105.4 107.4,98.2 110.1,106.5 	"/>
	<polygon class="st0" points="113.4,113.1 112.7,110.3 100.6,100.4 110.6,112.5 	"/>
	<polygon class="st0" points="112.4,115 110,113.4 96.2,114.9 110,116.4 	"/>
	<polygon class="st0" points="109.1,112.4 106,109.7 98.8,108 105.1,112.4 	"/>
	<polygon class="st0" points="109.4,117.5 105.4,117.5 99.1,121.8 106.4,120.2 	"/>
	<polygon class="st0" points="101,129.5 113,119.5 113.6,116.7 110.9,117.3 	"/>
	<polygon class="st0" points="116.6,116.4 117.2,119.2 129.4,129.1 119.4,117.1 	"/>
	<polygon class="st0" points="117.8,115 120.2,116.4 134,114.9 120.2,113.4 	"/>
	<polygon class="st0" points="121.4,117.3 124.5,120.1 131.8,121.7 125.5,117.3 	"/>
	<polygon class="st0" points="117.7,121 118,124.4 123.1,131.6 120.4,123.3 	"/>
	<polygon class="st0" points="113.6,120.5 115.2,134.3 116.7,120.5 115.2,118.1 	"/>
	<polygon class="st0" points="123.1,98.2 118,105.4 117.7,108.9 120.4,106.5 	"/>
	<polygon class="st0" points="248.1,112.5 250.9,113.1 250.2,110.3 238.1,100.4 	"/>
	<polygon class="st0" points="255.5,124.4 260.6,131.6 257.9,123.3 255.2,121 	"/>
	<polygon class="st0" points="250.1,105.4 244.9,98.2 247.6,106.5 250.4,108.9 	"/>
	<polygon class="st0" points="250.1,124.4 250.4,121 247.6,123.3 244.9,131.6 	"/>
	<polygon class="st0" points="251.4,115 252.7,116.3 254,115 252.7,113.6 	"/>
	<polygon class="st0" points="254.2,120.5 252.7,118.1 251.1,120.5 252.7,134.3 	"/>
	<polygon class="st0" points="257.4,112.5 267.3,100.3 255.2,110.3 254.6,113.1 	"/>
	<polygon class="st0" points="246.9,117.5 242.9,117.5 236.6,121.8 243.9,120.2 	"/>
	<polygon class="st0" points="257.7,113.4 255.3,115 257.7,116.4 271.5,114.9 	"/>
	<polygon class="st0" points="263.1,112.5 269.5,108.1 262.2,109.7 259.1,112.5 	"/>
	<polygon class="st0" points="260.6,98.2 255.5,105.4 255.2,108.9 257.9,106.5 	"/>
	<polygon class="st0" points="263,117.3 258.9,117.3 262,120.1 269.3,121.7 	"/>
	<polygon class="st0" points="251.1,116.7 248.4,117.3 238.5,129.5 250.5,119.5 	"/>
	<polygon class="st0" points="256.9,117.1 254.1,116.4 254.7,119.2 266.9,129.1 	"/>
	<polygon class="st0" points="252.7,95.9 251.1,109.7 252.7,112.1 254.2,109.7 	"/>
	<polygon class="st0" points="242.6,112.4 246.6,112.4 243.5,109.7 236.3,108 	"/>
	<polygon class="st0" points="247.5,116.4 249.9,115 247.5,113.4 233.7,114.9 	"/>
	<path class="st0" d="M84.9,108.2c0-0.6-0.1-1.2-0.3-1.7l-2.5-1.6c-0.5,1.9-1.4,3.4-3.6,3.4h-2.3v-2.3c0-2.2,1.4-3,3.4-3.6l-1.6-2.5
		c-0.5-0.2-1.1-0.3-1.7-0.3c-3.9,0-5.7,2.7-5.7,6.4v8.1h8.1C82.2,113.9,84.9,112.1,84.9,108.2z"/>
	<path class="st0" d="M53.7,122c0,0.6,0.1,1.2,0.3,1.7l2.5,1.6c0.5-1.9,1.4-3.4,3.6-3.4h2.3v2.3c0,2.2-1.4,3-3.4,3.6l1.6,2.5
		c0.5,0.2,1.1,0.3,1.7,0.3c3.9,0,5.7-2.7,5.7-6.4v-8h-8C56.4,116.3,53.7,118.1,53.7,122z"/>
	<path class="st0" d="M76.2,130.7c0.6,0,1.2-0.1,1.7-0.3l1.6-2.5c-1.9-0.5-3.4-1.4-3.4-3.6V122h2.3c2.2,0,3,1.4,3.6,3.4l2.5-1.6
		c0.2-0.5,0.3-1.1,0.3-1.7c0-3.9-2.7-5.7-6.4-5.7h-8v8.1C70.5,128.1,72.3,130.7,76.2,130.7z"/>
	<path class="st0" d="M60,113.9h8.1v-8c0-3.7-1.8-6.4-5.7-6.4c-0.6,0-1.2,0.1-1.7,0.3l-1.6,2.5c1.9,0.5,3.4,1.4,3.4,3.6v2.3h-2.3
		c-2.2,0-3-1.4-3.6-3.4l-2.5,1.6c-0.2,0.5-0.3,1.1-0.3,1.7C53.6,112.1,56.3,113.9,60,113.9z"/>
	<path class="st0" d="M191.2,167.9c0,0.6,0.1,1.2,0.3,1.7l2.5,1.6c0.5-1.9,1.4-3.4,3.6-3.4h2.3v2.3c0,2.2-1.4,3-3.4,3.6l1.6,2.5
		c0.5,0.2,1.1,0.3,1.7,0.3c3.9,0,5.7-2.7,5.7-6.4v-8h-8C193.9,162.1,191.2,164,191.2,167.9z"/>
	<path class="st0" d="M213.7,176.6c0.6,0,1.2-0.1,1.7-0.3l1.6-2.5c-1.9-0.5-3.4-1.4-3.4-3.6v-2.3h2.3c2.2,0,3,1.4,3.6,3.4l2.5-1.6
		c0.2-0.5,0.3-1.1,0.3-1.7c0-3.9-2.7-5.7-6.4-5.7h-8v8.1C208,173.9,209.8,176.6,213.7,176.6z"/>
	<path class="st0" d="M222.4,154c0-0.6-0.1-1.2-0.3-1.7l-2.5-1.6c-0.5,1.9-1.4,3.4-3.6,3.4h-2.3v-2.3c0-2.2,1.4-3,3.4-3.6l-1.6-2.5
		c-0.5-0.2-1.1-0.3-1.7-0.3c-3.9,0-5.7,2.7-5.7,6.4v8.1h8.1C219.7,159.7,222.4,157.9,222.4,154z"/>
	<path class="st0" d="M197.5,159.7h8.1v-8c0-3.7-1.8-6.4-5.7-6.4c-0.6,0-1.2,0.1-1.7,0.3l-1.6,2.5c1.9,0.5,3.4,1.4,3.4,3.6v2.3h-2.3
		c-2.2,0-3-1.4-3.6-3.4l-2.5,1.6c-0.2,0.5-0.3,1.1-0.3,1.7C191.1,157.9,193.8,159.7,197.5,159.7z"/>
	
		<rect x="110.2" y="64.4" transform="matrix(0.7071 -0.7071 0.7071 0.7071 -15.2655 101.6716)" class="st0" width="9.8" height="9.8"/>
	
		<rect x="120.2" y="74.4" transform="matrix(0.7071 -0.7071 0.7071 0.7071 -19.4322 111.7311)" class="st0" width="9.8" height="9.8"/>
	
		<rect x="99.8" y="74.8" transform="matrix(0.7071 -0.7071 0.7071 0.7071 -25.6718 97.3612)" class="st0" width="9.8" height="9.8"/>
	<rect x="120.6" y="54" transform="matrix(0.7071 -0.7071 0.7071 0.7071 -4.8593 105.982)" class="st0" width="9.8" height="9.8"/>
	<rect x="99.8" y="54" transform="matrix(0.7071 -0.7071 0.7071 0.7071 -10.9551 91.2654)" class="st0" width="9.8" height="9.8"/>
	
		<rect x="247.7" y="156" transform="matrix(0.7071 -0.7071 0.7071 0.7071 -39.8111 225.746)" class="st0" width="9.8" height="9.8"/>
	
		<rect x="257.7" y="166.1" transform="matrix(0.7071 -0.7071 0.7071 0.7071 -43.9778 235.8055)" class="st0" width="9.8" height="9.8"/>
	
		<rect x="237.3" y="166.4" transform="matrix(0.7071 -0.7071 0.7071 0.7071 -50.2171 221.4369)" class="st0" width="9.8" height="9.8"/>
	
		<rect x="258.1" y="145.6" transform="matrix(0.7071 -0.7071 0.7071 0.7071 -29.4046 230.0577)" class="st0" width="9.8" height="9.8"/>
	
		<rect x="237.3" y="145.6" transform="matrix(0.7071 -0.7071 0.7071 0.7071 -35.5004 215.3411)" class="st0" width="9.8" height="9.8"/>
	
		<rect x="120.6" y="191.5" transform="matrix(0.7071 -0.7071 0.7071 0.7071 -102.1051 146.2999)" class="st0" width="9.8" height="9.8"/>
	
		<rect x="110.2" y="201.9" transform="matrix(0.7071 -0.7071 0.7071 0.7071 -112.5117 141.9904)" class="st0" width="9.8" height="9.8"/>
	
		<rect x="120.3" y="212" transform="matrix(0.7071 -0.7071 0.7071 0.7071 -116.6784 152.0499)" class="st0" width="9.8" height="9.8"/>
	
		<rect x="99.8" y="212.3" transform="matrix(0.7071 -0.7071 0.7071 0.7071 -122.92 137.6862)" class="st0" width="9.8" height="9.8"/>
	
		<rect x="99.8" y="191.5" transform="matrix(0.7071 -0.7071 0.7071 0.7071 -108.2006 131.5824)" class="st0" width="9.8" height="9.8"/>
	<rect x="258.1" y="54" transform="matrix(0.7071 -0.7071 0.7071 0.7071 35.3993 203.2612)" class="st0" width="9.8" height="9.8"/>
	
		<rect x="247.7" y="64.4" transform="matrix(0.7071 -0.7071 0.7071 0.7071 24.9881 198.9427)" class="st0" width="9.8" height="9.8"/>
	
		<rect x="257.8" y="74.5" transform="matrix(0.7071 -0.7071 0.7071 0.7071 20.8213 209.0022)" class="st0" width="9.8" height="9.8"/>
	
		<rect x="237.3" y="74.8" transform="matrix(0.7071 -0.7071 0.7071 0.7071 14.583 194.6346)" class="st0" width="9.8" height="9.8"/>
	<rect x="237.3" y="54" transform="matrix(0.7071 -0.7071 0.7071 0.7071 29.2951 188.5312)" class="st0" width="9.8" height="9.8"/>
	<path class="st0" d="M103.3,33.3h23.6l-2.3-10c1.9-2.2,3.1-5.1,3.1-8.3V9.8h-5.1v5.1h0h-5V9.8h-5.1v5.1h-5.1V9.8h-5.1V15
		c0,3.2,1.2,6.1,3.1,8.3L103.3,33.3z M112.6,19.9h5.1v7.6h-5.1V19.9z"/>
	<polygon class="st0" points="127.3,35.2 102.9,35.2 102.4,37.1 127.7,37.1 	"/>
	<path class="st0" d="M265.2,238.9h-5.1v5.1h0h-5v-5.1h-5.1v5.1H245v-5.1h-5.1v5.3c0,3.2,1.2,6.1,3.1,8.3l-2.3,10h23.6l-2.3-10
		c1.9-2.2,3.1-5.1,3.1-8.3V238.9z M255.1,256.6h-5.1V249h5.1V256.6z"/>
	<polygon class="st0" points="239.9,266.3 265.2,266.3 264.8,264.4 240.4,264.4 	"/>
	<polygon class="st0" points="97,161 115.1,161 97,146.7 	"/>
	<polygon class="st0" points="115.1,175.1 115.1,161 97,175.1 	"/>
	<polygon class="st0" points="115.1,146.7 115.1,161 133.1,146.7 	"/>
	<polygon class="st0" points="133.1,161 115.1,161 133.1,175.1 	"/>
	<path class="st0" d="M62,255.6l-4.8,9l9-4.8l3,9.7l3-9.7l9,4.8l-4.8-9l9.8-3l-9.8-3l4.8-9l-9,4.7l-3-9.8l-3,9.8l-9-4.7l4.8,9
		l-9.8,3L62,255.6z M58.5,241.9l8,4.3l2.7-8.7l2.7,8.7l8-4.3l-4.2,8.1l8.7,2.7l-8.7,2.7l4.2,8l-8-4.3l-2.7,8.7l-2.7-8.7l-8,4.3
		l4.2-8l-8.7-2.7l8.7-2.7L58.5,241.9z"/>
	<polygon class="st0" points="78.6,243.2 69.3,252.6 74.8,250.3 	"/>
	<polygon class="st0" points="60,243.4 69.3,252.6 67,247.2 	"/>
	<polygon class="st0" points="56,252.6 69.3,252.6 63.7,250.3 	"/>
	<polygon class="st0" points="69.3,239.4 69.3,252.6 71.6,246.9 	"/>
	<polygon class="st0" points="78.6,261.8 69.3,252.6 71.6,258.2 	"/>
	<polygon class="st0" points="82.5,252.6 69.3,252.6 74.8,254.9 	"/>
	<polygon class="st0" points="69.3,265.9 69.3,252.6 67,258.2 	"/>
	<polygon class="st0" points="59.8,262.1 69.3,252.6 63.7,255 	"/>
	<polygon class="st0" points="206.8,10.2 206.8,23.4 209.1,17.8 	"/>
	<polygon class="st0" points="206.8,36.7 206.8,23.5 204.5,29 	"/>
	<path class="st0" d="M199.5,26.4l-4.8,9l9-4.8l3,9.7l3-9.7l9,4.8l-4.8-9l9.8-3l-9.8-3l4.8-9l-9,4.7l-3-9.8l-3,9.8l-9-4.7l4.8,9
		l-9.8,3L199.5,26.4z M196,12.7l8,4.3l2.7-8.7l2.7,8.7l8-4.3l-4.2,8.1l8.7,2.7l-8.7,2.7l4.2,8l-8-4.3l-2.7,8.7l-2.7-8.7l-8,4.3
		l4.2-8l-8.7-2.7l8.7-2.7L196,12.7z"/>
	<polygon class="st0" points="216.1,32.6 206.8,23.5 209.1,29.1 	"/>
	<polygon class="st0" points="197.3,32.9 206.8,23.5 201.2,25.8 	"/>
	<polygon class="st0" points="220,23.5 206.8,23.5 212.3,25.8 	"/>
	<polygon class="st0" points="197.5,14.2 206.8,23.5 204.5,18 	"/>
	<polygon class="st0" points="193.5,23.5 206.8,23.5 201.2,21.1 	"/>
	<polygon class="st0" points="216.1,14.1 206.8,23.5 212.3,21.1 	"/>
	<polygon class="st0" points="13.4,105.3 13.4,115.3 23.5,105.3 	"/>
	<polygon class="st0" points="13.4,125.3 23.5,125.3 13.4,115.3 	"/>
	<polygon class="st0" points="33.5,125.3 33.5,115.3 23.5,125.3 	"/>
	<polygon class="st0" points="33.5,115.3 33.5,105.3 23.5,105.3 	"/>
	<polygon class="st0" points="38.5,100.2 28.5,100.2 38.5,110.3 	"/>
	<polygon class="st0" points="28.5,95.2 18.5,95.2 23.5,100.2 	"/>
	<polygon class="st0" points="43.5,120.3 43.5,110.3 38.5,115.3 	"/>
	<polygon class="st0" points="18.5,135.3 28.5,135.3 23.5,130.3 	"/>
	<polygon class="st0" points="3.4,110.3 3.4,120.3 8.4,115.3 	"/>
	<polygon class="st0" points="43.5,95.2 33.5,95.2 43.5,105.3 	"/>
	<polygon class="st0" points="8.4,130.3 18.5,130.3 8.4,120.3 	"/>
	<polygon class="st0" points="3.4,125.3 3.4,135.3 13.4,135.3 	"/>
	<polygon class="st0" points="28.5,130.3 38.5,130.3 38.5,120.3 	"/>
	<polygon class="st0" points="33.5,135.3 43.5,135.3 43.5,125.3 38.5,130.3 	"/>
	<polygon class="st0" points="8.4,110.3 18.5,100.2 8.4,100.2 	"/>
	<polygon class="st0" points="3.4,95.2 3.4,105.3 13.4,95.2 	"/>
	<polygon class="st0" points="150.9,150.9 150.9,160.9 160.9,150.9 	"/>
	<polygon class="st0" points="150.9,160.9 150.9,171 160.9,171 	"/>
	<polygon class="st0" points="171,171 171,160.9 160.9,171 	"/>
	<polygon class="st0" points="171,150.9 160.9,150.9 171,160.9 	"/>
	<polygon class="st0" points="181,150.9 181,140.9 171,140.9 176,145.9 	"/>
	<polygon class="st0" points="176,155.9 176,145.9 165.9,145.9 	"/>
	<polygon class="st0" points="165.9,140.9 155.9,140.9 160.9,145.9 	"/>
	<polygon class="st0" points="181,165.9 181,155.9 176,160.9 	"/>
	<polygon class="st0" points="155.9,181 165.9,181 160.9,176 	"/>
	<polygon class="st0" points="140.9,155.9 140.9,165.9 145.9,160.9 	"/>
	<polygon class="st0" points="145.9,176 155.9,176 145.9,165.9 	"/>
	<polygon class="st0" points="140.9,171 140.9,181 150.9,181 	"/>
	<polygon class="st0" points="165.9,176 176,176 176,165.9 	"/>
	<polygon class="st0" points="171,181 181,181 181,171 176,176 	"/>
	<polygon class="st0" points="145.9,155.9 155.9,145.9 145.9,145.9 150.9,140.9 140.9,140.9 140.9,150.9 145.9,145.9 	"/>
	<polygon class="st0" points="8.9,89.5 15.5,89.5 12.2,86.2 	"/>
	<polygon class="st0" points="15.5,49 8.9,49 12.2,52.3 	"/>
	<polygon class="st0" points="3.2,54.6 3.2,61.3 6.5,58 	"/>
	<polygon class="st0" points="3.2,77.2 3.2,83.9 6.5,80.6 	"/>
	<polygon class="st0" points="12.2,74.9 17.8,69.3 23.5,74.9 17.8,80.6 23.5,86.2 20.2,89.5 26.8,89.5 23.5,86.2 29.1,80.6 
		23.5,74.9 29.1,69.3 34.8,74.9 40.4,69.3 43.7,72.6 43.7,65.9 40.4,69.3 34.8,63.6 29.1,69.3 23.5,63.6 29.1,58 23.5,52.3 26.8,49 
		20.2,49 23.5,52.3 17.8,58 23.5,63.6 17.8,69.3 12.2,63.6 6.5,69.3 3.2,65.9 3.2,72.6 6.5,69.3 	"/>
	<polygon class="st0" points="38.1,49 31.5,49 34.8,52.3 	"/>
	<polygon class="st0" points="43.7,54.6 40.4,58 43.7,61.3 	"/>
	<polygon class="st0" points="43.7,83.9 43.7,77.2 40.4,80.6 	"/>
	<polygon class="st0" points="31.5,89.5 38.1,89.5 34.8,86.2 	"/>
	<polygon class="st0" points="146.3,227 152.9,227 149.6,223.7 	"/>
	<polygon class="st0" points="152.9,186.5 146.3,186.5 149.6,189.8 	"/>
	<polygon class="st0" points="140.7,192.1 140.7,198.8 144,195.5 	"/>
	<polygon class="st0" points="140.7,214.7 140.7,221.4 144,218.1 	"/>
	<polygon class="st0" points="149.6,212.4 155.3,206.8 160.9,212.4 155.3,218.1 160.9,223.7 157.6,227 164.2,227 160.9,223.7 
		166.6,218.1 160.9,212.4 166.6,206.8 172.2,212.4 177.9,206.8 181.2,210.1 181.2,203.4 177.9,206.8 172.2,201.1 166.6,206.8 
		160.9,201.1 166.6,195.5 160.9,189.8 164.2,186.5 157.6,186.5 160.9,189.8 155.3,195.5 160.9,201.1 155.3,206.8 149.6,201.1 
		144,206.8 140.7,203.4 140.7,210.1 144,206.8 	"/>
	<polygon class="st0" points="175.5,186.5 168.9,186.5 172.2,189.8 	"/>
	<polygon class="st0" points="181.2,192.1 177.9,195.5 181.2,198.8 	"/>
	<polygon class="st0" points="181.2,221.4 181.2,214.7 177.9,218.1 	"/>
	<polygon class="st0" points="168.9,227 175.5,227 172.2,223.7 	"/>
	<path class="st0" d="M23.4,31.1l7.7-7.7l-7.7-7.7l-7.7,7.7L23.4,31.1z M29.6,23.4l-6.2,6.2l-6.2-6.2l6.2-6.2L29.6,23.4z"/>
	<path class="st0" d="M25.8,33.5l7.7,7.7l7.7-7.7l-7.7-7.7L25.8,33.5z M33.5,39.7l-6.2-6.2l6.2-6.2l6.2,6.2L33.5,39.7z"/>
	<path class="st0" d="M20.7,33.8L13,26.2l-7.7,7.7l7.7,7.7L20.7,33.8z M13,27.6l6.2,6.2L13,40l-6.2-6.2L13,27.6z"/>
	<path class="st0" d="M41.5,13l-7.7-7.7L26.2,13l7.7,7.7L41.5,13z M33.8,6.8L40,13l-6.2,6.2L27.6,13L33.8,6.8z"/>
	<path class="st0" d="M20.7,13L13,5.4L5.4,13l7.7,7.7L20.7,13z M13,6.8l6.2,6.2L13,19.2L6.8,13L13,6.8z"/>
	<path class="st0" d="M160.9,260.3l7.7-7.7l-7.7-7.7l-7.7,7.7L160.9,260.3z M167.1,252.6l-6.2,6.2l-6.2-6.2l6.2-6.2L167.1,252.6z"/>
	<path class="st0" d="M163.3,262.7l7.7,7.7l7.7-7.7L171,255L163.3,262.7z M171,268.9l-6.2-6.2l6.2-6.2l6.2,6.2L171,268.9z"/>
	<path class="st0" d="M158.2,263l-7.7-7.7l-7.7,7.7l7.7,7.7L158.2,263z M150.5,256.8l6.2,6.2l-6.2,6.2l-6.2-6.2L150.5,256.8z"/>
	<path class="st0" d="M179,242.2l-7.7-7.7l-7.7,7.7l7.7,7.7L179,242.2z M171.3,236l6.2,6.2l-6.2,6.2l-6.2-6.2L171.3,236z"/>
	<path class="st0" d="M158.2,242.2l-7.7-7.7l-7.7,7.7l7.7,7.7L158.2,242.2z M150.5,236l6.2,6.2l-6.2,6.2l-6.2-6.2L150.5,236z"/>
	<path class="st0" d="M23.4,223.4c7.6,0,13.8-6.2,13.8-13.8v-19.5H9.7v19.5C9.7,217.2,15.8,223.4,23.4,223.4z M11.7,192.2h23.4v17.5
		c0,6.5-5.3,11.7-11.7,11.7s-11.7-5.3-11.7-11.7V192.2z"/>
	
		<ellipse transform="matrix(0.7071 -0.7071 0.7071 0.7071 -139.3351 77.1187)" class="st0" cx="23.4" cy="206.8" rx="2.7" ry="2.7"/>
	<ellipse transform="matrix(0.7071 -0.7071 0.7071 0.7071 -136.9494 71.3493)" class="st0" cx="17.6" cy="201" rx="2.7" ry="2.7"/>
	<ellipse transform="matrix(0.7071 -0.7071 0.7071 0.7071 -133.5637 79.523)" class="st0" cx="29.2" cy="201" rx="2.7" ry="2.7"/>
	
		<ellipse transform="matrix(0.7071 -0.7071 0.7071 0.7071 -141.7372 82.9086)" class="st0" cx="29.2" cy="212.5" rx="2.7" ry="2.7"/>
	<ellipse transform="matrix(0.7071 -0.7071 0.7071 0.7071 -145.1229 74.735)" class="st0" cx="17.6" cy="212.5" rx="2.7" ry="2.7"/>
	<path class="st0" d="M160.9,85.9c7.6,0,13.8-6.2,13.8-13.8V52.6h-27.5v19.5C147.2,79.7,153.3,85.9,160.9,85.9z M149.2,54.7h23.4
		v17.5c0,6.5-5.3,11.7-11.7,11.7h0c-6.5,0-11.7-5.3-11.7-11.7V54.7z"/>
	<ellipse transform="matrix(0.7071 -0.7071 0.7071 0.7071 -1.8443 134.073)" class="st0" cx="160.9" cy="69.3" rx="2.7" ry="2.7"/>
	<ellipse transform="matrix(0.7071 -0.7071 0.7071 0.7071 0.5537 128.3037)" class="st0" cx="155.1" cy="63.5" rx="2.7" ry="2.7"/>
	<ellipse transform="matrix(0.7071 -0.7071 0.7071 0.7071 3.9394 136.4774)" class="st0" cx="166.7" cy="63.5" rx="2.7" ry="2.7"/>
	<ellipse transform="matrix(0.7071 -0.7071 0.7071 0.7071 -4.2341 139.863)" class="st0" cx="166.7" cy="75" rx="2.7" ry="2.7"/>
	<ellipse transform="matrix(0.7071 -0.7071 0.7071 0.7071 -7.6198 131.6893)" class="st0" cx="155.1" cy="75" rx="2.7" ry="2.7"/>
	<path class="st0" d="M20.6,255.4v9.2l-8.1,2.8h21.9l-8.1-2.8v-9.2h9.2l2.8,8.1v-21.9l-2.8,8.1h-9.2v-9.2l8.1-2.8H12.5l8.1,2.8v9.2
		h-9.2l-2.8-8.1v21.9l2.8-8.1H20.6z M11.5,252h11.5v-11.4h1.3V252h11.2v1.3H24.2v11.4h-1.3v-11.4H11.5V252z"/>
	<path class="st0" d="M158.1,26.2v9.2l-8.1,2.8h21.9l-8.1-2.8v-9.2h9.2l2.8,8.1V12.5l-2.8,8.1h-9.2v-9.2l8.1-2.8H150l8.1,2.8v9.2
		H149l-2.8-8.1v21.9l2.8-8.1H158.1z M149,22.8h11.5V11.5h1.3v11.4h11.2v1.3h-11.2v11.4h-1.3V24.1H149V22.8z"/>
	<path class="st0" d="M115.2,268.5c7.4,0,13.8-5.4,13.8-13.5c0-8.1-6-11.8-7-12.4c-1.6-1-3.2-1.4-4.7-2.4c-1-0.6-2.3-2.2-3.4-3.5
		c-0.2,2.1-0.9,3-1.6,3.6c-1.6,1.2-2.6,1.6-3.9,2.3c-1.1,0.6-7.3,4.3-7.3,12.2S107.8,268.5,115.2,268.5z M122.2,265.7
		c-0.2,0.2-1.6,1.1-3.2,1.3c-1.7,0.2-3.9,0.2-5.3-1c-0.2-0.2-0.2-0.5,0-0.6c0.2-0.1,0.3-0.2,0.5-0.2c0.2,0,0.2,0,0.2,0.1
		c0.6,0.5,1.5,0.9,3.5,0.9s3.3-0.6,4-1c0.3-0.2,0.4,0,0.4,0.1C122.4,265.3,122.4,265.4,122.2,265.7z M116.8,262.9
		c0.3-0.3,0.9-0.8,1.4-1c0.5-0.2,0.8-0.2,1.3-0.2c0.5,0,1,0,1.4,0.3c0.4,0.2,0.6,0.8,0.7,1.1c0.1,0.3,0,0.5-0.2,0.6
		c-0.2,0.1-0.2,0.1-0.5-0.3c-0.2-0.4-0.4-0.8-1.5-0.8s-1.4,0.4-1.9,0.8c-0.5,0.4-0.7,0.6-0.9,0.3S116.5,263.2,116.8,262.9z
		 M120.2,258.4c1.5,0,4.5-3,5.9-3c1.5,0,2,1.6,2,2.6c0,1-0.3,2.7-1,3.7c-0.7,1.1-1.2,1.5-2.1,1.4c-1.1-0.1-3.3-3.5-4.7-3.6
		c-1.8-0.1-5.7,3.7-8.7,3.7c-1.8,0-2.4-0.3-3-0.7c-0.9-0.6-1.4-1.6-1.4-3c0-2.4,2.3-4.6,5.1-4.7
		C115.9,254.9,118.4,258.5,120.2,258.4z M104.2,247.7c-0.1-0.1-0.6-0.3-0.1-1c1.5-2.3,4.4-3.9,5.2-4.3c0.3-0.2,1.7-0.8,3-1.8
		c0.8-0.6,1.4-1.3,1.7-3.3c0.2,0.7,0.3,1.3,0.2,2.1c0,0.8-0.8,1.3-0.9,1.4c-0.2,0.1-0.8,0.4-1,0.5c-0.2,0.1-0.1,0.2,0,0.2
		c0.2,0.1,0.4,0.2,0.4,0.4c0,0.2-0.1,0.6-0.8,1.3c-1.3,1.3-2.2,2.1-4.5,3.5S104.3,247.8,104.2,247.7z"/>
	<path class="st0" d="M254.8,11c-1-0.6-2.3-2.2-3.4-3.5c-0.2,2.1-0.9,3-1.6,3.6c-1.6,1.2-2.6,1.6-3.9,2.3c-1.1,0.6-7.3,4.3-7.3,12.2
		s6.7,13.8,14.1,13.8s13.8-5.4,13.8-13.5c0-8.1-6-11.8-7-12.4C257.9,12.4,256.4,12,254.8,11z M241.7,18.5c-0.1-0.1-0.6-0.3-0.1-1
		c1.5-2.3,4.4-3.9,5.2-4.3c0.3-0.2,1.7-0.8,3-1.8c0.8-0.6,1.4-1.3,1.7-3.3c0.2,0.7,0.3,1.3,0.2,2.1c0,0.8-0.8,1.3-0.9,1.4
		c-0.2,0.1-0.8,0.4-1,0.5c-0.2,0.1-0.1,0.2,0,0.2c0.2,0.1,0.4,0.2,0.4,0.4c0,0.2-0.1,0.6-0.8,1.3c-1.3,1.3-2.2,2.1-4.5,3.5
		C242.9,18.7,241.8,18.6,241.7,18.5z M259.7,36.5c-0.2,0.2-1.6,1.1-3.2,1.3c-1.7,0.2-3.9,0.2-5.3-1c-0.2-0.2-0.2-0.5,0-0.6
		c0.2-0.1,0.3-0.2,0.5-0.2c0.2,0,0.2,0,0.2,0.1c0.6,0.5,1.5,0.9,3.5,0.9s3.3-0.6,4-1c0.3-0.2,0.4,0,0.4,0.1
		C259.9,36.1,259.9,36.3,259.7,36.5z M254.3,33.7c0.3-0.3,0.9-0.8,1.4-1c0.5-0.2,0.8-0.2,1.3-0.2c0.5,0,1,0,1.4,0.3
		c0.4,0.2,0.6,0.8,0.7,1.1c0.1,0.3,0,0.5-0.2,0.6c-0.2,0.1-0.2,0.1-0.5-0.3c-0.2-0.4-0.4-0.8-1.5-0.8c-1.1,0-1.4,0.4-1.9,0.8
		c-0.5,0.4-0.7,0.6-0.9,0.3S254,34,254.3,33.7z M263.6,26.2c1.5,0,2,1.6,2,2.6c0,1-0.3,2.7-1,3.7c-0.7,1.1-1.2,1.5-2.1,1.4
		c-1.1-0.1-3.3-3.5-4.7-3.6c-1.8-0.1-5.7,3.7-8.7,3.7c-1.8,0-2.4-0.3-3-0.7c-0.9-0.6-1.4-1.6-1.4-3c0-2.4,2.3-4.6,5.1-4.7
		c3.6,0,6.1,3.6,7.9,3.5C259.2,29.2,262.2,26.2,263.6,26.2z"/>
	<path class="st0" d="M54.5,42l4.4-7.7c2.8,1.6,6,2.5,9.3,2.7v1.9h2.1V37c3.3-0.2,6.5-1.1,9.3-2.7L84,42l1.8-1l-4.5-7.8
		c0.9-0.7,1.8-1.4,2.7-2.2l-1.5-1.5c-0.7,0.7-1.5,1.3-2.3,1.9L72.5,18c1-0.9,1.6-2.2,1.6-3.6c0-2.3-1.7-4.3-3.9-4.8V4.9h-2.1v4.7
		c-2.2,0.5-3.9,2.4-3.9,4.8c0,1.4,0.6,2.7,1.6,3.6l-7.7,13.4c-0.8-0.6-1.6-1.2-2.3-1.9l-1.5,1.5c0.8,0.8,1.7,1.6,2.7,2.2L52.7,41
		L54.5,42z M69.3,11.5c1.6,0,2.8,1.3,2.8,2.8c0,1.6-1.3,2.8-2.8,2.8c-1.6,0-2.8-1.3-2.8-2.8C66.4,12.8,67.7,11.5,69.3,11.5z
		 M67.8,19c0.5,0.2,1,0.3,1.5,0.3c0.5,0,1-0.1,1.5-0.3l7.8,13.5c-2.5,1.4-5.3,2.3-8.3,2.4v-1.8h-2.1v1.8c-2.9-0.2-5.8-1-8.3-2.4
		L67.8,19z"/>
	<path class="st0" d="M192,271.2l4.4-7.7c2.8,1.6,6,2.5,9.3,2.7v1.9h2.1v-1.9c3.3-0.2,6.5-1.1,9.3-2.7l4.4,7.7l1.8-1l-4.5-7.8
		c0.9-0.7,1.8-1.4,2.7-2.2l-1.5-1.5c-0.7,0.7-1.5,1.3-2.3,1.9l-7.7-13.4c1-0.9,1.6-2.2,1.6-3.6c0-2.3-1.7-4.3-3.9-4.8V234h-2.1v4.7
		c-2.2,0.5-3.9,2.4-3.9,4.8c0,1.4,0.6,2.7,1.6,3.6l-7.7,13.4c-0.8-0.6-1.6-1.2-2.3-1.9l-1.5,1.5c0.8,0.8,1.7,1.6,2.7,2.2l-4.5,7.8
		L192,271.2z M206.8,240.7c1.6,0,2.8,1.3,2.8,2.8c0,1.6-1.3,2.8-2.8,2.8c-1.6,0-2.8-1.3-2.8-2.8C203.9,242,205.2,240.7,206.8,240.7z
		 M205.3,248.2c0.5,0.2,1,0.3,1.5,0.3c0.5,0,1-0.1,1.5-0.3l7.8,13.5c-2.5,1.4-5.3,2.3-8.3,2.4v-1.8h-2.1v1.8c-2.9-0.2-5.8-1-8.3-2.4
		L205.3,248.2z"/>
	<path class="st0" d="M69.3,86.5c9.7,0,17.6-7.9,17.6-17.6c0-9.7-7.9-17.6-17.6-17.6s-17.6,7.9-17.6,17.6
		C51.7,78.6,59.6,86.5,69.3,86.5z M69.3,53.4c8.6,0,15.5,7,15.5,15.5s-7,15.5-15.5,15.5s-15.5-7-15.5-15.5S60.7,53.4,69.3,53.4z"/>
	<polygon class="st0" points="77.6,61.1 66.8,66.2 61,77.7 72.5,71.9 	"/>
	<path class="st0" d="M206.8,224.3c9.7,0,17.6-7.9,17.6-17.6c0-9.7-7.9-17.6-17.6-17.6s-17.6,7.9-17.6,17.6
		C189.2,216.5,197.1,224.3,206.8,224.3z M206.8,191.2c8.6,0,15.5,7,15.5,15.5c0,8.6-7,15.5-15.5,15.5s-15.5-7-15.5-15.5
		C191.2,198.2,198.2,191.2,206.8,191.2z"/>
	<polygon class="st0" points="215.1,199 204.3,204 198.5,215.6 210,209.8 	"/>
	<polygon class="st0" points="238,227 244.6,227 241.3,223.7 	"/>
	<polygon class="st0" points="244.6,186.5 238,186.5 241.3,189.8 	"/>
	<polygon class="st0" points="232.3,192.1 232.3,198.8 235.6,195.5 	"/>
	<polygon class="st0" points="232.3,221.4 235.6,218.1 232.3,214.7 	"/>
	<polygon class="st0" points="272.9,203.4 269.5,206.8 263.9,201.1 258.2,206.8 252.6,201.1 258.2,195.5 252.6,189.8 255.9,186.5 
		249.3,186.5 252.6,189.8 246.9,195.5 252.6,201.1 246.9,206.8 241.3,201.1 235.6,206.8 232.3,203.4 232.3,210.1 235.6,206.8 
		241.3,212.4 246.9,206.8 252.6,212.4 246.9,218.1 252.6,223.7 249.3,227 255.9,227 252.6,223.7 258.2,218.1 252.6,212.4 
		258.2,206.8 263.9,212.4 269.5,206.8 272.9,210.1 	"/>
	<polygon class="st0" points="267.2,186.5 260.6,186.5 263.9,189.8 	"/>
	<polygon class="st0" points="272.9,192.1 269.5,195.5 272.9,198.8 	"/>
	<polygon class="st0" points="272.9,221.4 272.9,214.7 269.5,218.1 	"/>
	<polygon class="st0" points="260.6,227 267.2,227 263.9,223.7 	"/>
	<polygon class="st0" points="266.2,69 273.1,75.9 275,74 275,63.9 273.1,62 	"/>
	<path class="st0" d="M275,0h-44.8h-1h-44.8h-1h-44.8h-1H92.7h-1H46.9h-1H0v45.8v1v44.8v1v44.8v1v44.8v1v44.8v1V276h45.8h1h44.8h1
		h44.8h1h44.8h1h44.8h1H275v-1h-44.8v-44.8H275v-1h-44.8v-44.8H275v-1h-44.8v-44.8H275v-1h-44.8V92.7H275v-8l-1.9-1.9l-6.9,6.9
		l1.9,1.9h-10.7l1.9-1.9l-6.9-6.9l-6.9,6.9l1.9,1.9h-10l1.5-1.5l-6.9-6.9l-1.6,1.6V74.6l1.6,1.6l6.9-6.9l-6.9-6.9l-1.6,1.6V53.8
		l1.6,1.6l6.9-6.9l-1.6-1.6h10.2l-1.6,1.6l6.9,6.9l6.9-6.9l-1.6-1.6h10.2l-1.6,1.6l6.9,6.9l1.5-1.5v-8.1h-44.8V1H275V0z M1,159.1
		l1.7,1.7L1,162.4V159.1z M1,165.9l5.1-5.1L1,155.7v-6.1l11.2,11.2L1,171.9V165.9z M1,175.4l14.6-14.6L1,146.2v-6.1l20.7,20.7
		L1,181.5V175.4z M23.4,143.5l5-5h6.1l-11,11l-11-11h6.1L23.4,143.5z M21.9,138.5h3l-1.5,1.5L21.9,138.5z M23.4,153l14.5-14.5H44
		l-20.5,20.5L2.9,138.5H9L23.4,153z M23.4,178.1l-5.3,5.3h-6.1L23.4,172l11.3,11.3h-6.1L23.4,178.1z M25.2,183.3h-3.6l1.8-1.8
		L25.2,183.3z M23.4,168.6L8.7,183.3H2.6l20.8-20.8l20.8,20.8h-6.1L23.4,168.6z M45.8,275H1v-44.8h44.8V275z M45.8,229.2H1v-44.8
		h44.8V229.2z M45.8,162.4l-1.7-1.7l1.7-1.7V162.4z M45.8,155.7l-5.1,5.1l5.1,5.1v6.1l-11.2-11.2l11.2-11.2V155.7z M45.8,146.2
		l-14.6,14.6l14.6,14.6v6.1l-20.7-20.7l20.7-20.7V146.2z M45.8,137.5H1V92.7h44.8V137.5z M45.8,91.7H1V46.9h44.8V91.7z M45.8,45.8H1
		V1h44.8V45.8z M91.7,275H46.9v-44.8h44.8V275z M91.7,229.2H46.9v-44.8h44.8V229.2z M91.7,183.3h-6.6l6.6-6.6V183.3z M91.7,145.7
		h-7.1v7.6l7.1-7.1v7.1h-7.1v7.6l7.1-7.1v7.1h-7.1v7.6l7.1-7.1v7.1h-7.1v7.6l7.1-7.1v7.1h-7.1v7.1h-7.1l7.1-7.1h-7.6v7.1h-7.1
		l7.1-7.1h-7.6v7.1h-7.1l7.1-7.1h-7.6v7.1h-7.1l7.1-7.1H54v7.1h-7.1l7.1-7.1h-7.1v-0.5l7.1-7.1h-7.1v-0.5l7.1-7.1h-7.1v-0.5l7.1-7.1
		h-7.1v-0.5l7.1-7.1h-7.1v-0.5l6.6-6.6H54v7.1l7.1-7.1h0.5v7.1l7.1-7.1h0.5v7.1l7.1-7.1h0.5v7.1l7.1-7.1h0.5v7.1l7.1-7.1h0V145.7z
		 M91.7,137.5H46.9V92.7h44.8V137.5z M91.7,91.7H46.9V46.9h44.8V91.7z M91.7,45.8H46.9V1h44.8V45.8z M137.5,275H92.7v-44.8h44.8V275
		z M137.5,201.4l-1.9-1.9l-6.9,6.9l6.9,6.9l1.9-1.9v10.7l-1.9-1.9l-6.9,6.9l1.9,1.9h-10.7l1.9-1.9l-6.9-6.9l-6.9,6.9l1.9,1.9h-10
		l1.5-1.5l-6.9-6.9l-1.6,1.6v-10.2l1.6,1.6l6.9-6.9l-6.9-6.9l-1.6,1.6v-10.2l1.6,1.6l6.9-6.9l-1.6-1.6h10.2l-1.6,1.6l6.9,6.9
		l6.9-6.9l-1.6-1.6h10.2L129,186l6.9,6.9l1.5-1.5V201.4z M137.5,183.3H92.7v-44.8h44.8V183.3z M137.5,137.5H92.7V92.7h44.8V137.5z
		 M137.5,91.7H92.7V46.9h44.8V91.7z M137.5,45.8H92.7V1h44.8V45.8z M138.5,113.4l1.7,1.7l-1.7,1.7V113.4z M138.5,120.2l5.1-5.1
		l-5.1-5.1v-6.1l11.2,11.2l-11.2,11.2V120.2z M138.5,129.7l14.6-14.6l-14.6-14.6v-6.1l20.7,20.7l-20.7,20.7V129.7z M160.9,97.8
		l5.1-5.1h6.1l-11.2,11.2l-11.2-11.2h6.1L160.9,97.8z M159.3,92.7h3.3l-1.7,1.7L159.3,92.7z M160.9,107.3l14.6-14.6h6.1l-20.7,20.7
		l-20.7-20.7h6.1L160.9,107.3z M160.9,132.4l-5.1,5.1h-6.1l11.2-11.2l11.2,11.2H166L160.9,132.4z M162.6,137.5h-3.3l1.7-1.7
		L162.6,137.5z M160.9,122.9l-14.6,14.6h-6.1l20.7-20.7l20.7,20.7h-6.1L160.9,122.9z M183.3,275h-44.8v-44.8h44.8V275z M183.3,229.2
		h-44.8v-44.8h44.8V229.2z M183.3,183.3h-44.8v-44.8h44.8V183.3z M183.3,116.7l-1.7-1.7l1.7-1.7V116.7z M183.3,110l-5.1,5.1l5.1,5.1
		v6.1l-11.2-11.2l11.2-11.2V110z M183.3,100.5l-14.6,14.6l14.6,14.6v6.1l-20.7-20.7l20.7-20.7V100.5z M183.3,91.7h-44.8V46.9h44.8
		V91.7z M183.3,45.8h-44.8V1h44.8V45.8z M184.4,92.7h6.6l-6.6,6.6V92.7z M229.2,275h-44.8v-44.8h44.8V275z M229.2,229.2h-44.8v-44.8
		h44.8V229.2z M229.2,183.3h-44.8v-44.8h44.8V183.3z M229.2,100.3l-7.1,7.1h7.1v0.5l-7.1,7.1h7.1v0.5l-7.1,7.1h7.1v0.5l-7.1,7.1h7.1
		v0.5l-6.6,6.6H222v-7.1l-7.1,7.1h-0.5v-7.1l-7.1,7.1h-0.5v-7.1l-7.1,7.1h-0.5v-7.1l-7.1,7.1h-0.5v-7.1l-7.1,7.1h0v-7.1h7.1v-7.6
		l-7.1,7.1v-7.1h7.1v-7.6l-7.1,7.1v-7.1h7.1v-7.6l-7.1,7.1v-7.1h7.1v-7.6l-7.1,7.1v-7.1h7.1v-7.1h7.1l-7.1,7.1h7.6v-7.1h7.1
		l-7.1,7.1h7.6v-7.1h7.1l-7.1,7.1h7.6v-7.1h7.1l-7.1,7.1h7.6v-7.1h7.1l-7.1,7.1h7.1V100.3z M229.2,91.7h-44.8V46.9h44.8V91.7z
		 M229.2,45.8h-44.8V1h44.8V45.8z"/>
</g>
</svg>
