<?xml version="1.0" encoding="utf-8"?>
<!-- Generator: Adobe Illustrator 21.0.0, SVG Export Plug-In . SVG Version: 6.00 Build 0)  -->
<svg version="1.1" id="Layer_1" xmlns="http://www.w3.org/2000/svg" xmlns:xlink="http://www.w3.org/1999/xlink" x="0px" y="0px"
	 width="275px" height="276px" viewBox="0 0 275 276" style="enable-background:new 0 0 275 276;" xml:space="preserve">
<style type="text/css">
	.st0{fill:#FFFFFF;}
</style>
<g>
	<polygon class="st0" points="75.9,176.2 83.5,168.6 75.9,168.6 	"/>
	<polygon class="st0" points="68.2,168.6 68.2,176.2 75.9,168.6 	"/>
	<polygon class="st0" points="60.6,168.6 60.6,176.2 68.2,168.6 	"/>
	<polygon class="st0" points="53,168.6 53,176.2 60.6,168.6 	"/>
	<polygon class="st0" points="75.9,168.6 83.5,160.9 75.9,160.9 	"/>
	<polygon class="st0" points="68.2,168.6 75.9,160.9 68.2,160.9 	"/>
	<polygon class="st0" points="60.6,160.9 60.6,168.6 68.2,160.9 	"/>
	<polygon class="st0" points="53,160.9 53,168.6 60.6,160.9 	"/>
	<polygon class="st0" points="75.9,160.9 83.5,153.3 75.9,153.3 	"/>
	<polygon class="st0" points="68.2,160.9 75.9,153.3 68.2,153.3 	"/>
	<polygon class="st0" points="60.6,153.3 60.6,160.9 68.2,153.3 	"/>
	<polygon class="st0" points="53,153.3 53,160.9 60.6,153.3 	"/>
	<polygon class="st0" points="75.9,153.3 83.5,145.7 75.9,145.7 	"/>
	<polygon class="st0" points="75.9,145.7 68.2,145.7 68.2,153.3 	"/>
	<polygon class="st0" points="68.2,145.7 60.6,145.7 60.6,153.3 	"/>
	<polygon class="st0" points="53,145.7 53,153.3 60.6,145.7 	"/>
	<polygon class="st0" points="198.1,99.8 190.5,107.5 198.1,107.5 	"/>
	<polygon class="st0" points="205.7,107.5 205.7,99.8 198.1,107.5 	"/>
	<polygon class="st0" points="213.4,107.5 213.4,99.8 205.7,107.5 	"/>
	<polygon class="st0" points="213.4,107.5 221,107.5 221,99.8 	"/>
	<polygon class="st0" points="198.1,107.5 190.5,115.1 198.1,115.1 	"/>
	<polygon class="st0" points="205.7,107.5 198.1,115.1 205.7,115.1 	"/>
	<polygon class="st0" points="213.4,115.1 213.4,107.5 205.7,115.1 	"/>
	<polygon class="st0" points="221,115.1 221,107.5 213.4,115.1 	"/>
	<polygon class="st0" points="198.1,115.1 190.5,122.7 198.1,122.7 	"/>
	<polygon class="st0" points="198.1,122.7 205.7,122.7 205.7,115.1 	"/>
	<polygon class="st0" points="213.4,122.7 213.4,115.1 205.7,122.7 	"/>
	<polygon class="st0" points="221,122.7 221,115.1 213.4,122.7 	"/>
	<polygon class="st0" points="190.5,130.4 198.1,130.4 198.1,122.7 	"/>
	<polygon class="st0" points="198.1,130.4 205.7,130.4 205.7,122.7 	"/>
	<polygon class="st0" points="205.7,130.4 213.4,130.4 213.4,122.7 	"/>
	<polygon class="st0" points="221,130.4 221,122.7 213.4,130.4 	"/>
	<path class="st0" d="M58.5,213.1l-2.4-0.1l0.5,2.4l0.6,0.2c0.5,0.2,0.9,0.7,1,1.2l0.2,1.3h-0.7v0.8c0.4,0.3,0.9,0.4,1.4,0.4
		c0.6,0,1.2-0.2,1.6-0.6c0.5-0.4,1.1-0.4,1.6,0c0.4,0.4,1,0.6,1.6,0.6s1.2-0.2,1.6-0.6c0.5-0.4,1.1-0.4,1.6,0c0.4,0.4,1,0.6,1.6,0.6
		s1.2-0.2,1.6-0.6c0.5-0.4,1.1-0.4,1.6,0c0.4,0.4,1,0.6,1.6,0.6s1.2-0.2,1.6-0.6c0.5-0.4,1.1-0.4,1.6,0c0.4,0.4,1,0.6,1.6,0.6
		s1.2-0.2,1.6-0.6c0.3-0.3,0.7-0.4,1-0.3c0.8-1,1.5-2.1,1.7-3.4l0.5-2.8h-0.7l-0.8,1.7c0,0-4.6,1.3-10.2,1.8v-4.2h10.8
		c-2.5-4.5-6.7-9.2-10.8-11.9v-6.7h-0.6v0.5h-3.2l0.8,1l-0.8,1h3.2v3.7C65.1,195.5,60,193,60,193v9.2c-1.3-1-6.5-4.8-6.5-4.8v14.2
		h5.1L58.5,213.1L58.5,213.1z M59.1,211.5H60h8.6h2v4.2c-0.1,0-0.2,0-0.3,0c0,0-6.2,0.9-6.8-2.4L59,213v-1.5H59.1z"/>
	<path class="st0" d="M79.8,219.3c-0.4,0.4-1,0.6-1.6,0.6s-1.2-0.2-1.6-0.6c-0.5-0.4-1.1-0.4-1.6,0c-0.4,0.4-1,0.6-1.6,0.6
		s-1.2-0.2-1.6-0.6c-0.5-0.4-1.1-0.4-1.6,0c-0.4,0.4-1,0.6-1.6,0.6s-1.2-0.2-1.6-0.6c-0.5-0.4-1.1-0.4-1.6,0c-0.4,0.4-1,0.6-1.6,0.6
		s-1.2-0.2-1.6-0.6c-0.5-0.4-1.1-0.4-1.6,0c-0.4,0.4-1,0.6-1.6,0.6s-1.2-0.2-1.6-0.6c-0.4-0.3-0.9-0.4-1.3-0.2v0.7
		c0.4-0.2,1-0.2,1.3,0.2c0.4,0.4,1,0.6,1.6,0.6s1.2-0.2,1.6-0.6c0.5-0.4,1.1-0.4,1.6,0c0.4,0.4,1,0.6,1.6,0.6s1.2-0.2,1.6-0.6
		c0.5-0.4,1.1-0.4,1.6,0c0.4,0.4,1,0.6,1.6,0.6s1.2-0.2,1.6-0.6c0.5-0.4,1.1-0.4,1.6,0c0.4,0.4,1,0.6,1.6,0.6s1.2-0.2,1.6-0.6
		c0.5-0.4,1.1-0.4,1.6,0c0.4,0.4,1,0.6,1.6,0.6s1.2-0.2,1.6-0.6c0.5-0.4,1.1-0.4,1.6,0c0.4,0.4,1,0.6,1.6,0.6V220
		c-0.6,0-1.2-0.2-1.6-0.6C81,218.9,80.3,218.9,79.8,219.3z"/>
	<path class="st0" d="M196,75.6l-2.4-0.1l0.5,2.4l0.6,0.2c0.5,0.2,0.9,0.7,1,1.2l0.2,1.3h-0.7v0.8c0.4,0.3,0.9,0.4,1.4,0.4
		c0.6,0,1.2-0.2,1.6-0.6c0.5-0.4,1.1-0.4,1.6,0c0.4,0.4,1,0.6,1.6,0.6s1.2-0.2,1.6-0.6c0.5-0.4,1.1-0.4,1.6,0c0.4,0.4,1,0.6,1.6,0.6
		s1.2-0.2,1.6-0.6c0.5-0.4,1.1-0.4,1.6,0c0.4,0.4,1,0.6,1.6,0.6s1.2-0.2,1.6-0.6c0.5-0.4,1.1-0.4,1.6,0c0.4,0.4,1,0.6,1.6,0.6
		s1.2-0.2,1.6-0.6c0.3-0.3,0.7-0.4,1-0.3c0.8-1,1.5-2.1,1.7-3.4l0.5-2.8h-0.7l-0.8,1.7c0,0-4.6,1.3-10.2,1.8V74h10.8
		c-2.5-4.5-6.7-9.2-10.8-11.9v-6.7h-0.6v0.5H205l0.8,1l-0.8,1h3.2v3.7c-5.6-3.6-10.7-6.2-10.7-6.2v9.2c-1.3-1-6.5-4.8-6.5-4.8V74
		h5.1v1.6H196z M196.6,74h0.9h8.6h2v4.2c-0.1,0-0.2,0-0.3,0c0,0-6.2,0.9-6.8-2.4l-4.5-0.3V74H196.6z"/>
	<path class="st0" d="M217.3,81.8c-0.4,0.4-1,0.6-1.6,0.6s-1.2-0.2-1.6-0.6c-0.5-0.4-1.1-0.4-1.6,0c-0.4,0.4-1,0.6-1.6,0.6
		s-1.2-0.2-1.6-0.6c-0.5-0.4-1.1-0.4-1.6,0c-0.4,0.4-1,0.6-1.6,0.6s-1.2-0.2-1.6-0.6c-0.5-0.4-1.1-0.4-1.6,0c-0.4,0.4-1,0.6-1.6,0.6
		s-1.2-0.2-1.6-0.6c-0.5-0.4-1.1-0.4-1.6,0c-0.4,0.4-1,0.6-1.6,0.6s-1.2-0.2-1.6-0.6c-0.4-0.3-0.9-0.4-1.3-0.2v0.7
		c0.4-0.2,1-0.2,1.3,0.2c0.4,0.4,1,0.6,1.6,0.6s1.2-0.2,1.6-0.6c0.5-0.4,1.1-0.4,1.6,0c0.4,0.4,1,0.6,1.6,0.6s1.2-0.2,1.6-0.6
		c0.5-0.4,1.1-0.4,1.6,0c0.4,0.4,1,0.6,1.6,0.6s1.2-0.2,1.6-0.6c0.5-0.4,1.1-0.4,1.6,0c0.4,0.4,1,0.6,1.6,0.6s1.2-0.2,1.6-0.6
		c0.5-0.4,1.1-0.4,1.6,0c0.4,0.4,1,0.6,1.6,0.6s1.2-0.2,1.6-0.6c0.5-0.4,1.1-0.4,1.6,0c0.4,0.4,1,0.6,1.6,0.6v-0.7
		c-0.6,0-1.2-0.2-1.6-0.6S217.8,81.4,217.3,81.8z"/>
	<polygon class="st0" points="106.4,131.6 111.5,124.4 111.8,121 109.1,123.3 	"/>
	<polygon class="st0" points="128.8,100.3 116.7,110.3 116.1,113.1 118.9,112.5 	"/>
	<polygon class="st0" points="115.7,109.7 114.2,95.9 112.6,109.7 114.2,112.1 	"/>
	<polygon class="st0" points="115.5,115 114.2,113.6 112.8,115 114.2,116.3 	"/>
	<polygon class="st0" points="120.6,112.5 124.6,112.5 130.9,108.1 123.6,109.7 	"/>
	<polygon class="st0" points="111.8,108.9 111.5,105.4 106.4,98.2 109.1,106.5 	"/>
	<polygon class="st0" points="112.3,113.1 111.7,110.3 99.5,100.4 109.6,112.5 	"/>
	<polygon class="st0" points="111.4,115 108.9,113.4 95.2,114.9 108.9,116.4 	"/>
	<polygon class="st0" points="108.1,112.4 105,109.7 97.7,108 104,112.4 	"/>
	<polygon class="st0" points="108.4,117.5 104.4,117.5 98.1,121.8 105.3,120.2 	"/>
	<polygon class="st0" points="99.9,129.5 112,119.5 112.6,116.7 109.8,117.3 	"/>
	<polygon class="st0" points="115.6,116.4 116.2,119.2 128.4,129.1 118.4,117.1 	"/>
	<polygon class="st0" points="116.8,115 119.2,116.4 133,114.9 119.2,113.4 	"/>
	<polygon class="st0" points="120.4,117.3 123.5,120.1 130.8,121.7 124.4,117.3 	"/>
	<polygon class="st0" points="116.7,121 116.9,124.4 122.1,131.6 119.4,123.3 	"/>
	<polygon class="st0" points="112.6,120.5 114.2,134.3 115.7,120.5 114.2,118.1 	"/>
	<polygon class="st0" points="122.1,98.2 116.9,105.4 116.7,108.9 119.4,106.5 	"/>
	<polygon class="st0" points="249.8,113.1 249.2,110.3 237,100.4 247.1,112.5 	"/>
	<polygon class="st0" points="254.2,121 254.4,124.4 259.6,131.6 256.9,123.3 	"/>
	<polygon class="st0" points="249.3,108.9 249,105.4 243.9,98.2 246.6,106.5 	"/>
	<polygon class="st0" points="243.9,131.6 249,124.4 249.3,121 246.6,123.3 	"/>
	<polygon class="st0" points="253,115 251.7,113.6 250.3,115 251.7,116.3 	"/>
	<polygon class="st0" points="250.1,120.5 251.7,134.3 253.2,120.5 251.7,118.1 	"/>
	<polygon class="st0" points="266.3,100.3 254.2,110.3 253.6,113.1 256.4,112.5 	"/>
	<polygon class="st0" points="245.9,117.5 241.9,117.5 235.6,121.8 242.8,120.2 	"/>
	<polygon class="st0" points="254.3,115 256.7,116.4 270.5,114.9 256.7,113.4 	"/>
	<polygon class="st0" points="258.1,112.5 262.1,112.5 268.4,108.1 261.1,109.7 	"/>
	<polygon class="st0" points="259.6,98.2 254.4,105.4 254.2,108.9 256.9,106.5 	"/>
	<polygon class="st0" points="257.9,117.3 261,120.1 268.3,121.7 261.9,117.3 	"/>
	<polygon class="st0" points="237.4,129.5 249.5,119.5 250.1,116.7 247.3,117.3 	"/>
	<polygon class="st0" points="253.1,116.4 253.7,119.2 265.9,129.1 255.9,117.1 	"/>
	<polygon class="st0" points="253.2,109.7 251.7,95.9 250.1,109.7 251.7,112.1 	"/>
	<polygon class="st0" points="245.6,112.4 242.5,109.7 235.2,108 241.5,112.4 	"/>
	<polygon class="st0" points="248.9,115 246.4,113.4 232.7,114.9 246.4,116.4 	"/>
	<path class="st0" d="M83.9,108.2c0-0.6-0.1-1.2-0.3-1.7l-2.5-1.6c-0.5,1.9-1.4,3.4-3.6,3.4h-2.3V106c0-2.2,1.4-3,3.4-3.6L77,99.9
		c-0.5-0.2-1.1-0.3-1.7-0.3c-3.9,0-5.7,2.7-5.7,6.4v8.1h8.1C81.2,113.9,83.9,112.1,83.9,108.2z"/>
	<path class="st0" d="M52.7,122c0,0.6,0.1,1.2,0.3,1.7l2.5,1.6c0.5-1.9,1.4-3.4,3.6-3.4h2.3v2.3c0,2.2-1.4,3-3.4,3.6l1.6,2.5
		c0.5,0.2,1.1,0.3,1.7,0.3c3.9,0,5.7-2.7,5.7-6.4v-8h-8C55.3,116.3,52.7,118.1,52.7,122z"/>
	<path class="st0" d="M75.2,130.7c0.6,0,1.2-0.1,1.7-0.3l1.6-2.5c-1.9-0.5-3.4-1.4-3.4-3.6V122h2.3c2.2,0,3,1.4,3.6,3.4l2.5-1.6
		c0.2-0.5,0.3-1.1,0.3-1.7c0-3.9-2.7-5.7-6.4-5.7h-8v8.1C69.4,128.1,71.3,130.7,75.2,130.7z"/>
	<path class="st0" d="M59,113.9h8v-8c0-3.7-1.8-6.4-5.7-6.4c-0.6,0-1.2,0.1-1.7,0.3l-1.6,2.5c1.9,0.5,3.4,1.4,3.4,3.6v2.3H59
		c-2.2,0-3-1.4-3.6-3.4l-2.5,1.6c-0.2,0.5-0.3,1.1-0.3,1.7C52.6,112.1,55.3,113.9,59,113.9z"/>
	<path class="st0" d="M190.2,167.9c0,0.6,0.1,1.2,0.3,1.7l2.5,1.6c0.5-1.9,1.4-3.4,3.6-3.4h2.3v2.3c0,2.2-1.4,3-3.4,3.6l1.6,2.5
		c0.5,0.2,1.1,0.3,1.7,0.3c3.9,0,5.7-2.7,5.7-6.4v-8h-8C192.8,162.1,190.2,164,190.2,167.9z"/>
	<path class="st0" d="M212.7,176.6c0.6,0,1.2-0.1,1.7-0.3l1.6-2.5c-1.9-0.5-3.4-1.4-3.4-3.6v-2.3h2.3c2.2,0,3,1.4,3.6,3.4l2.5-1.6
		c0.2-0.5,0.3-1.1,0.3-1.7c0-3.9-2.7-5.7-6.4-5.7h-8v8.1C206.9,173.9,208.8,176.6,212.7,176.6z"/>
	<path class="st0" d="M221.4,154c0-0.6-0.1-1.2-0.3-1.7l-2.5-1.6c-0.5,1.9-1.4,3.4-3.6,3.4h-2.3v-2.3c0-2.2,1.4-3,3.4-3.6l-1.6-2.5
		c-0.5-0.2-1.1-0.3-1.7-0.3c-3.9,0-5.7,2.7-5.7,6.4v8.1h8.1C218.7,159.7,221.4,157.9,221.4,154z"/>
	<path class="st0" d="M196.5,159.7h8.1v-8c0-3.7-1.8-6.4-5.7-6.4c-0.6,0-1.2,0.1-1.7,0.3l-1.6,2.5c1.9,0.5,3.4,1.4,3.4,3.6v2.3h-2.3
		c-2.2,0-3-1.4-3.6-3.4l-2.5,1.6c-0.2,0.5-0.3,1.1-0.3,1.7C190.1,157.9,192.8,159.7,196.5,159.7z"/>
	
		<rect x="109.2" y="64.4" transform="matrix(0.7071 -0.7071 0.7071 0.7071 -15.5563 100.9806)" class="st0" width="9.8" height="9.8"/>
	
		<rect x="119.2" y="74.4" transform="matrix(0.7071 -0.7071 0.7071 0.7071 -19.7478 110.9806)" class="st0" width="9.8" height="9.8"/>
	
		<rect x="98.8" y="74.8" transform="matrix(0.7071 -0.7071 0.7071 0.7071 -25.9562 96.6676)" class="st0" width="9.8" height="9.8"/>
	<rect x="119.6" y="54" transform="matrix(0.7071 -0.7071 0.7071 0.7071 -5.1565 105.2937)" class="st0" width="9.8" height="9.8"/>
	<rect x="98.8" y="54" transform="matrix(0.7071 -0.7071 0.7071 0.7071 -11.2433 90.5807)" class="st0" width="9.8" height="9.8"/>
	
		<rect x="246.7" y="156" transform="matrix(0.7071 -0.7071 0.7071 0.7071 -40.0828 225.0082)" class="st0" width="9.8" height="9.8"/>
	
		<rect x="256.7" y="166.1" transform="matrix(0.7071 -0.7071 0.7071 0.7071 -44.3035 235.0789)" class="st0" width="9.8" height="9.8"/>
	
		<rect x="236.3" y="166.4" transform="matrix(0.7071 -0.7071 0.7071 0.7071 -50.4827 220.6952)" class="st0" width="9.8" height="9.8"/>
	
		<rect x="257.1" y="145.6" transform="matrix(0.7071 -0.7071 0.7071 0.7071 -29.6829 229.3213)" class="st0" width="9.8" height="9.8"/>
	
		<rect x="236.3" y="145.6" transform="matrix(0.7071 -0.7071 0.7071 0.7071 -35.7697 214.6084)" class="st0" width="9.8" height="9.8"/>
	
		<rect x="119.6" y="191.5" transform="matrix(0.7071 -0.7071 0.7071 0.7071 -102.4205 145.5656)" class="st0" width="9.8" height="9.8"/>
	
		<rect x="109.2" y="201.9" transform="matrix(0.7071 -0.7071 0.7071 0.7071 -112.8212 141.2526)" class="st0" width="9.8" height="9.8"/>
	
		<rect x="119.3" y="212" transform="matrix(0.7071 -0.7071 0.7071 0.7071 -116.9712 151.3526)" class="st0" width="9.8" height="9.8"/>
	
		<rect x="98.8" y="212.3" transform="matrix(0.7071 -0.7071 0.7071 0.7071 -123.226 136.9399)" class="st0" width="9.8" height="9.8"/>
	
		<rect x="98.8" y="191.5" transform="matrix(0.7071 -0.7071 0.7071 0.7071 -108.5067 130.8527)" class="st0" width="9.8" height="9.8"/>
	<rect x="257.1" y="54" transform="matrix(0.7071 -0.7071 0.7071 0.7071 35.0781 202.5205)" class="st0" width="9.8" height="9.8"/>
	
		<rect x="246.7" y="64.4" transform="matrix(0.7071 -0.7071 0.7071 0.7071 24.6778 198.2081)" class="st0" width="9.8" height="9.8"/>
	
		<rect x="256.8" y="74.5" transform="matrix(0.7071 -0.7071 0.7071 0.7071 20.5271 208.3088)" class="st0" width="9.8" height="9.8"/>
	
		<rect x="236.3" y="74.8" transform="matrix(0.7071 -0.7071 0.7071 0.7071 14.2744 193.8991)" class="st0" width="9.8" height="9.8"/>
	<rect x="236.3" y="54" transform="matrix(0.7071 -0.7071 0.7071 0.7071 28.9917 187.807)" class="st0" width="9.8" height="9.8"/>
	<path class="st0" d="M102.3,33.3h23.6l-2.3-10c1.9-2.2,3.1-5.1,3.1-8.3V9.8h-5.1v5.1l0,0h-5V9.8h-5.1v5.1h-5.1V9.8h-5.1V15
		c0,3.2,1.2,6.1,3.1,8.3L102.3,33.3z M111.5,19.9h5.1v7.6h-5.1V19.9z"/>
	<polygon class="st0" points="126.3,35.2 101.8,35.2 101.4,37.1 126.7,37.1 	"/>
	<path class="st0" d="M239.8,262.5h23.6l-2.3-10c1.9-2.2,3.1-5.1,3.1-8.3v-5.3h-5.1v5.1l0,0h-5v-5.1H249v5.1h-5v-5.1h-5.1v5.3
		c0,3.2,1.2,6.1,3.1,8.3L239.8,262.5z M249,249h5.1v7.6H249V249z"/>
	<polygon class="st0" points="263.8,264.4 239.3,264.4 238.9,266.3 264.2,266.3 	"/>
	<polygon class="st0" points="96,161 114.1,161 96,146.7 	"/>
	<polygon class="st0" points="114.1,175.1 114.1,161 96,175.1 	"/>
	<polygon class="st0" points="114.1,146.7 114.1,161 132.1,146.7 	"/>
	<polygon class="st0" points="132.1,161 114.1,161 132.1,175.1 	"/>
	<path class="st0" d="M61,255.6l-4.8,9l9-4.8l3,9.7l3-9.7l9,4.8l-4.8-9l9.8-3l-9.8-3l4.8-9l-9,4.7l-3-9.8l-3,9.8l-9-4.7l4.8,9
		l-9.8,3L61,255.6z M57.5,241.9l8,4.3l2.7-8.7l2.7,8.7l8-4.3l-4.2,8.1l8.7,2.7l-8.7,2.7l4.2,8l-8-4.3l-2.7,8.7l-2.7-8.7l-8,4.3
		l4.2-8l-8.7-2.7l8.7-2.7L57.5,241.9z"/>
	<polygon class="st0" points="77.6,243.2 68.2,252.6 73.8,250.3 	"/>
	<polygon class="st0" points="58.9,243.4 68.2,252.6 66,247.2 	"/>
	<polygon class="st0" points="55,252.6 68.2,252.6 62.7,250.3 	"/>
	<polygon class="st0" points="68.2,239.4 68.2,252.6 70.5,246.9 	"/>
	<polygon class="st0" points="77.5,261.8 68.2,252.6 70.5,258.2 	"/>
	<polygon class="st0" points="81.5,252.6 68.2,252.6 73.8,254.9 	"/>
	<polygon class="st0" points="68.2,265.9 68.2,252.6 65.9,258.2 	"/>
	<polygon class="st0" points="58.8,262.1 68.2,252.6 62.6,255 	"/>
	<polygon class="st0" points="205.7,10.2 205.7,23.4 208,17.8 	"/>
	<polygon class="st0" points="205.7,36.7 205.7,23.5 203.4,29 	"/>
	<path class="st0" d="M198.5,26.4l-4.8,9l9-4.8l3,9.7l3-9.7l9,4.8l-4.8-9l9.8-3l-9.8-3l4.8-9l-9,4.7l-3-9.8l-3,9.8l-9-4.7l4.8,9
		l-9.8,3L198.5,26.4z M195,12.7l8,4.3l2.7-8.7l2.7,8.7l8-4.3l-4.2,8.1l8.7,2.7l-8.7,2.7l4.2,8l-8-4.3l-2.7,8.7l-2.7-8.7l-8,4.3
		l4.2-8l-8.7-2.7l8.7-2.7L195,12.7z"/>
	<polygon class="st0" points="215,32.6 205.7,23.5 208,29.1 	"/>
	<polygon class="st0" points="196.3,32.9 205.7,23.5 200.1,25.8 	"/>
	<polygon class="st0" points="219,23.5 205.7,23.5 211.3,25.8 	"/>
	<polygon class="st0" points="196.4,14.2 205.7,23.5 203.5,18 	"/>
	<polygon class="st0" points="192.5,23.5 205.7,23.5 200.2,21.1 	"/>
	<polygon class="st0" points="215.1,14.1 205.7,23.5 211.3,21.1 	"/>
	<polygon class="st0" points="12.4,115.3 22.4,105.3 12.4,105.3 	"/>
	<polygon class="st0" points="12.4,125.3 22.4,125.3 12.4,115.3 	"/>
	<polygon class="st0" points="32.5,125.3 32.5,115.3 22.4,125.3 	"/>
	<polygon class="st0" points="32.5,105.3 22.4,105.3 32.5,115.3 	"/>
	<polygon class="st0" points="37.5,110.3 37.5,100.2 27.5,100.2 	"/>
	<polygon class="st0" points="22.4,100.2 27.5,95.2 17.4,95.2 	"/>
	<polygon class="st0" points="42.5,110.3 37.5,115.3 42.5,120.3 	"/>
	<polygon class="st0" points="17.4,135.3 27.5,135.3 22.4,130.3 	"/>
	<polygon class="st0" points="2.4,120.3 7.4,115.3 2.4,110.3 	"/>
	<polygon class="st0" points="42.5,95.2 32.5,95.2 42.5,105.3 	"/>
	<polygon class="st0" points="7.4,130.3 17.4,130.3 7.4,120.3 	"/>
	<polygon class="st0" points="2.4,135.3 12.4,135.3 2.4,125.3 	"/>
	<polygon class="st0" points="27.5,130.3 37.5,130.3 37.5,120.3 	"/>
	<polygon class="st0" points="42.5,135.3 42.5,125.3 37.5,130.3 32.5,135.3 	"/>
	<polygon class="st0" points="7.4,110.3 17.4,100.2 7.4,100.2 	"/>
	<polygon class="st0" points="2.4,105.3 12.4,95.2 2.4,95.2 	"/>
	<polygon class="st0" points="149.9,150.9 149.9,160.9 159.9,150.9 	"/>
	<polygon class="st0" points="149.9,160.9 149.9,171 159.9,171 	"/>
	<polygon class="st0" points="169.9,171 169.9,160.9 159.9,171 	"/>
	<polygon class="st0" points="169.9,150.9 159.9,150.9 169.9,160.9 	"/>
	<polygon class="st0" points="174.9,155.9 174.9,145.9 164.9,145.9 	"/>
	<polygon class="st0" points="180,150.9 180,140.9 169.9,140.9 174.9,145.9 	"/>
	<polygon class="st0" points="164.9,140.9 154.9,140.9 159.9,145.9 	"/>
	<polygon class="st0" points="180,165.9 180,155.9 174.9,160.9 	"/>
	<polygon class="st0" points="154.9,181 164.9,181 159.9,176 	"/>
	<polygon class="st0" points="139.9,155.9 139.9,165.9 144.9,160.9 	"/>
	<polygon class="st0" points="144.9,176 154.9,176 144.9,165.9 	"/>
	<polygon class="st0" points="139.9,171 139.9,181 149.9,181 	"/>
	<polygon class="st0" points="164.9,176 174.9,176 174.9,165.9 	"/>
	<polygon class="st0" points="169.9,181 180,181 180,171 174.9,176 	"/>
	<polygon class="st0" points="144.9,155.9 154.9,145.9 144.9,145.9 149.9,140.9 139.9,140.9 139.9,150.9 144.9,145.9 	"/>
	<polygon class="st0" points="7.8,89.5 14.5,89.5 11.1,86.2 	"/>
	<polygon class="st0" points="14.5,49 7.8,49 11.1,52.3 	"/>
	<polygon class="st0" points="2.2,54.6 2.2,61.3 5.5,58 	"/>
	<polygon class="st0" points="2.2,83.9 5.5,80.6 2.2,77.2 	"/>
	<polygon class="st0" points="2.2,72.6 5.5,69.3 11.1,74.9 16.8,69.3 22.4,74.9 16.8,80.6 22.4,86.2 19.1,89.5 25.8,89.5 22.5,86.2 
		28.1,80.6 22.5,74.9 28.1,69.3 33.7,74.9 39.4,69.3 42.7,72.6 42.7,65.9 39.4,69.3 33.7,63.6 28.1,69.3 22.5,63.6 28.1,58 
		22.5,52.3 25.8,49 19.1,49 22.4,52.3 16.8,58 22.4,63.6 16.8,69.3 11.1,63.6 5.5,69.3 2.2,65.9 	"/>
	<polygon class="st0" points="37.1,49 30.4,49 33.7,52.3 	"/>
	<polygon class="st0" points="42.7,54.6 39.4,58 42.7,61.3 	"/>
	<polygon class="st0" points="42.7,83.9 42.7,77.2 39.4,80.6 	"/>
	<polygon class="st0" points="30.4,89.5 37.1,89.5 33.7,86.2 	"/>
	<polygon class="st0" points="145.3,227 151.9,227 148.6,223.7 	"/>
	<polygon class="st0" points="151.9,186.5 145.3,186.5 148.6,189.8 	"/>
	<polygon class="st0" points="139.6,192.1 139.6,198.8 143,195.5 	"/>
	<polygon class="st0" points="139.6,214.7 139.6,221.4 143,218.1 	"/>
	<polygon class="st0" points="148.6,212.4 154.3,206.8 159.9,212.4 154.3,218.1 159.9,223.7 156.6,227 163.2,227 159.9,223.7 
		165.6,218.1 159.9,212.4 165.6,206.8 171.2,212.4 176.9,206.8 180.2,210.1 180.2,203.4 176.9,206.8 171.2,201.1 165.6,206.8 
		159.9,201.1 165.6,195.5 159.9,189.8 163.2,186.5 156.6,186.5 159.9,189.8 154.3,195.5 159.9,201.1 154.3,206.8 148.6,201.1 
		143,206.8 139.6,203.4 139.6,210.1 143,206.8 	"/>
	<polygon class="st0" points="174.5,186.5 167.9,186.5 171.2,189.8 	"/>
	<polygon class="st0" points="180.2,192.1 176.9,195.5 180.2,198.8 	"/>
	<polygon class="st0" points="180.2,221.4 180.2,214.7 176.9,218.1 	"/>
	<polygon class="st0" points="167.9,227 174.5,227 171.2,223.7 	"/>
	<path class="st0" d="M14.7,23.4l7.7,7.7l7.7-7.7l-7.7-7.7L14.7,23.4z M22.4,29.6l-6.2-6.2l6.2-6.2l6.2,6.2L22.4,29.6z"/>
	<path class="st0" d="M24.8,33.5l7.7,7.7l7.7-7.7l-7.7-7.7L24.8,33.5z M32.5,39.7l-6.2-6.2l6.2-6.2l6.2,6.2L32.5,39.7z"/>
	<path class="st0" d="M12,41.5l7.7-7.7L12,26.2l-7.7,7.7L12,41.5z M18.2,33.8L12,40l-6.2-6.2l6.2-6.2L18.2,33.8z"/>
	<path class="st0" d="M32.8,5.4L25.1,13l7.7,7.7l7.7-7.7L32.8,5.4z M26.6,13l6.2-6.2L39,13l-6.2,6.2L26.6,13z"/>
	<path class="st0" d="M4.3,13l7.7,7.7l7.7-7.7L12,5.4L4.3,13z M12,19.2L5.8,13L12,6.8l6.2,6.2L12,19.2z"/>
	<path class="st0" d="M159.9,260.3l7.7-7.7l-7.7-7.7l-7.7,7.7L159.9,260.3z M166.1,252.6l-6.2,6.2l-6.2-6.2l6.2-6.2L166.1,252.6z"/>
	<path class="st0" d="M162.3,262.7l7.7,7.7l7.7-7.7L170,255L162.3,262.7z M170,268.9l-6.2-6.2l6.2-6.2l6.2,6.2L170,268.9z"/>
	<path class="st0" d="M157.2,263l-7.7-7.7l-7.7,7.7l7.7,7.7L157.2,263z M149.5,256.8l6.2,6.2l-6.2,6.2l-6.2-6.2L149.5,256.8z"/>
	<path class="st0" d="M178,242.2l-7.7-7.7l-7.7,7.7l7.7,7.7L178,242.2z M170.3,236l6.2,6.2l-6.2,6.2l-6.2-6.2L170.3,236z"/>
	<path class="st0" d="M157.2,242.2l-7.7-7.7l-7.7,7.7l7.7,7.7L157.2,242.2z M149.5,236l6.2,6.2l-6.2,6.2l-6.2-6.2L149.5,236z"/>
	<path class="st0" d="M36.2,209.6v-19.5H8.6v19.5c0,7.6,6.2,13.8,13.8,13.8C30,223.4,36.2,217.2,36.2,209.6z M10.7,209.6v-17.5h23.4
		v17.5c0,6.5-5.3,11.7-11.7,11.7S10.7,216.1,10.7,209.6z"/>
	
		<ellipse transform="matrix(0.7071 -0.7071 0.7071 0.7071 -139.6619 76.4228)" class="st0" cx="22.4" cy="206.8" rx="2.7" ry="2.7"/>
	<ellipse transform="matrix(0.7071 -0.7071 0.7071 0.7071 -137.2715 70.6243)" class="st0" cx="16.6" cy="201" rx="2.7" ry="2.7"/>
	<ellipse transform="matrix(0.7071 -0.7071 0.7071 0.7071 -133.8571 78.8098)" class="st0" cx="28.2" cy="201" rx="2.7" ry="2.7"/>
	
		<ellipse transform="matrix(0.7071 -0.7071 0.7071 0.7071 -142.0133 82.1536)" class="st0" cx="28.2" cy="212.5" rx="2.7" ry="2.7"/>
	<ellipse transform="matrix(0.7071 -0.7071 0.7071 0.7071 -145.4277 73.968)" class="st0" cx="16.6" cy="212.5" rx="2.7" ry="2.7"/>
	<path class="st0" d="M159.9,85.9c7.6,0,13.8-6.2,13.8-13.8V52.6h-27.5v19.5C146.1,79.7,152.3,85.9,159.9,85.9z M148.2,54.7h23.4
		v17.5c0,6.5-5.3,11.7-11.7,11.7l0,0c-6.5,0-11.7-5.3-11.7-11.7V54.7z"/>
	<ellipse transform="matrix(0.7071 -0.7071 0.7071 0.7071 -2.1514 133.3755)" class="st0" cx="159.9" cy="69.3" rx="2.7" ry="2.7"/>
	<ellipse transform="matrix(0.7071 -0.7071 0.7071 0.7071 0.2281 127.5813)" class="st0" cx="154.1" cy="63.5" rx="2.7" ry="2.7"/>
	<ellipse transform="matrix(0.7071 -0.7071 0.7071 0.7071 3.6424 135.7669)" class="st0" cx="165.7" cy="63.5" rx="2.7" ry="2.7"/>
	<ellipse transform="matrix(0.7071 -0.7071 0.7071 0.7071 -4.5138 139.1107)" class="st0" cx="165.7" cy="75" rx="2.7" ry="2.7"/>
	<ellipse transform="matrix(0.7071 -0.7071 0.7071 0.7071 -7.9282 130.9251)" class="st0" cx="154.1" cy="75" rx="2.7" ry="2.7"/>
	<path class="st0" d="M10.4,249.8l-2.8-8.1v21.9l2.8-8.1h9.2v9.2l-8.1,2.8h21.9l-8.1-2.8v-9.2h9.2l2.8,8.1v-21.9l-2.8,8.1h-9.2v-9.2
		l8.1-2.8H11.5l8.1,2.8v9.2L10.4,249.8L10.4,249.8z M21.9,252v-11.4h1.3V252h11.2v1.3H23.1v11.4h-1.3v-11.4H10.4V252H21.9z"/>
	<path class="st0" d="M157.1,26.2v9.2l-8.1,2.8h21.9l-8.1-2.8v-9.2h9.2l2.8,8.1V12.5l-2.8,8.1h-9.2v-9.2l8.1-2.8H149l8.1,2.8v9.2
		h-9.2l-2.8-8.1v21.9l2.8-8.1h9.2V26.2z M147.9,22.8h11.5V11.5h1.3v11.4h11.2v1.3h-11.2v11.4h-1.3V24.1h-11.5V22.8z"/>
	<path class="st0" d="M114.2,268.5c7.4,0,13.8-5.4,13.8-13.5s-6-11.8-7-12.4c-1.6-1-3.2-1.4-4.7-2.4c-1-0.6-2.3-2.2-3.4-3.5
		c-0.2,2.1-0.9,3-1.6,3.6c-1.6,1.2-2.6,1.6-3.9,2.3c-1.1,0.6-7.3,4.3-7.3,12.2S106.8,268.5,114.2,268.5z M121.2,265.7
		c-0.2,0.2-1.6,1.1-3.2,1.3c-1.7,0.2-3.9,0.2-5.3-1c-0.2-0.2-0.2-0.5,0-0.6s0.3-0.2,0.5-0.2s0.2,0,0.2,0.1c0.6,0.5,1.5,0.9,3.5,0.9
		s3.3-0.6,4-1c0.3-0.2,0.4,0,0.4,0.1C121.3,265.3,121.4,265.4,121.2,265.7z M115.8,262.9c0.3-0.3,0.9-0.8,1.4-1s0.8-0.2,1.3-0.2
		s1,0,1.4,0.3c0.4,0.2,0.6,0.8,0.7,1.1c0.1,0.3,0,0.5-0.2,0.6s-0.2,0.1-0.5-0.3c-0.2-0.4-0.4-0.8-1.5-0.8s-1.4,0.4-1.9,0.8
		s-0.7,0.6-0.9,0.3S115.5,263.2,115.8,262.9z M119.2,258.4c1.5,0,4.5-3,5.9-3c1.5,0,2,1.6,2,2.6s-0.3,2.7-1,3.7
		c-0.7,1.1-1.2,1.5-2.1,1.4c-1.1-0.1-3.3-3.5-4.7-3.6c-1.8-0.1-5.7,3.7-8.7,3.7c-1.8,0-2.4-0.3-3-0.7c-0.9-0.6-1.4-1.6-1.4-3
		c0-2.4,2.3-4.6,5.1-4.7C114.9,254.9,117.4,258.5,119.2,258.4z M103.2,247.7c-0.1-0.1-0.6-0.3-0.1-1c1.5-2.3,4.4-3.9,5.2-4.3
		c0.3-0.2,1.7-0.8,3-1.8c0.8-0.6,1.4-1.3,1.7-3.3c0.2,0.7,0.3,1.3,0.2,2.1c0,0.8-0.8,1.3-0.9,1.4c-0.2,0.1-0.8,0.4-1,0.5
		s-0.1,0.2,0,0.2c0.2,0.1,0.4,0.2,0.4,0.4s-0.1,0.6-0.8,1.3c-1.3,1.3-2.2,2.1-4.5,3.5S103.3,247.8,103.2,247.7z"/>
	<path class="st0" d="M251.7,39.4c7.4,0,13.8-5.4,13.8-13.5s-6-11.8-7-12.4c-1.6-1-3.2-1.4-4.7-2.4c-1-0.6-2.3-2.2-3.4-3.5
		c-0.2,2.1-0.9,3-1.6,3.6c-1.6,1.2-2.6,1.6-3.9,2.3c-1.1,0.6-7.3,4.3-7.3,12.2S244.3,39.4,251.7,39.4z M258.7,36.5
		c-0.2,0.2-1.6,1.1-3.2,1.3c-1.7,0.2-3.9,0.2-5.3-1c-0.2-0.2-0.2-0.5,0-0.6s0.3-0.2,0.5-0.2s0.2,0,0.2,0.1c0.6,0.5,1.5,0.9,3.5,0.9
		c2,0,3.3-0.6,4-1c0.3-0.2,0.4,0,0.4,0.1C258.8,36.1,258.9,36.3,258.7,36.5z M253.3,33.7c0.3-0.3,0.9-0.8,1.4-1s0.8-0.2,1.3-0.2
		s1,0,1.4,0.3c0.4,0.2,0.6,0.8,0.7,1.1s0,0.5-0.2,0.6s-0.2,0.1-0.5-0.3c-0.2-0.4-0.4-0.8-1.5-0.8s-1.4,0.4-1.9,0.8
		c-0.5,0.4-0.7,0.6-0.9,0.3S253,34,253.3,33.7z M256.7,29.3c1.5,0,4.5-3,5.9-3c1.5,0,2,1.6,2,2.6s-0.3,2.7-1,3.7
		c-0.7,1.1-1.2,1.5-2.1,1.4c-1.1-0.1-3.3-3.5-4.7-3.6c-1.8-0.1-5.7,3.7-8.7,3.7c-1.8,0-2.4-0.3-3-0.7c-0.9-0.6-1.4-1.6-1.4-3
		c0-2.4,2.3-4.6,5.1-4.7C252.4,25.7,254.9,29.3,256.7,29.3z M240.7,18.5c-0.1-0.1-0.6-0.3-0.1-1c1.5-2.3,4.4-3.9,5.2-4.3
		c0.3-0.2,1.7-0.8,3-1.8c0.8-0.6,1.4-1.3,1.7-3.3c0.2,0.7,0.3,1.3,0.2,2.1c0,0.8-0.8,1.3-0.9,1.4c-0.2,0.1-0.8,0.4-1,0.5
		s-0.1,0.2,0,0.2c0.2,0.1,0.4,0.2,0.4,0.4s-0.1,0.6-0.8,1.3c-1.3,1.3-2.2,2.1-4.5,3.5C241.9,18.7,240.8,18.6,240.7,18.5z"/>
	<path class="st0" d="M53.5,42l4.4-7.7c2.8,1.6,6,2.5,9.3,2.7v1.9h2.1V37c3.3-0.2,6.5-1.1,9.3-2.7L83,42l1.8-1l-4.5-7.8
		c0.9-0.7,1.8-1.4,2.7-2.2l-1.5-1.5c-0.7,0.7-1.5,1.3-2.3,1.9L71.5,18c1-0.9,1.6-2.2,1.6-3.6c0-2.3-1.7-4.3-3.9-4.8V4.9h-2.1v4.7
		c-2.2,0.5-3.9,2.4-3.9,4.8c0,1.4,0.6,2.7,1.6,3.6l-7.7,13.4c-0.8-0.6-1.6-1.2-2.3-1.9L53.3,31c0.8,0.8,1.7,1.6,2.7,2.2L51.7,41
		L53.5,42z M68.2,11.5c1.6,0,2.8,1.3,2.8,2.8c0,1.6-1.3,2.8-2.8,2.8c-1.6,0-2.8-1.3-2.8-2.8C65.4,12.8,66.7,11.5,68.2,11.5z
		 M66.7,19c0.5,0.2,1,0.3,1.5,0.3s1-0.1,1.5-0.3l7.8,13.5c-2.5,1.4-5.3,2.3-8.3,2.4v-1.8h-2.1v1.8c-2.9-0.2-5.8-1-8.3-2.4L66.7,19z"
		/>
	<path class="st0" d="M191,271.2l4.4-7.7c2.8,1.6,6,2.5,9.3,2.7v1.9h2.1v-1.9c3.3-0.2,6.5-1.1,9.3-2.7l4.4,7.7l1.8-1l-4.5-7.8
		c0.9-0.7,1.8-1.4,2.7-2.2l-1.5-1.5c-0.7,0.7-1.5,1.3-2.3,1.9l-7.7-13.4c1-0.9,1.6-2.2,1.6-3.6c0-2.3-1.7-4.3-3.9-4.8V234h-2.1v4.7
		c-2.2,0.5-3.9,2.4-3.9,4.8c0,1.4,0.6,2.7,1.6,3.6l-7.7,13.4c-0.8-0.6-1.6-1.2-2.3-1.9l-1.5,1.5c0.8,0.8,1.7,1.6,2.7,2.2l-4.5,7.8
		L191,271.2z M205.7,240.7c1.6,0,2.8,1.3,2.8,2.8c0,1.6-1.3,2.8-2.8,2.8c-1.6,0-2.8-1.3-2.8-2.8S204.2,240.7,205.7,240.7z
		 M204.2,248.2c0.5,0.2,1,0.3,1.5,0.3s1-0.1,1.5-0.3l7.8,13.5c-2.5,1.4-5.3,2.3-8.3,2.4v-1.8h-2.1v1.8c-2.9-0.2-5.8-1-8.3-2.4
		L204.2,248.2z"/>
	<path class="st0" d="M68.2,86.5c9.7,0,17.6-7.9,17.6-17.6s-7.9-17.6-17.6-17.6s-17.6,7.9-17.6,17.6C50.7,78.6,58.5,86.5,68.2,86.5z
		 M68.2,53.4c8.6,0,15.5,7,15.5,15.5s-7,15.5-15.5,15.5s-15.5-7-15.5-15.5S59.7,53.4,68.2,53.4z"/>
	<polygon class="st0" points="76.5,61.1 65.7,66.2 59.9,77.7 71.5,71.9 	"/>
	<path class="st0" d="M205.7,224.3c9.7,0,17.6-7.9,17.6-17.6c0-9.7-7.9-17.6-17.6-17.6s-17.6,7.9-17.6,17.6
		C188.2,216.5,196,224.3,205.7,224.3z M205.7,191.2c8.6,0,15.5,7,15.5,15.5c0,8.6-7,15.5-15.5,15.5s-15.5-7-15.5-15.5
		S197.2,191.2,205.7,191.2z"/>
	<polygon class="st0" points="214,199 203.2,204 197.4,215.6 209,209.8 	"/>
	<polygon class="st0" points="237,227 243.6,227 240.3,223.7 	"/>
	<polygon class="st0" points="243.6,186.5 237,186.5 240.3,189.8 	"/>
	<polygon class="st0" points="231.3,192.1 231.3,198.8 234.6,195.5 	"/>
	<polygon class="st0" points="231.3,214.7 231.3,221.4 234.6,218.1 	"/>
	<polygon class="st0" points="240.3,212.4 245.9,206.8 251.6,212.4 245.9,218.1 251.6,223.7 248.3,227 254.9,227 251.6,223.7 
		257.2,218.1 251.6,212.4 257.2,206.8 262.9,212.4 268.5,206.8 271.8,210.1 271.8,203.4 268.5,206.8 262.9,201.1 257.2,206.8 
		251.6,201.1 257.2,195.5 251.6,189.8 254.9,186.5 248.3,186.5 251.6,189.8 245.9,195.5 251.6,201.1 245.9,206.8 240.3,201.1 
		234.6,206.8 231.3,203.4 231.3,210.1 234.6,206.8 	"/>
	<polygon class="st0" points="266.2,186.5 259.6,186.5 262.9,189.8 	"/>
	<polygon class="st0" points="271.8,192.1 268.5,195.5 271.8,198.8 	"/>
	<polygon class="st0" points="271.8,221.4 271.8,214.7 268.5,218.1 	"/>
	<polygon class="st0" points="259.6,227 266.2,227 262.9,223.7 	"/>
	<polygon class="st0" points="0,146.2 0,149.6 11.2,160.8 0,171.9 0,175.4 14.6,160.8 	"/>
	<polygon class="st0" points="0,155.7 0,159.1 1.7,160.8 0,162.4 0,165.9 5.1,160.8 	"/>
	<path class="st0" d="M229.2,0h-1h-44.8h-1h-44.8h-1H91.7h-1H45.8h-1H0v1h44.8v44.8H0v1h44.8v44.8H0v1h44.8v44.8H0v2.6l20.7,20.7
		L0,181.5v2.9h44.8v44.8H0v1h44.8V275H0v1h44.8h1h44.8h1h44.8h1h44.8h1H228h1h46v-45.8v-1v-44.8v-1v-44.8v-1V92.7v-1V46.9v-1V0
		H229.2z M23.9,138.5l-1.5,1.5l-1.5-1.5H23.9z M17.5,138.5l5,5l5-5h6.1l-11,11l-11-11H17.5z M1.9,138.5H8L22.4,153l14.5-14.5H43
		L22.5,159L1.9,138.5z M20.6,183.3l1.8-1.8l1.8,1.8H20.6z M27.7,183.3l-5.3-5.3l-5.3,5.3H11L22.4,172l11.3,11.3H27.7z M37.2,183.3
		l-14.8-14.8L7.6,183.3h-6l20.8-20.8l20.8,20.8H37.2z M44.8,162.4l-1.7-1.7l1.7-1.7V162.4z M44.8,155.7l-5.1,5.1l5.1,5.1v6.1
		l-11.2-11.2l11.2-11.2V155.7z M44.8,146.2l-14.6,14.6l14.6,14.6v6.1l-20.7-20.7l20.7-20.7V146.2z M90.6,275H45.8v-44.8h44.8V275z
		 M90.6,229.2H45.8v-44.8h44.8V229.2z M90.6,183.3H84l6.6-6.6V183.3z M90.6,145.7h-7.1v7.6l7.1-7.1v7.1h-7.1v7.6l7.1-7.1v7.1h-7.1
		v7.6l7.1-7.1v7.1h-7.1v7.6l7.1-7.1v7.1h-7.1v7.1h-7.1l7.1-7.1h-7.6v7.1h-7.1l7.1-7.1h-7.6v7.1h-7.1l7.1-7.1h-7.6v7.1h-7.1l7.1-7.1
		H53v7.1h-7.1l7.1-7.1h-7.1v-0.5l7.1-7.1h-7.1V168l7.1-7.1h-7.1v-0.5l7.1-7.1h-7.1v-0.5l7.1-7.1h-7.1v-0.5l6.6-6.6H53v7.1l7.1-7.1
		h0.5v7.1l7.1-7.1h0.5v7.1l7.1-7.1h0.5v7.1l7.1-7.1h0.5v7.1l7.1-7.1l0,0v7.1H90.6z M90.6,137.5H45.8V92.7h44.8V137.5z M90.6,91.7
		H45.8V46.9h44.8V91.7z M90.6,45.8H45.8V1h44.8V45.8z M136.5,275H91.7v-44.8h44.8V275z M136.5,201.4l-1.9-1.9l-6.9,6.9l6.9,6.9
		l1.9-1.9v10.7l-1.9-1.9l-6.9,6.9l1.9,1.9h-10.7l1.9-1.9l-6.9-6.9l-6.9,6.9l1.9,1.9h-10l1.5-1.5l-6.9-6.9l-1.6,1.6V212l1.6,1.6
		l6.9-6.9l-6.9-6.9l-1.6,1.6v-10.2l1.6,1.6l6.9-6.9l-1.6-1.6H109l-1.6,1.6l6.9,6.9l6.9-6.9l-1.6-1.6h10.2L128,186l6.9,6.9l1.5-1.5
		v10H136.5z M136.5,183.3H91.7v-44.8h44.8V183.3z M136.5,137.5H91.7V92.7h44.8V137.5z M136.5,91.7H91.7V46.9h44.8V91.7z M136.5,45.8
		H91.7V1h44.8V45.8z M137.5,113.4l1.7,1.7l-1.7,1.7V113.4z M137.5,120.2l5.1-5.1l-5.1-5.1v-6.1l11.2,11.2l-11.2,11.2V120.2z
		 M137.5,129.7l14.6-14.6l-14.6-14.6v-6.1l20.7,20.7l-20.7,20.7V129.7z M159.9,97.8l5.1-5.1h6.1l-11.2,11.2l-11.2-11.2h6.1
		L159.9,97.8z M158.3,92.7h3.3l-1.7,1.7L158.3,92.7z M159.9,107.3l14.6-14.6h6.1l-20.7,20.7l-20.7-20.7h6.1L159.9,107.3z
		 M159.9,132.4l-5.1,5.1h-6.1l11.2-11.2l11.2,11.2H165L159.9,132.4z M161.6,137.5h-3.3l1.7-1.7L161.6,137.5z M159.9,122.9
		l-14.6,14.6h-6.1l20.7-20.7l20.7,20.7h-6.1L159.9,122.9z M182.3,275h-44.8v-44.8h44.8V275z M182.3,229.2h-44.8v-44.8h44.8V229.2z
		 M182.3,183.3h-44.8v-44.8h44.8V183.3z M182.3,116.7l-1.7-1.7l1.7-1.7V116.7z M182.3,110l-5.1,5.1l5.1,5.1v6.1l-11.2-11.2
		l11.2-11.2V110z M182.3,100.5l-14.6,14.6l14.6,14.6v6.1l-20.7-20.7l20.7-20.7V100.5z M182.3,91.7h-44.8V46.9h44.8V91.7z
		 M182.3,45.8h-44.8V1h44.8V45.8z M183.3,92.7h6.6l-6.6,6.6V92.7z M228.1,275h-44.8v-44.8h44.8V275z M228.1,229.2h-44.8v-44.8h44.8
		V229.2z M228.1,183.3h-44.8v-44.8h44.8V183.3z M228.1,100.3l-7.1,7.1h7.1v0.5L221,115h7.1v0.5l-7.1,7.1h7.1v0.5l-7.1,7.1h7.1v0.5
		l-6.6,6.6H221v-7.1l-7.1,7.1h-0.5v-7.1l-7.1,7.1h-0.5v-7.1l-7.1,7.1h-0.5v-7.1l-7.1,7.1h-0.5v-7.1l-7.1,7.1l0,0v-7.1h7.1v-7.6
		l-7.1,7.1v-7.1h7.1V115l-7.1,7.1V115h7.1v-7.6l-7.1,7.1v-7.1h7.1v-7.6l-7.1,7.1v-7.1h7.1v-7.1h7.1l-7.1,7.1h7.6v-7.1h7.1l-7.1,7.1
		h7.6v-7.1h7.1l-7.1,7.1h7.6v-7.1h7.1l-7.1,7.1h7.6v-7.1h7.1l-7.1,7.1h7.1V100.3z M228.1,91.7h-44.8V46.9h44.8V91.7z M228.1,45.8
		h-44.8V1h44.8V45.8z M274,275h-44.8v-44.8H274V275z M274,229.2h-44.8v-44.8H274V229.2z M274,183.3h-44.8v-44.8H274V183.3z
		 M274,137.5h-44.8V92.7H274V137.5z M274,63.9l-1.9-1.9l-6.9,6.9l6.9,6.9L274,74v10.7l-1.9-1.9l-6.9,6.9l1.9,1.9h-10.7l1.9-1.9
		l-6.9-6.9l-6.9,6.9l1.9,1.9h-10l1.5-1.5l-6.9-6.9l-1.6,1.6V74.6l1.6,1.6l6.9-6.9l-6.9-6.9l-1.6,1.6V53.8l1.6,1.6l6.9-6.9l-1.6-1.6
		h10.2l-1.6,1.6l6.9,6.9l6.9-6.9l-1.6-1.6h10.2l-1.6,1.6l6.9,6.9l1.5-1.5L274,63.9L274,63.9z M274,45.8h-44.8V1H274V45.8z"/>
</g>
</svg>
