<?xml version="1.0" encoding="utf-8"?>
<!-- Generator: Adobe Illustrator 21.0.0, SVG Export Plug-In . SVG Version: 6.00 Build 0)  -->
<svg version="1.1" id="Layer_1" xmlns="http://www.w3.org/2000/svg" xmlns:xlink="http://www.w3.org/1999/xlink" x="0px" y="0px"
	 width="446.7px" height="90.3px" viewBox="0 0 446.7 90.3" style="enable-background:new 0 0 446.7 90.3;" xml:space="preserve">
<style type="text/css">
	.st0{fill:#FFFFFF;}
</style>
<g>
	<polygon class="st0" points="423.9,7.9 416.4,15.4 423.9,15.4 	"/>
	<polygon class="st0" points="431.3,15.4 431.3,7.9 423.9,15.4 	"/>
	<polygon class="st0" points="438.8,15.4 438.8,7.9 431.3,15.4 	"/>
	<polygon class="st0" points="423.9,15.4 416.4,22.8 423.9,22.8 	"/>
	<polygon class="st0" points="431.3,15.4 423.9,22.8 431.3,22.8 	"/>
	<polygon class="st0" points="438.8,22.8 438.8,15.4 431.3,22.8 	"/>
	<polygon class="st0" points="423.9,22.8 416.4,30.3 423.9,30.3 	"/>
	<polygon class="st0" points="423.9,30.3 431.3,30.3 431.3,22.8 	"/>
	<polygon class="st0" points="438.8,30.3 438.8,22.8 431.3,30.3 	"/>
	<polygon class="st0" points="423.9,30.3 416.4,37.7 416.4,37.7 423.9,37.7 	"/>
	<polygon class="st0" points="431.3,30.3 423.9,37.7 423.9,37.7 431.3,37.7 	"/>
	<polygon class="st0" points="438.8,30.3 431.3,37.7 431.3,37.7 438.8,37.7 	"/>
	<path class="st0" d="M191,73.7l-2.3-0.1l0.5,2.3l0.6,0.2c0.5,0.2,0.9,0.7,0.9,1.2l0.2,1.2h-0.7v0.8c0.4,0.3,0.8,0.4,1.3,0.4
		c0.6,0,1.1-0.2,1.6-0.6c0.4-0.4,1.1-0.4,1.6,0c0.4,0.4,1,0.6,1.6,0.6s1.1-0.2,1.6-0.6c0.4-0.4,1.1-0.4,1.6,0c0.4,0.4,1,0.6,1.6,0.6
		s1.1-0.2,1.6-0.6c0.4-0.4,1.1-0.4,1.6,0c0.4,0.4,1,0.6,1.6,0.6s1.1-0.2,1.6-0.6c0.4-0.4,1.1-0.4,1.6,0c0.4,0.4,1,0.6,1.6,0.6
		s1.1-0.2,1.6-0.6c0.3-0.3,0.6-0.3,1-0.3c0.8-0.9,1.5-2.1,1.7-3.3l0.5-2.8h-0.7l-0.8,1.7c0,0-4.5,1.2-9.9,1.7v-4.1H214
		c-2.4-4.4-6.5-9-10.5-11.6V54h-0.6v0.5h-3.1l0.8,1l-0.8,1h3.1v3.6c-5.4-3.5-10.4-6-10.4-6v9c-1.3-1-6.4-4.7-6.4-4.7v13.8h4.9V73.7z
		 M191.6,72.1h0.9h8.4h2v4.1c-0.1,0-0.2,0-0.3,0c0,0-6,0.8-6.7-2.3l-4.4-0.3V72.1z"/>
	<path class="st0" d="M211.8,79.8c-0.4,0.4-1,0.6-1.6,0.6s-1.1-0.2-1.6-0.6c-0.4-0.4-1.1-0.4-1.6,0c-0.4,0.4-1,0.6-1.6,0.6
		s-1.1-0.2-1.6-0.6c-0.4-0.4-1.1-0.4-1.6,0c-0.4,0.4-1,0.6-1.6,0.6s-1.1-0.2-1.6-0.6c-0.4-0.4-1.1-0.4-1.6,0c-0.4,0.4-1,0.6-1.6,0.6
		s-1.1-0.2-1.6-0.6c-0.4-0.4-1.1-0.4-1.6,0c-0.4,0.4-1,0.6-1.6,0.6c-0.6,0-1.1-0.2-1.6-0.6c-0.4-0.3-0.9-0.4-1.3-0.2v0.7
		c0.4-0.2,0.9-0.2,1.3,0.2c0.4,0.4,1,0.6,1.6,0.6c0.6,0,1.1-0.2,1.6-0.6c0.4-0.4,1.1-0.4,1.6,0c0.4,0.4,1,0.6,1.6,0.6
		s1.1-0.2,1.6-0.6c0.4-0.4,1.1-0.4,1.6,0c0.4,0.4,1,0.6,1.6,0.6s1.1-0.2,1.6-0.6c0.4-0.4,1.1-0.4,1.6,0c0.4,0.4,1,0.6,1.6,0.6
		s1.1-0.2,1.6-0.6c0.4-0.4,1.1-0.4,1.6,0c0.4,0.4,1,0.6,1.6,0.6s1.1-0.2,1.6-0.6c0.4-0.4,1.1-0.4,1.6,0c0.4,0.4,1,0.6,1.6,0.6v-0.7
		c-0.6,0-1.1-0.2-1.6-0.6C212.9,79.4,212.2,79.4,211.8,79.8z"/>
	<polygon class="st0" points="331.9,22.7 329.5,21.1 316.1,22.6 329.5,24.1 	"/>
	<polygon class="st0" points="332.8,20.9 332.2,18.2 320.4,8.5 330.1,20.3 	"/>
	<polygon class="st0" points="328.7,20.2 325.7,17.5 318.6,15.9 324.7,20.2 	"/>
	<polygon class="st0" points="342.3,6.4 337.3,13.4 337,16.8 339.7,14.5 	"/>
	<polygon class="st0" points="336.1,17.5 334.6,4.1 333.1,17.5 334.6,19.9 	"/>
	<polygon class="st0" points="340.9,20.3 344.8,20.3 350.9,16 343.9,17.6 	"/>
	<polygon class="st0" points="335.9,22.7 334.6,21.4 333.3,22.7 334.6,24 	"/>
	<polygon class="st0" points="348.8,8.4 337.1,18.2 336.5,20.9 339.2,20.3 	"/>
	<polygon class="st0" points="332.3,16.8 332,13.4 327.1,6.4 329.7,14.5 	"/>
	<polygon class="st0" points="337.1,22.7 339.5,24.1 352.9,22.6 339.5,21.1 	"/>
	<polygon class="st0" points="337,28.6 337.3,32 342.3,38.9 339.7,30.8 	"/>
	<polygon class="st0" points="336,24.1 336.6,26.9 348.4,36.5 338.7,24.7 	"/>
	<polygon class="st0" points="340.7,25 343.7,27.7 350.8,29.3 344.6,25 	"/>
	<polygon class="st0" points="329,25.1 325.1,25.1 318.9,29.4 326,27.8 	"/>
	<polygon class="st0" points="333.1,28.1 334.6,41.5 336.1,28.1 334.6,25.7 	"/>
	<polygon class="st0" points="327.1,38.9 332,32 332.3,28.6 329.7,30.8 	"/>
	<polygon class="st0" points="320.7,36.9 332.5,27.1 333.1,24.4 330.4,25 	"/>
	<path class="st0" d="M274.7,74.3c0,0.6,0.1,1.1,0.3,1.7l2.5,1.5c0.5-1.9,1.3-3.3,3.5-3.3h2.2v2.2c0,2.1-1.4,2.9-3.3,3.5l1.5,2.5
		c0.5,0.2,1.1,0.3,1.7,0.3c3.8,0,5.6-2.6,5.6-6.2v-7.8h-7.8C277.3,68.7,274.7,70.5,274.7,74.3z"/>
	<path class="st0" d="M280.8,66.3h7.9v-7.8c0-3.6-1.8-6.2-5.6-6.2c-0.6,0-1.1,0.1-1.7,0.3l-1.5,2.5c1.9,0.5,3.3,1.3,3.3,3.5v2.2
		h-2.3c-2.1,0-2.9-1.4-3.5-3.3l-2.5,1.5c-0.2,0.5-0.3,1.1-0.3,1.7C274.6,64.5,277.2,66.3,280.8,66.3z"/>
	<path class="st0" d="M296.6,82.7c0.6,0,1.1-0.1,1.7-0.3l1.5-2.5c-1.9-0.5-3.3-1.3-3.3-3.5v-2.3h2.2c2.1,0,2.9,1.4,3.5,3.3l2.5-1.5
		c0.2-0.5,0.3-1.1,0.3-1.7c0-3.8-2.6-5.6-6.2-5.6H291v7.9C291,80.1,292.8,82.7,296.6,82.7z"/>
	<path class="st0" d="M305.1,60.7c0-0.6-0.1-1.1-0.3-1.7l-2.5-1.5c-0.5,1.9-1.3,3.3-3.5,3.3h-2.3v-2.3c0-2.1,1.4-2.9,3.3-3.5
		l-1.5-2.5c-0.5-0.2-1.1-0.3-1.7-0.3c-3.8,0-5.6,2.6-5.6,6.2v7.9h7.9C302.5,66.3,305.1,64.5,305.1,60.7z"/>
	
		<rect x="106.4" y="62.7" transform="matrix(0.7071 -0.7071 0.7071 0.7071 -15.182 98.3678)" class="st0" width="9.6" height="9.6"/>
	
		<rect x="116.2" y="72.5" transform="matrix(0.7071 -0.7071 0.7071 0.7071 -19.2434 108.1728)" class="st0" width="9.6" height="9.6"/>
	
		<rect x="96.2" y="72.9" transform="matrix(0.7071 -0.7071 0.7071 0.7071 -25.3259 94.1619)" class="st0" width="9.6" height="9.6"/>
	
		<rect x="116.5" y="52.6" transform="matrix(0.7071 -0.7071 0.7071 0.7071 -5.0389 102.5691)" class="st0" width="9.6" height="9.6"/>
	
		<rect x="96.2" y="52.6" transform="matrix(0.7071 -0.7071 0.7071 0.7071 -10.9819 88.2206)" class="st0" width="9.6" height="9.6"/>
	
		<rect x="250.6" y="52.6" transform="matrix(0.7071 -0.7071 0.7071 0.7071 34.1982 197.3814)" class="st0" width="9.6" height="9.6"/>
	
		<rect x="240.4" y="62.8" transform="matrix(0.7071 -0.7071 0.7071 0.7071 24.0505 193.1719)" class="st0" width="9.6" height="9.6"/>
	
		<rect x="250.2" y="72.6" transform="matrix(0.7071 -0.7071 0.7071 0.7071 19.9915 202.9808)" class="st0" width="9.6" height="9.6"/>
	
		<rect x="230.3" y="72.9" transform="matrix(0.7071 -0.7071 0.7071 0.7071 13.9079 188.9706)" class="st0" width="9.6" height="9.6"/>
	
		<rect x="230.3" y="52.6" transform="matrix(0.7071 -0.7071 0.7071 0.7071 28.2563 183.0368)" class="st0" width="9.6" height="9.6"/>
	<path class="st0" d="M99.7,32.5h23l-2.2-9.7c1.9-2.2,3.1-5,3.1-8.1V9.5h-4.9v4.9h0h-4.9V9.5h-4.9v4.9h-4.9V9.5h-4.9v5.1
		c0,3.1,1.2,5.9,3,8.1L99.7,32.5z M108.7,19.4h4.9v7.4h-4.9V19.4z"/>
	<polygon class="st0" points="123.1,34.3 99.2,34.3 98.8,36.2 123.5,36.2 	"/>
	<polygon class="st0" points="361.6,22.9 379.2,22.9 361.6,9 	"/>
	<polygon class="st0" points="379.2,9 379.2,22.9 396.8,9 	"/>
	<polygon class="st0" points="396.8,22.9 379.2,22.9 396.8,36.7 	"/>
	<polygon class="st0" points="379.2,36.7 379.2,22.9 361.6,36.7 	"/>
	<polygon class="st0" points="191.4,13.9 200.5,22.9 198.3,17.5 	"/>
	<polygon class="st0" points="209.6,13.7 200.5,22.9 205.9,20.6 	"/>
	<polygon class="st0" points="200.5,9.9 200.5,22.8 202.7,17.3 	"/>
	<polygon class="st0" points="213.4,22.9 200.5,22.9 205.9,25.1 	"/>
	<polygon class="st0" points="187.6,22.9 200.5,22.9 195.1,20.6 	"/>
	<path class="st0" d="M193.4,25.8l-4.7,8.8l8.8-4.7l2.9,9.5l2.9-9.5l8.8,4.7l-4.7-8.8l9.5-2.9l-9.5-2.9l4.7-8.8l-8.8,4.6l-2.9-9.5
		l-2.9,9.5l-8.8-4.6l4.7,8.8l-9.5,2.9L193.4,25.8z M190,12.4l7.8,4.2l2.6-8.5l2.6,8.5l7.8-4.2l-4.1,7.9l8.4,2.6l-8.4,2.6l4.1,7.8
		l-7.8-4.2l-2.6,8.5l-2.6-8.5l-7.8,4.2l4.1-7.8l-8.5-2.6l8.5-2.6L190,12.4z"/>
	<polygon class="st0" points="209.6,31.8 200.5,22.9 202.7,28.3 	"/>
	<polygon class="st0" points="200.5,35.8 200.5,22.9 198.2,28.3 	"/>
	<polygon class="st0" points="191.3,32.1 200.5,22.9 195,25.2 	"/>
	<polygon class="st0" points="280.1,13.1 280.1,22.8 289.8,13.1 	"/>
	<polygon class="st0" points="280.1,22.8 280.1,32.6 289.8,32.6 	"/>
	<polygon class="st0" points="299.6,32.6 299.6,22.8 289.8,32.6 	"/>
	<polygon class="st0" points="299.6,13.1 289.8,13.1 299.6,22.8 	"/>
	<polygon class="st0" points="294.7,8.2 304.5,18 304.5,8.2 309.4,13.1 309.4,3.3 299.6,3.3 304.5,8.2 	"/>
	<polygon class="st0" points="294.7,3.3 285,3.3 289.8,8.2 	"/>
	<polygon class="st0" points="309.4,27.7 309.4,18 304.5,22.8 	"/>
	<polygon class="st0" points="285,42.4 294.7,42.4 289.8,37.5 	"/>
	<polygon class="st0" points="270.3,18 270.3,27.7 275.2,22.8 	"/>
	<polygon class="st0" points="275.2,37.5 285,37.5 275.2,27.7 	"/>
	<polygon class="st0" points="270.3,32.6 270.3,42.4 280.1,42.4 	"/>
	<polygon class="st0" points="304.5,27.7 294.7,37.5 304.5,37.5 299.6,42.4 309.4,42.4 309.4,32.6 304.5,37.5 	"/>
	<polygon class="st0" points="275.2,18 285,8.2 275.2,8.2 	"/>
	<polygon class="st0" points="270.3,3.3 270.3,13.1 280.1,3.3 	"/>
	<polygon class="st0" points="7.6,87.3 14.1,87.3 10.8,84 	"/>
	<polygon class="st0" points="14.1,47.8 7.6,47.8 10.8,51 	"/>
	<polygon class="st0" points="2.1,53.3 2.1,59.7 5.3,56.5 	"/>
	<polygon class="st0" points="2.1,81.8 5.3,78.5 2.1,75.3 	"/>
	<polygon class="st0" points="2.1,70.7 5.3,67.5 10.8,73 16.3,67.5 21.8,73 16.3,78.5 21.8,84 18.6,87.3 25.1,87.3 21.8,84 
		27.4,78.5 21.8,73 27.4,67.5 32.9,73 38.4,67.5 41.6,70.7 41.6,64.3 38.4,67.5 32.9,62 27.4,67.5 21.8,62 27.4,56.5 21.8,51 
		25.1,47.8 18.6,47.8 21.8,51 16.3,56.5 21.8,62 16.3,67.5 10.8,62 5.3,67.5 2.1,64.3 	"/>
	<polygon class="st0" points="36.1,47.8 29.6,47.8 32.9,51 	"/>
	<polygon class="st0" points="41.6,53.3 38.4,56.5 41.6,59.7 	"/>
	<polygon class="st0" points="41.6,81.8 41.6,75.3 38.4,78.5 	"/>
	<polygon class="st0" points="29.6,87.3 36.1,87.3 32.9,84 	"/>
	<path class="st0" d="M14.3,22.8l7.5,7.5l7.5-7.5l-7.5-7.5L14.3,22.8z M21.8,28.9l-6.1-6.1l6.1-6.1l6.1,6.1L21.8,28.9z"/>
	<path class="st0" d="M24.1,32.6l7.5,7.5l7.5-7.5l-7.5-7.5L24.1,32.6z M31.6,38.7l-6.1-6.1l6.1-6.1l6.1,6.1L31.6,38.7z"/>
	<path class="st0" d="M11.7,40.4l7.5-7.5l-7.5-7.5L4.2,33L11.7,40.4z M17.7,33L11.7,39L5.6,33l6.1-6.1L17.7,33z"/>
	<path class="st0" d="M31.9,5.2l-7.5,7.5l7.5,7.5l7.5-7.5L31.9,5.2z M25.9,12.7l6.1-6.1l6.1,6.1l-6.1,6.1L25.9,12.7z"/>
	<path class="st0" d="M4.2,12.7l7.5,7.5l7.5-7.5l-7.5-7.5L4.2,12.7z M11.7,18.7l-6.1-6.1l6.1-6.1l6.1,6.1L11.7,18.7z"/>
	<path class="st0" d="M155.8,83.7c7.4,0,13.4-6,13.4-13.4v-19h-26.9v19C142.4,77.7,148.4,83.7,155.8,83.7z M144.4,53.3h22.9v17
		c0,6.3-5.1,11.4-11.4,11.4s-11.4-5.1-11.4-11.4V53.3z"/>
	<ellipse transform="matrix(0.7071 -0.7071 0.7071 0.7071 -2.0992 129.9517)" class="st0" cx="155.8" cy="67.5" rx="2.7" ry="2.7"/>
	<ellipse transform="matrix(0.7071 -0.7071 0.7071 0.7071 0.2353 124.3213)" class="st0" cx="150.2" cy="61.9" rx="2.7" ry="2.7"/>
	<ellipse transform="matrix(0.7071 -0.7071 0.7071 0.7071 3.535 132.2877)" class="st0" cx="161.5" cy="61.9" rx="2.7" ry="2.7"/>
	<ellipse transform="matrix(0.7071 -0.7071 0.7071 0.7071 -4.4325 135.5848)" class="st0" cx="161.5" cy="73.1" rx="2.7" ry="2.7"/>
	<ellipse transform="matrix(0.7071 -0.7071 0.7071 0.7071 -7.7321 127.6186)" class="st0" cx="150.2" cy="73.1" rx="2.7" ry="2.7"/>
	<path class="st0" d="M421.1,70.2v8.9l-7.9,2.7h21.3l-7.9-2.7v-8.9h8.9l2.7,7.9V56.8l-2.7,7.9h-8.9v-8.9l7.9-2.7h-21.3l7.9,2.7v8.9
		h-8.9l-2.7-7.9v21.3l2.7-7.9H421.1z M412.2,66.9h11.2V55.8h1.2v11.1h11v1.2h-11v11.1h-1.2V68.1h-11.2V66.9z"/>
	<path class="st0" d="M153.1,25.6v8.9l-7.9,2.7h21.3l-7.9-2.7v-8.9h8.9l2.7,7.9V12.2l-2.7,7.9h-8.9v-8.9l7.9-2.7h-21.3l7.9,2.7v8.9
		h-8.9l-2.7-7.9v21.3l2.7-7.9H153.1z M144.1,22.2h11.2V11.2h1.2v11.1h11v1.2h-11v11.1h-1.2V23.4h-11.2V22.2z"/>
	<path class="st0" d="M245.3,38.4c7.2,0,13.5-5.2,13.5-13.2c0-7.9-5.9-11.5-6.8-12.1c-1.6-1-3.1-1.4-4.6-2.4
		c-0.9-0.6-2.2-2.1-3.3-3.4c-0.2,2.1-0.8,2.9-1.6,3.5c-1.5,1.2-2.5,1.6-3.8,2.3c-1.1,0.6-7.1,4.2-7.1,11.9
		C231.6,32.7,238.1,38.4,245.3,38.4z M252.1,35.6c-0.1,0.1-1.5,1.1-3.1,1.3c-1.6,0.1-3.8,0.2-5.1-1c-0.2-0.2-0.1-0.5,0-0.6
		c0.1-0.1,0.3-0.2,0.4-0.2s0.1,0,0.2,0.1c0.6,0.5,1.5,0.9,3.4,0.9s3.3-0.5,3.9-1c0.3-0.2,0.4,0,0.4,0.1
		C252.3,35.2,252.3,35.4,252.1,35.6z M246.9,32.8c0.3-0.3,0.9-0.8,1.4-1c0.5-0.2,0.8-0.2,1.3-0.2c0.5,0,1,0,1.3,0.3
		c0.4,0.2,0.6,0.8,0.7,1.1c0.1,0.3,0,0.5-0.2,0.6c-0.2,0.1-0.2,0.1-0.4-0.3c-0.2-0.4-0.4-0.8-1.4-0.8s-1.4,0.4-1.9,0.8
		c-0.5,0.4-0.7,0.6-0.9,0.3C246.5,33.4,246.5,33.1,246.9,32.8z M250.1,28.5c1.5,0,4.4-3,5.8-3c1.5,0,1.9,1.6,1.9,2.5s-0.3,2.6-1,3.7
		c-0.7,1-1.2,1.4-2,1.4c-1.1-0.1-3.2-3.4-4.6-3.5c-1.7-0.1-5.5,3.6-8.5,3.6c-1.8,0-2.3-0.3-2.9-0.7c-0.9-0.6-1.3-1.6-1.3-2.9
		c0-2.3,2.2-4.5,5-4.6C245.9,25,248.4,28.6,250.1,28.5z M234.6,18.1c-0.1-0.1-0.5-0.3-0.1-1c1.5-2.2,4.3-3.8,5.1-4.2
		c0.3-0.1,1.6-0.8,3-1.8c0.8-0.6,1.4-1.2,1.7-3.2c0.2,0.7,0.3,1.2,0.2,2c0,0.8-0.7,1.3-0.9,1.4c-0.1,0.1-0.8,0.4-0.9,0.5
		s-0.1,0.1,0,0.2c0.2,0.1,0.4,0.1,0.4,0.4c0,0.2-0.1,0.6-0.7,1.3c-1.2,1.3-2.2,2.1-4.4,3.4C235.7,18.3,234.7,18.1,234.6,18.1z"/>
	<path class="st0" d="M52.1,40.9l4.3-7.5c2.8,1.6,5.8,2.5,9.1,2.6v1.8h2v-1.8c3.2-0.2,6.3-1.1,9.1-2.6l4.3,7.5l1.7-1l-4.4-7.6
		c0.9-0.7,1.8-1.4,2.6-2.2l-1.4-1.4c-0.7,0.7-1.4,1.3-2.2,1.9l-7.5-13.1c1-0.9,1.6-2.1,1.6-3.5c0-2.3-1.6-4.2-3.8-4.7V4.7h-2v4.6
		c-2.2,0.5-3.8,2.4-3.8,4.7c0,1.4,0.6,2.6,1.6,3.5l-7.5,13.1c-0.8-0.6-1.5-1.2-2.2-1.9l-1.4,1.4c0.8,0.8,1.7,1.5,2.6,2.2l-4.4,7.6
		L52.1,40.9z M66.5,11.2c1.5,0,2.8,1.2,2.8,2.8s-1.2,2.8-2.8,2.8s-2.8-1.2-2.8-2.8S64.9,11.2,66.5,11.2z M65,18.5
		c0.5,0.2,1,0.3,1.5,0.3c0.5,0,1-0.1,1.5-0.3l7.6,13.2c-2.5,1.4-5.2,2.2-8.1,2.4v-1.7h-2v1.7c-2.9-0.2-5.6-1-8.1-2.4L65,18.5z"/>
	<path class="st0" d="M66.5,84.3c9.4,0,17.1-7.7,17.1-17.1s-7.7-17.1-17.1-17.1s-17.1,7.7-17.1,17.1S57,84.3,66.5,84.3z M66.5,52.1
		c8.3,0,15.1,6.8,15.1,15.1s-6.8,15.1-15.1,15.1s-15.1-6.8-15.1-15.1S58.1,52.1,66.5,52.1z"/>
	<polygon class="st0" points="74.6,59.6 64,64.5 58.4,75.8 69.6,70.1 	"/>
	<polygon class="st0" points="364.9,87.3 371.4,87.3 368.2,84 	"/>
	<polygon class="st0" points="371.4,47.8 364.9,47.8 368.2,51 	"/>
	<polygon class="st0" points="359.4,53.3 359.4,59.7 362.7,56.5 	"/>
	<polygon class="st0" points="359.4,75.3 359.4,81.8 362.7,78.5 	"/>
	<polygon class="st0" points="368.2,73 373.7,67.5 379.2,73 373.7,78.5 379.2,84 376,87.3 382.4,87.3 379.2,84 384.7,78.5 379.2,73 
		384.7,67.5 390.2,73 395.7,67.5 398.9,70.7 398.9,64.3 395.7,67.5 390.2,62 384.7,67.5 379.2,62 384.7,56.5 379.2,51 382.4,47.8 
		376,47.8 379.2,51 373.7,56.5 379.2,62 373.7,67.5 368.2,62 362.7,67.5 359.4,64.3 359.4,70.7 362.7,67.5 	"/>
	<polygon class="st0" points="393.4,47.8 387,47.8 390.2,51 	"/>
	<polygon class="st0" points="398.9,53.3 395.7,56.5 398.9,59.7 	"/>
	<polygon class="st0" points="398.9,81.8 398.9,75.3 395.7,78.5 	"/>
	<polygon class="st0" points="387,87.3 393.4,87.3 390.2,84 	"/>
	<path class="st0" d="M402,0h-1h-43.7h-1h-43.7h-1H268h-1h-43.7h-1h-43.7h-1H134h-1H89.3h-1H44.6h-1H0v1h43.6v43.7H0v1h43.6v43.7H0
		v1h43.6h1h43.7h1H133h1h43.7h1h43.7h1H267h1h43.7h1h43.7h1H401h1h44.7V45.7v-1V0H402z M88.3,89.3H44.6V45.7h43.7V89.3z M88.3,44.7
		H44.6V1h43.7V44.7z M133,89.3H89.3V45.7H133V89.3z M133,44.7H89.3V1H133V44.7z M177.7,89.3H134V45.7h43.7V89.3z M177.7,44.7H134V1
		h43.7V44.7z M222.3,89.3h-43.7V45.7h43.7V89.3z M222.3,44.7h-43.7V1h43.7V44.7z M267,62.3l-1.8-1.8l-6.8,6.8l6.8,6.8l1.8-1.8v10.5
		l-1.8-1.8l-6.8,6.8l1.8,1.8h-10.5l1.8-1.8l-6.8-6.8l-6.8,6.8l1.8,1.8h-9.8l1.5-1.5l-6.8-6.8l-1.6,1.6v-10l1.6,1.6l6.8-6.8l-6.8-6.8
		l-1.6,1.6v-10l1.6,1.6l6.8-6.8l-1.6-1.6h10l-1.6,1.6l6.8,6.8l6.8-6.8l-1.6-1.6h10l-1.6,1.6l6.8,6.8l1.5-1.5V62.3z M267,44.7h-43.7
		V1H267V44.7z M311.7,89.3H268V45.7h43.7V89.3z M311.7,44.7H268V1h43.7V44.7z M312.7,65.9l1.6,1.6l-1.6,1.6V65.9z M312.7,72.5l5-5
		l-5-5v-5.9l10.9,10.9l-10.9,10.9V72.5z M312.7,81.8l14.2-14.2l-14.2-14.2v-5.9l20.2,20.2l-20.2,20.2V81.8z M334.5,50.6l5-5h5.9
		l-10.9,10.9l-10.9-10.9h5.9L334.5,50.6z M332.9,45.7h3.2l-1.6,1.6L332.9,45.7z M334.5,59.9l14.2-14.2h5.9l-20.2,20.2l-20.2-20.2
		h5.9L334.5,59.9z M332.9,89.3l1.6-1.6l1.6,1.6H332.9z M339.5,89.3l-5-5l-5,5h-5.9l10.9-10.9l10.9,10.9H339.5z M348.8,89.3
		l-14.2-14.2l-14.2,14.2h-5.9l20.2-20.2l20.2,20.2H348.8z M356.4,69.1l-1.6-1.6l1.6-1.6V69.1z M356.4,62.5l-5,5l5,5v5.9l-10.9-10.9
		l10.9-10.9V62.5z M356.4,53.3l-14.2,14.2l14.2,14.2v5.9l-20.2-20.2l20.2-20.2V53.3z M356.4,44.7h-43.7V1h43.7V44.7z M401,89.3
		h-43.7V45.7H401V89.3z M401,44.7h-43.7V1H401V44.7z M402,1h6.4L402,7.4V1z M445.7,89.3H402V45.7h43.7V89.3z M445.7,7.9v0.5
		l-6.9,6.9h6.9v0.5l-6.9,6.9h6.9v0.5l-6.9,6.9h6.9v0.5l-6.9,6.9h6.9v0.5l-6.4,6.4h-0.5v-6.9l-6.9,6.9h-0.5v-6.9l-6.9,6.9h-0.5v-6.9
		l-6.9,6.9h-0.5v-6.9l-6.9,6.9H409v-6.9l-6.9,6.9v-6.9h6.9l0,0h7.4v-7.4l-7.4,7.4v-7.4l-6.9,6.9v-6.9h6.9l0,0h7.4v-7.4l-7.4,7.4
		v-7.4l-6.9,6.9v-6.9h6.9l0,0h7.4v-7.4l-7.4,7.4v-7.4l-6.9,6.9v-6.9h6.9l0,0h7.4V7.9l-7.4,7.4V7.9l-6.9,6.9V7.9h6.9V1h6.9L409,7.9
		h7.4l0,0V1h6.9l-6.9,6.9h7.4l0,0V1h6.9l-6.9,6.9h7.4l0,0V1h6.9l-6.9,6.9h7.4l0,0V1h6.9l-6.9,6.9H445.7z"/>
</g>
</svg>
